<?xml version="1.0" encoding="utf-8"?>
<!-- Generator: Adobe Illustrator 19.0.0, SVG Export Plug-In . SVG Version: 6.00 Build 0)  -->
<svg version="1.1" id="Layer_1" xmlns="http://www.w3.org/2000/svg" xmlns:xlink="http://www.w3.org/1999/xlink" x="0px" y="0px"
	 viewBox="0 0 1296 1296" style="enable-background:new 0 0 1296 1296;" xml:space="preserve">
<style type="text/css">
	.st0{fill:#FFFFFF;}
</style>
<g>
	<path class="st0" d="M1163.5,648.1c-19.8-43.5-46.1-82.2-81.4-114.4c-1,0.7-2,1.3-3,2c7.8,12.3,15.7,24.4,23.4,36.8
		c27.1,43.4,48.6,89.1,56.8,140c2.9,18,3.9,36.3,5.3,54.5c-18.2-70.1-35.3-108.6-54.3-119c1.5,6.4,3,11.9,4.2,17.4
		c13,58.1,6.7,115-10.6,171.2c-19.7,63.9-51.4,121.5-91.8,174.6c-1,1.3-2.1,2.4-3.2,3.6c-0.6,0.6-1.5,1-4.1,2.8
		c33.4-61.7,55.1-125,63-192.6c-0.9-0.4-1.8-0.8-2.7-1.2c-7.9,16.2-15.8,32.3-23.7,48.5c24-102,24.6-200.7-37.3-291.6
		c42.5,117,31.5,230.2-21.6,341.4c10.5-38.3,22.4-75.9,30.9-114.2c8.6-38.7,9.7-78.2-0.3-117.3c0.8,49.6-3.7,98.5-18.3,146
		c-14.5,47.4-37,90.8-70,129c52.6-92,73.6-189.1,48.3-293.6c-1.4,56.4-8.6,111.9-28.4,165.1c-4,10.7-8.6,21.2-13.7,31.6
		c12.9-43.9,26.8-87.4,26.5-133.9c-6.9,24.3-13.1,48.8-20.9,72.8c-23.2,71.3-60.7,133.6-116.7,184.2c-21,19-63.2,45.2-88,52.5
		c87.7-59.2,146.9-139.6,180.5-239.4c-22.5,25.6-44,51.6-67.1,76.2c-23.1,24.6-51.5,42.7-81.4,58.5c10.1-8.1,20.2-16.2,30.2-24.4
		c44.7-36.7,80.4-80.9,109.5-130.7c5.8-10,12.1-19.7,17.8-29.7c14.5-25.6,25.2-52.5,25.9-83c2.3,7.8,4.6,15.5,6.9,23.3
		c8-46.2,0-89.1-28.2-126.6c-30.9-41.1-73.1-61.5-124.2-64c16.8,8.4,34.5,15.4,50.2,25.4c15.7,10,29.5,22.9,44.1,34.5
		c-0.5,0.7-1.1,1.4-1.6,2.1c-11-8.2-22-16.4-33.1-24.6c-0.7,0.8-1.4,1.6-2.1,2.4c9.7,11.4,19.7,22.5,29,34.2
		c22.8,28.9,37.4,60.9,32.4,98.8c-4.3,32.6-15.9,62.7-33.3,90.7c-27,43.6-64.2,77.3-105.1,107.3c-12.6,9.3-25.7,17.9-39.9,25.1
		c2.7-2.4,5.2-5,8-7.3c46.8-40.2,90.3-83.3,119.2-138.8c21.5-41.2,30-84.4,13.5-129.2c-11.9-32.3-32.5-59.2-60.3-82.8
		c36.4,58.6,47.2,95.8,41.2,141c1.3-40.4-7.7-77.5-32.9-109.5c-0.8,0.3-1.6,0.5-2.4,0.8c5.6,15,11.3,30,16.9,45
		c-0.4,0.2-0.7,0.4-1.1,0.6c-4.8-6.5-9.6-13-15.4-21c5.4,18.4,11.4,34.7,14.7,51.4c10.9,54.9-3.6,103.9-38.4,146.8
		c-29.5,36.4-61,71.2-90.2,107.8c-31.6,39.6-53.7,84.4-66.1,133.6c-0.7,2.8-1.6,5.5-2.5,8.7c-0.9-24.2,9.1-64.3,23.3-96
		c20-44.8,47.8-84.9,74.4-125.8c3.8-5.9,7.2-12,10.8-18c-0.9-0.7-1.7-1.5-2.6-2.2c-9.6,11.1-19.7,21.8-28.8,33.3
		c-9.3,11.8-18.1,24.1-26.5,36.6c-8.3,12.5-16.1,25.5-23.5,38.6c-7.4,13.1-14.1,26.6-22.2,41.9c7.3-31.3,20.6-57.5,35.5-82.8
		c19.7-33.4,40.6-66.2,60.8-99.3c2.1-3.5,3.6-7.4,5.4-11.1c-0.7-0.5-1.4-1.1-2.1-1.6c-14.4,17.5-28.9,34.8-43.1,52.5
		c-14.5,18-29.3,35.7-42.8,54.4c-13.4,18.6-25.3,38.2-40,56.3c9.3-18,16.7-37.3,28.2-53.9c33.5-48.5,68.7-95.9,102.9-144
		c5-7.1,7.7-15.8,10.1-24.6c-47.3,66.2-102,127.1-138.5,200.7c-1-0.6-2.1-1.1-3.1-1.7c12.1-23.1,23-47,36.6-69.2
		c23-37.5,47.8-73.8,71.5-110.8c11.3-17.6,20.8-36.2,23.5-57.4c0.8-6.5,0.8-13-0.8-19.9c-1,1.5-2.4,2.9-2.9,4.6
		c-13.2,40.8-37.7,74.9-64.3,107.7c-37.4,46-64.2,98.2-89,151.5c-0.8,1.7-1.7,3.4-4.7,4.4c4.3-12.3,8.4-24.6,12.8-36.8
		c4.6-12.5,9.5-25,13.4-37.9c-37.8,40.6-68.5,85.6-88.1,137.9c1.9-29.6,16.2-55.1,25.8-82.4c-6.3,9.4-13,18.6-18.8,28.3
		c-19.4,32.2-39.1,64.2-46.7,101.8c-10.4,51.6-3.6,99.8,29.1,142.5c19.6,25.5,45.1,43.6,74.8,55.8c2.6,1.1,5.2,2.2,8.9,3.7
		c-85-0.7-141.1-79.4-134.6-185.3c-3.7,13-7.3,26-10.7,37.7c-2.8-16.2,4-46.8,20.3-78.8c12.8-25,27.5-49,41.8-74.2
		c-18.7,5.7-77.3,77.5-91.5,131.9c-14.1,54.4-9.2,107.5,6,160.6c-11.7-18.1-18.9-38-23.6-58.8c-11.1-48.8-5.2-97.1,5.4-145.2
		c3.7-16.6,7.6-33.1,11.4-49.7c0.4-1.7,0.3-3.5,0.5-6.6c-48.4,95.7-61.3,224.4,33.8,323.4c-19.5-12.6-35.9-28.7-49.6-47.4
		c-41.8-57.2-49.3-121.1-36.7-189c9-48.6,32.4-91.1,55.9-133.6c4.3-7.8,8.3-15.7,12.5-23.5c-0.9-0.6-1.7-1.3-2.6-1.9
		c-9.9,11.3-20.2,22.3-29.7,33.9c-27.5,33.3-51.6,68.7-68.7,108.6c-27.1,63.1-28.7,126.4-1.6,190c1.1,2.5,2,5.2,2.1,8.1
		c-30.5-36-43.9-78.2-44.3-125.3c-1.2,0.1-2.3,0.2-3.5,0.3c0,17.9,0,35.7,0,53.6c-0.9,0-1.8,0.1-2.7,0.1
		c-7.7-18.8-12.8-38.5-10.9-58.7c1.8-19.6,6.6-38.9,10.7-61.9c-7.2,7.7-13.6,13.1-18.3,19.7c-19.4,27.1-25.8,58.3-27.9,90.8
		c-0.4,6.4-0.1,12.8-0.7,19.3c-9.9-25.6-12.5-52.4-5.6-78.7c6.7-25.8,17.2-50.7,26.8-78.2c-4.9,4.1-9.8,7-13.1,11.2
		c-16.1,20.3-24.9,44.1-31,68.8c-4.1,16.5-6.2,33.4-8.7,47c-7.5-53.2,10.7-102.8,42.3-148c15.6-22.3,34.1-42.5,51.3-63.7
		c1.7-2.1,3.4-4.4,4.1-7.6c-56.9,32.4-112.4,66.4-145.2,128.2c2.1-15.3,12.4-36.2,34-63.4c14.6-18.5,31.6-35.1,46.9-53.2
		c-47.1,19.6-80.1,55.8-110,95.5c-0.8-0.6-1.7-1.2-2.5-1.9c12.3-16.8,24.1-34.1,37.2-50.4c28.7-35.8,66.5-61,103.5-87.2
		c13.8-9.8,27.4-19.9,40.7-30.7c-48.4,27.4-96.3,55.7-148.1,76.5c65.3-40.1,133.4-76.4,181.9-139.3c-17.9,4.9-35.9,9.9-53.8,14.8
		c82.3-33.9,135.7-90.6,149.4-180.4c-23,82.4-73,140.6-153.7,172c19.2-12.3,39.4-22.8,56.8-36.8c47.1-37.7,77.8-85.1,78.9-147.7
		c0.2-10.2-2-20.4-3.5-30.6c-0.5-3.2-2.2-6.2-5.2-8.8c-1.5,7.3-3.1,14.6-4.6,21.5c-3.3-9.9-5.7-20.1-10.2-29.3
		c-4.7-9.5-12.9-16.2-25.7-21.5c4.2,7.3,7,12.1,9.8,16.9c-0.3,0.4-0.7,0.8-1,1.1c-7.9-7.1-15.8-14.3-25.5-23.1
		c1.1,5.9,1.8,9.7,2.7,14.4c-2.8-3.3-4.8-6.2-7.4-8.2c-1.2-1-3.9,0.1-5.7-0.5c-2.8-1-6.1-2.1-7.9-4.2c-2.9-3.6-4.8-8-7.8-13.4
		c-13.4,3.9-27.6,7.6-41.5,12.1c-21.7,7-43.6,13.6-64.6,22.1c-22.6,9.1-29.1,22.3-24.9,46.5c2,11.4,5.5,22.4,7.9,33.8
		c2,9.6,3.2,19.3,5.2,31.7c-16.5-7.4-26.7-17.3-35.5-28.5c-36-45.7-45.5-98.9-42.3-155.3c1.7-29.2,8.8-57.1,21.7-83.4
		c11.6-23.6,29.2-42.1,49.7-58.1c11.8-9.2,22.2-19.2,28.3-33.2c1-2.3,4.1-3.7,6.7-6c-7-15.9-7.8-32.6-5-52.5
		c1.7,7,2.7,11.2,4.3,18.1c5.9-11.4,14.1-18.5,9.7-30.9c-2.1-5.8-1.1-12.6-1.5-18c13.6-4.7,12.3-19.2,21.2-26.7
		c0.5,4.6,1,9,1.8,15.7c12-20.7,22.7-39.2,33.4-57.7c1.2,0.5,2.5,0.9,3.7,1.4c-0.5,5.7-1,11.4-1.5,17.1c0.9,0.4,1.7,0.8,2.6,1.2
		c11-20.7,22-41.3,33-62c0.7,0.2,1.3,0.4,2,0.6c0.4,2.3,0.8,4.6,1.5,8.9c7.9-9,14.9-17,23.3-26.6c-4.1,9.3-7.3,16.7-10.6,24
		c0.7,0.5,1.4,1,2.2,1.6c11-12.8,21.9-25.6,33.7-39.4c-0.4,7.3-0.7,13.3-1.2,22.4c38.3-29,70-61.7,111.2-81.5
		c-21.4,20.2-46.1,37.4-58.8,65.6c32.1-23.7,61.1-51.6,99.3-67.3c-9.1,7.2-18.3,13.1-25.8,20.8c-7.4,7.6-13,16.9-18,27.1
		c41.6-20.6,81-44.6,127.9-53.4c-40.4,25-52.1,35.7-55.8,50.9c21.1-9.7,41.9-20.2,63.3-28.7c21.8-8.7,44.6-14.1,68.8-14.1
		c-18.5,9.5-35.3,20.7-44.5,40.7c39-10.6,76.7-25.9,118.3-27.3c-9.8,4.1-19.3,7.2-27.8,12c-8.4,4.7-15.7,11.2-22.7,18.6
		c34.8-4.6,69-8.4,103.6-3c-12.3,3.2-24.6,5.9-36.7,9.6c-11.7,3.6-23.9,6.9-33.3,20.6c36.6-7.6,70.8-9.1,106.1-3.3
		c-22.5,2.4-42.5,8.9-61.2,20.8c43.1-1,85.1,1.9,124.4,22.2c-7,0-14,0-23.1,0c18.8,9.1,35.5,17.2,54.6,26.4
		c-29.9-4.5-56.7-8.5-83.5-12.5c-0.3,1.3-0.7,2.6-1,4c27.7,11.8,55.5,23.5,83.2,35.3c-0.3,0.9-0.7,1.8-1,2.7
		c-31.1-10.4-62.7-18-96.1-13.8c47.2,10.6,90.2,30.8,130.9,56.8c-15-2.2-29.9-4.3-44.9-6.5c-0.4,1-0.8,2.1-1.2,3.1
		c20.8,12.2,41.5,24.3,64.2,37.6c-9.7-0.5-17.6-0.9-25.4-1.3c-0.6,0.9-1.2,1.8-1.8,2.7c42.6,31.1,76,69.9,101.4,115.7
		c-37.2-43.3-76.8-83.6-130.7-106.3c53.5,43.6,102.8,90.8,139.1,150.8c-15.1-13.9-29.8-27.5-44.5-41.1c-0.9,0.9-1.8,1.7-2.6,2.6
		c15.3,20.3,30.5,40.5,45.8,60.8c-24.5-26.3-49.5-52-78-73.8c-0.7,0.6-1.3,1.2-2,1.8c10.4,13.1,20.7,26.2,31.1,39.3
		c52,65.7,89.4,138.4,106.5,220.8C1162.4,641.2,1162.9,644.6,1163.5,648.1z M441.5,508.3c-18.1,1.1-36.3,2.3-54.4,3.4
		c0.1,1.1,0.2,2.2,0.3,3.3c18.9,6.1,36.6,1.2,53.8-6.6c1.7-2.1,3.4-4.3,5.2-6.4c-14.7-6.1-31.6-5.6-40.7,2.2
		c7.1,0.5,13.1,0.8,19,1.5C430.4,506.3,435.9,507.4,441.5,508.3z M391.3,299.7c9.4-1.4,5.1-6,3.2-9.3c-5.4-9.6-7.2-19.1-0.8-28.6
		c9,4.7,8.8-8.6,15-8c-2.1,6.1-4.2,12-6.7,19c17.9,2.3,31.6-6.7,47-11.6c-1.8,4.9-3.2,8.5-5.2,13.8c12.6-3.3,21.2-10.2,25.6-18.9
		c5.2-10.3,13.1-16.2,22.2-21.9c-0.5,3.4-1.1,6.7-1.7,10.6c3.3-0.9,5.7-1.5,8.1-2.2c0.2,0.5,0.4,1,0.6,1.5
		c-10.7,8-21.5,16.1-34,25.5c23.4,0.2,45.4-17.3,57.6-43.8c1,2,1.8,3.7,2.6,5.5c3.2-1.6,5.9-2.9,9.8-4.9c-2.2,4.3-3.5,7-5.7,11.3
		c4.1-1.1,7-1.3,9.3-2.6c15-8.5,29.8-17.3,44.8-25.9c1.7-1,3.9-1.1,5.9-1.6c-3,5.1-6.6,7.7-10.1,10.5c-3.2,2.5-6.1,5.3-9.2,7.9
		c0.7,1,1.5,2,2.2,3c14.1-7.9,28.1-15.8,42.3-23.7c-0.3,1.9-0.6,4.2-1,7.3c20.3-5.9,34.8-17.5,47.2-33c-1.8,4.1-3.5,8.2-6.4,14.9
		c35.1-14.8,59.4-40.8,90.5-56c-0.3-1-0.6-2.1-1-3.1c-21.8,2.6-43.5,5.2-65.3,7.8c-0.2-0.3-0.4-0.7-0.6-1
		c20.9-10.7,41.9-21.4,62.8-32.2c-4.5-1.9-8.1-2.6-11.4-1.8c-17,4-34,8.4-53.7,13.4c23.1-12.5,44-23.9,65-35.3c-0.4-1-0.8-2-1.1-3
		c-13.4,3.4-26.9,6.8-42.2,10.6c4.6-4.1,7.8-6.9,11-9.7c-0.4-0.8-0.8-1.5-1.2-2.3c-39.6,8.2-76.8,23.1-112.6,42.5
		c16.2-15.2,32.4-30.5,48.6-45.7c-0.6-0.8-1.1-1.5-1.7-2.3c-37,7.4-68,27.3-98.9,47.7c14.5-12,29.1-23.9,43.6-35.9
		c-0.6-0.8-1.2-1.7-1.8-2.5c-34.1,10.8-64.4,29-94.4,48.3c6-7.1,12.1-14.2,18.1-21.3c-0.7-0.7-1.3-1.5-2-2.2
		c-5.6,3.7-11.3,7.4-16.9,11.1c-0.6-0.8-1.2-1.6-1.8-2.4c19-14.9,37.9-29.8,58.1-45.6c-3.3,0-5.3-0.5-6.8,0.1
		c-32.1,12.6-58,34.5-85.1,58.8c3.3-7.5,5.6-12.7,7.9-17.8c-1-0.8-2.1-1.6-3.1-2.3c-17.9,17.4-35.9,34.9-53.8,52.3
		c-0.4-0.2-0.7-0.4-1.1-0.6c9.3-15.2,18.6-30.4,27.9-45.6c-0.7-0.5-1.5-1-2.2-1.6c-30.2,22.2-54.3,50.2-76.4,80.6
		c6.9-16.7,13.7-33.4,20.6-50c-1.1-0.5-2.2-1-3.3-1.6c-23.2,24.6-39.9,53.5-52.6,84.9c2.2-15.8,4.3-31.6,6.5-47.4
		c-1.1-0.4-2.3-0.8-3.4-1.2c-4.2,8.1-8.9,15.9-12.3,24.2c-3.4,8.3-5.6,17.2-9.1,28.4c0.3-6.4,0.4-10.1,0.6-13.7
		c-0.8-0.1-1.6-0.2-2.4-0.3c-1.9,9.2-3.8,18.4-6,29.1c0-8.8,0-16.1,0-24c-12,11.7-9.7,39.5,4.5,48.7c-0.7-6.2-1.3-11.4-1.8-16.1
		c2.3,2.9,4.8,6,7.8,9.9c1.2-3.7,1.8-5.8,2.8-8.7c2.2,3.7,3.7,6.3,6,10.4c1.4-4.5,2.3-7.5,3.3-10.9c1.5,3,2.7,5.3,4.5,8.9
		c4.4-12.3,8.2-23.2,12.1-34c0.7,0.3,1.5,0.6,2.2,0.9c-0.4,4.5-0.7,9-1.1,13.5c4.6-4,8-12.6,10-12.3c8.8,1.3,10.1-6.1,13.6-10
		c14.7-16.5,31.7-30.2,51.1-43.1c-7.5,7.8-14.2,14.3-20.2,21.4c-14.8,17.3-29.5,34.7-43.8,52.4c-6.8,8.4-9.9,18.3-7.9,31.7
		c3.2-6.5,5.5-10.9,8.6-17.1c-1.3,37.6,10.9,57.7,35.6,60.1c-0.6-2.1-1.2-4-1.7-5.6c5.1,0.2,10,0.5,17.7,0.8
		c-4.1-3.6-5.9-5.2-7.7-6.9c-8.8-8.1-14.2-18.1-15.9-30c-1.1-7.8-1-7.8,6.4-11.5c2.7,25.4,9.6,35.5,23.5,33.6
		C397.5,307.8,394.8,304.3,391.3,299.7z M561.4,488.3c7.4-19.9,1-37.1-16.6-43.9c-18.5-7.1-38-11.6-56.6-18.7
		c-11.1-4.3-20.7-12.3-31.7-17c-10.8-4.5-9.4-13.9-11.5-22.1c-0.7-2.8-1-5.6-1.5-8.5c-0.9,0-1.8,0.1-2.7,0.1
		c-1,6.2-1.9,12.5-2.9,18.7c-0.3,0-0.5,0-0.8,0.1c-0.8-8-1.5-16-2.3-23.9c-0.6-0.1-1.2-0.1-1.8-0.2c-1.7,6.7-3.3,13.4-5.6,22.8
		c0-9.9,0-17.1,0-24.4c-1-0.2-2.1-0.5-3.1-0.7c-3.3,11.3-6.5,22.6-9.8,33.9c-0.3,0-0.5,0-0.8,0c0.5-11.4,1.1-22.7,1.6-34.1
		c-0.8-0.3-1.7-0.5-2.5-0.8c-3.3,10.2-6.6,20.5-10.5,32.6c0.8-9.9,1.4-17.9,2-25.8c-0.9-0.2-1.7-0.4-2.6-0.6
		c-2.7,7.3-5.4,14.6-8.1,21.9c-0.5-0.2-1.1-0.3-1.6-0.5c3.2-12.9,6.4-25.8,9.6-38.7c-0.8-0.3-1.6-0.6-2.3-0.8
		c-4.8,11.8-9.7,23.5-15.2,36.8c1.4-13.4,2.7-25.4,4.1-38.6c-10.7,13.4-10.1,28.5-13.2,42.9c0-16.5,0-33.1,0-49.6
		c-11.8,12.8-10.3,28.4-11,43.8c-1-6.4-2-12.7-2.9-19.1c-0.7,0.1-1.3,0.2-2,0.3c1.3,9.9,2.6,19.8,4.2,32.5c-3.5-6-5.7-9.8-8.3-14.3
		c-0.7,2.6-1.2,4.4-1.7,6.4c-15.8-8.1-31.7-27.3-28-34c1.6,0.9,3.1,1.8,5.3,3c-0.3-5-0.6-9.6-0.8-14.3c0-0.2,0.4-0.4,0.8-0.7
		c1.9,1.2,3.8,2.5,6,3.9c0-2.4,0-3.9,0-6.4c4.1,3.5,7.2,6.1,11.8,10.1c-1.4-3.5-2-5.2-3-7.7c4.1,1.1,7.3,2,10.7,2.9
		c-3.5-21.7-3.6-21.9-10.9-30.4c-4.6-5.3-9.4-10.6-14-16c-7.1-8.2-16.3-13.3-26.8-13.4c-27.3-0.3-50.2,9.9-66.6,32.2
		c-6.5,8.8-7.5,19.1-1.6,29.1c4.7,7.9,14.4,11.1,26.6,9.2c-10.7-20.4-11.4-27.3-6.4-34.2c1.2,5.7,1.6,14.4,4.8,21.8
		c7.3,16.7,43.7,35.1,63.4,33.6c2-0.1,4.7,1,6,2.5c11.1,12.9,21.6,26.2,32.9,38.9c8.8,9.9,20,14.4,33.7,12.2
		c26.7-4.3,53.6-6.3,80.6-3c24.2,3,47.2,9.3,67.8,22.8c9.3,6.1,10.8,11.1,5.7,19.1C554.4,482.5,557.4,485.1,561.4,488.3z
		 M220.3,445.3c17.1-7.2,33.1-15.2,50-20.7c17.1-5.5,35.1-7.7,54.5-3.5c-6.3,9.4-11.7,17.4-17.1,25.5c0.4,0.7,0.9,1.5,1.3,2.2
		c16.4-6.6,30.1-26.7,51.5-10.7c-1-4-1.8-6.9-3.6-8.8c-8.1-8.2-16-16.8-24.9-24.1c-22-18.3-49-26.2-75.7-34.3
		c-14.5-4.4-26.2-10.8-27.9-27.6c-23.4,6.5-53.3,43.1-63.6,77.2c-8.9,29.7-7.2,82.7,3.5,94.9c0.4-4.7,0.8-8.8,0.9-10.5
		c3-2.4,5-3.2,5.4-4.5c1.2-4,1.7-8.1,2.7-12.2c4.2-18.4,8.8-36.6,20.1-52.5c-0.8,8.4-1.7,16.7-2.5,25.1c7.1-8.6,11.6-17.8,17.7-25.8
		c6-7.8,13.7-14.3,20.7-21.4C229.4,425,220.1,433.3,220.3,445.3z M962.6,379c-23.3-38.2-57.1-58.5-99.5-66.1
		c20.4-4.9,39.9-0.7,59.7,4.3c-2.6-3.4-5.3-6.5-8.6-8.6c-28.9-18.3-60.7-25.7-94.6-23.6c-26.2,1.6-50,8.9-66,31.8
		c-7.6,10.8-18.4,15.9-30.5,20.3c-21,7.6-41.4,16.9-61.9,25.8c-2.7,1.2-4.7,4-7,6.1c0.4,0.6,0.8,1.3,1.2,1.9
		c5.8-1.1,11.7-2.2,16.3-3.1c-4.2,4.8-8.1,10.8-13.4,15.2c-8,6.7-12.3,17.5-23.9,20.3c-4.6,1.1-8.7,4-13.1,6
		c0.3,0.9,0.6,1.7,0.9,2.6c32.3-4.2,66.6,5.9,96.7-13.1c-0.2-1-0.3-2.1-0.5-3.1c-16.6,3-33.1,5.9-50,8.9
		c24.4-14.5,48.4-28.8,72.4-43c-0.5-1-0.9-1.9-1.4-2.9c-3,0.2-5.9,0.4-8.9,0.5c0.6,0.6,1.3,1.2,1.9,1.8
		c14.9-12.9,30.4-25.2,44.7-38.8c14.1-13.3,30.1-21.3,49.6-22.5c-18.7,0.5-28.8,15.3-42.2,24.9c1.9-0.2,3.7-0.3,5.3-0.5
		c-7.2,6.8-14.4,13.5-21.5,20.2c0.6,1.1,1.2,2.2,1.8,3.3c12.3-1,24.8-1.1,36.9-3.4c11.5-2.2,22.4-8.4,34-9.7
		c28.6-3.2,56.7,0.5,81.8,15.7C936.3,358.9,948.6,369,962.6,379z M708.5,219.1c15.1,5.8,68.9-8.2,80.1-21
		c-15.6,2.9-29.7,5.5-43.7,8.1c-0.2-0.5-0.3-1-0.5-1.4c17.4-9.4,34.8-18.9,52.3-28.3c-0.4-1.3-0.7-2.6-1.1-3.9
		c-19.5,1.5-38.9,3-58.4,4.5c-0.3-0.6-0.6-1.3-0.9-1.9c26.1-8.9,52.2-17.7,78.3-26.6c-0.2-1-0.4-2-0.7-3
		c-20.4,3.2-40.8,6.3-61.5,9.5c5.7-4.1,11.4-8.2,17.8-12.8c-2.3-0.8-2.9-1.2-3.5-1.2c-1.6,0.1-3.2,0.2-4.8,0.5
		c-21.8,3.4-41,12.8-58,26.4c-22.8,18.1-43.2,39.4-69.9,52.4c-1.1,0.5-1.7,1.8-3.2,3.3c3.5,0.4,6.3,0.7,11,1.3
		c-8.7,3.7-15.5,6.6-22.3,9.4c0.3,0.9,0.6,1.9,1,2.8c14.9,0.9,30-0.9,42.5-9.2c12.4-8.2,22.8-19.2,32.4-27.5
		c-2.1,5.3-5.2,13-8.3,20.7c0.7,0.6,1.4,1.1,2.1,1.7c10.1-4.9,20.2-9.8,30.4-14.7c0.1,0.3,0.3,0.6,0.4,0.9
		C716.6,212,713.1,215.1,708.5,219.1z M443.8,988.7c2.5-2.7,4.4-4.1,5.4-6c17.6-31.4,41.5-57.7,66.7-83
		c39.2-39.4,78.4-78.8,117.6-118.3c5.4-5.4,10.1-11.6,15.1-17.4c-0.7-0.7-1.4-1.4-2.1-2.1c-48.5,37.4-100.2,70.6-143.1,115.2
		c-0.7-0.7-1.4-1.4-2.1-2.1c23.4-26.6,46.7-53.2,70.5-80.3C526.1,813.6,439.5,951.4,443.8,988.7z M842.3,435.9
		c5.6,1.3,9.1,2.3,12.7,2.9c32.6,5.2,62.4,17.1,87.7,38.7c25.5,21.7,47.7,46.5,66.6,74.3c3.6,5.2,8,9.9,12,14.8
		c0.7-0.6,1.5-1.1,2.2-1.7c-10.5-32.2-27.7-60.6-52-88c5.5,1.5,8.2,2.3,11,3.1c0.6-0.8,1.1-1.7,1.7-2.5c-9.4-8-18.4-16.4-28.1-24
		c-32.4-25-68.7-30.8-107.9-20.9C846.8,432.9,845.6,434,842.3,435.9z M985.1,431.8c0.5-0.6,1-1.2,1.4-1.8c-0.9-2-1.6-4.2-2.9-6
		c-1.4-2.1-3.2-4-5-5.9c-22.2-24.1-50.3-38.5-81-48.1c-24.2-7.6-48.9-10.8-74.1-5.6c-4.1,0.8-8.1,2.8-12.1,4.3
		c0.2,0.5,0.4,1.1,0.6,1.6c20.6,3.3,41.3,6.6,61.9,9.9c-0.1,0.9-0.3,1.7-0.4,2.6c-1.5-0.3-3-0.7-4.5-0.7c-1.6,0-3.3,0.4-4.9,0.7
		c41.3,20,83.5,37.3,118.8,67.7c-4.4-17.6-16.9-29.2-27.4-42.5C965.5,415.8,975.3,423.8,985.1,431.8z M631.9,318.9
		c-1.1-1.1-2.1-2.2-3.2-3.3c4.3-1.9,8.7-3.7,13-5.6c-0.8-1-1.7-1.9-2.5-2.9c-4.4,0.6-8.9,0.8-13.1,2c-8.6,2.3-19.7,2.6-25.1,8.2
		c-6.5,6.7-13.6,10.2-21.3,14.1c-1.6,0.8-1.9,4.1-3.3,7.6c-3.1,0.6-8.3,1.6-13.5,2.7c0,1-0.1,2.1-0.1,3.1c8.7,0.6,17.5,1.1,26.2,1.7
		c0.2,0.4,0.4,0.9,0.5,1.3c-8.6,3.2-17.1,6.5-26,9.9c37,29.4,89.2,13.9,113.5-23.3c-13.9,6.4-26.1,11.9-38.8,17.7
		c5.1-9.7,9.8-18.5,14.4-27.3c-0.9-0.7-1.8-1.4-2.7-2.1c-15.5,16.8-28.4,37.6-54.7,37.7c3.3-1.5,7.5-1.6,10.5-3.5
		c8.5-5.3,19.4-9.7,24-17.6c4.1-7.1,9.2-13,14-19.4c3.2-4.3,5.7-9.1,8.5-13.7c-0.8-0.6-1.7-1.3-2.5-1.9
		C643.9,309.2,637.9,314.1,631.9,318.9z M211.2,558.9c2.3-0.9,3.1-0.9,3.4-1.3c1.4-2.1,2.8-4.3,4-6.5c12.5-22.1,29.6-39.5,52.6-50.5
		c52.4-25,107-43.1,165.1-49.1c13.6-1.4,27.2-3.8,40.7-5.7c-0.1-1-0.1-2-0.2-3c-3.3-0.3-6.7-0.9-10-1c-52.3-0.8-102.8,8-151.5,27.1
		c-32.5,12.7-63.1,28.5-87.2,54.6C219.3,533.3,212,544,211.2,558.9z M531.6,471.1c0-1.6,0-3.1-0.1-4.7c-11.5-0.3-23-1.2-34.5-0.9
		c-7.3,0.2-14.5,2.7-21.9,3.1c-17.8,1-35.8,0-53.4,2.2c-27.5,3.4-54.6,9.4-75.5,29.9c-4.5,4.4-7.9,9.8-11.8,14.7
		c0.8,0.9,1.5,1.9,2.3,2.8c37.3-24.9,79.9-32.5,122.8-38.9c-6.7,1.7-13.4,3.4-20.2,5.2c0.2,0.9,0.4,1.8,0.6,2.7
		C470.5,481.9,501,476.5,531.6,471.1z M705.1,670.7c-7,7.3-12.8,13.4-18.8,19.7c6.4-13,12.5-25.4,18.6-37.7c-1-0.6-2-1.1-3-1.7
		c-6.1,8.6-12.3,17.3-18.4,25.9c-0.8-0.2-1.6-0.3-2.4-0.5c0-9.6,0-19.2,0-28.9c-2.7,1.2-3.2,2.3-3.3,3.5
		c-3.1,25.9-13.6,48.6-29.9,68.8c-6.1,7.6-12,15.2-18,22.8C662.9,728,700.9,691.3,705.1,670.7z M689.5,330.3c4-0.9,7.9-2,11.9-2.6
		c25.8-4.2,44.3-21.6,64.7-35.5c4.7-3.2,8.6-7.6,12.8-11.5c0.5-0.5,0.5-1.6,0.9-3c-3,0.3-5.5,0.5-8.6,0.8c3.9-4.6,7-8.3,10.1-12
		c-0.6-0.8-1.1-1.5-1.7-2.3c-8.1,4.2-17,7.3-24.2,12.8c-11.9,9.1-22.6,19.8-33.9,29.6c-4.8,4.1-9.8,10.7-15,11
		C697.2,318.1,693.8,323.8,689.5,330.3z M1099.3,652.2c1.8,23,4.9,45.6,5,68.2c0.1,22.7-1.7,45.6-4.5,68.1
		c-2.7,22-7.7,43.8-11.7,65.7C1115.3,803,1121.6,682.4,1099.3,652.2z M482.3,325.3c22.9,20.4,62.4,22.1,88.9,5.9
		c19-11.6,27.7-33.3,20.4-56c-5,25.9-17.4,43.1-40.7,51.7C528.6,335.1,506.8,332,482.3,325.3z M753.5,268.8
		c-0.8-0.8-1.7-1.6-2.5-2.3c-0.6,0.1-1.4,0-1.9,0.3c-29.4,18-59,35.7-88.2,54.1c-6.6,4.1-12.5,10.2-10.4,19.7c1,0.1,1.8,0.4,2.2,0.1
		c28-17.9,56.1-35.5,83.7-54C743.1,282.3,747.9,274.9,753.5,268.8z M507.6,730.3c-1.1,1.8-2.1,3.6-3.2,5.4
		c-12.7,21.5-25.3,43.2-44.4,59.9c-21.7,19-43.7,37.6-65.4,56.7c-6.9,6-12.9,13-19.2,19.6c4.6-1.3,7.9-3.8,11.3-6.3
		c32.6-23.7,66.1-46.5,92.3-77.7C493,771.1,503.5,752.3,507.6,730.3z M561.9,376.4c0.6-1.2,1.2-2.5,1.8-3.7
		c-6.4-2.5-12.8-7-19.4-7.2c-16-0.6-31.9,0-46.4-8.5c0.4,19.3,30.1,42.2,48.4,36.6c-10.9-7.3-21.5-14.5-32.1-21.6
		c9.7,3.5,19.2,7.3,26.9,13.3c8.2,6.4,15.9,12.7,28.9,14.3c-7.3-9.3-13.2-16.8-20-25.4C555.2,375.1,558.5,375.7,561.9,376.4z
		 M837.3,462c41.2,6.5,70.2,32.8,99.7,61.9C923.8,483.2,874.5,446.1,837.3,462z M971.3,528.1c-1.1-27.8-65.5-75.5-94.4-71.2
		C911.5,475.3,943.7,497.1,971.3,528.1z M589.8,498.3c-18,1-36,2.9-50.2-5.8c-5.1,2.1-8.1,4.5-11,4.4c-10.5-0.5-21-2-31.5-3
		c-0.8-0.1-1.6,0.5-3.1,1c1.9,2.3,3.3,4.1,6.3,7.6c-9.9-2.3-17.8-4.1-26.1-6c3.7,9.9,14.6,13.9,25.6,10.7c6.4-1.9,13-3,19.5-4.4
		c0.1,0.7,0.3,1.4,0.4,2.1c-3.1,2-6.2,4.1-9.3,6.1c0.5,1.2,1.1,2.4,1.6,3.6c8.7-2.7,17.6-4.9,25.9-8.4c4.8-2,8.5-3,14.1-1.7
		C565,507.6,578.2,507.4,589.8,498.3z M746.3,398.2c-7.3,4.9-13.6,9.1-21.5,14.4c24.6,2.5,66.9-19.1,72.5-36.6
		c-20.3,5.9-39.8,11.7-59.4,17.4c0.2,0.9,0.3,1.8,0.5,2.7C740.7,396.7,743,397.3,746.3,398.2z M469.7,367.6
		c-0.6,0.2-1.2,0.5-1.8,0.7c1.1,9.2,2.1,18.3,3.1,26.5c-2.8-1.9-7.2-5-12.5-8.6c4.7,16.9,31.5,32,49.9,29.6
		C495.6,399.9,482.7,383.7,469.7,367.6z M507.2,424.3c3,1.4,6,3,9.1,4.1c8.8,3,17.7,5.6,26.4,8.8c14.5,5.2,23.8,14.7,24.4,31
		c0.1,3.4,0.9,6.8,1.5,11c16-6.6-0.7-22.8,11.4-30C557.2,434.5,535.7,420.3,507.2,424.3z M803.8,625c9.2,33.5,10.9,67.6,9.3,102
		C827,703.8,821.2,638.9,803.8,625z M758.9,559.8c0.5-16.7-13.3-34.1-27.8-36.8c-7.3-1.4-14.6-3.3-21.8-5.1
		c-5.6-1.4-11.1-3.7-16.7-4.2c-7.9-0.7-16-0.2-24-0.2c0.1,0.7,0.2,1.5,0.2,2.2c20.4,5.3,40.9,10.5,61.2,15.8c-0.3-0.9-0.6-1.9-0.9-3
		c0.7-0.5,1.4-1,2-1.5C740.2,537.7,749.3,548.5,758.9,559.8z M496.7,296.9c1.7,12.9,7.2,20.5,17,24.7c10.4,4.4,19.8,2.6,28.8-4.3
		c9.1-6.9-0.9-12.6,0-17.4c-9.5,2.9-18.8,5.9-31.4,9.8c8.3,1.9,14.2,3.2,20.4,4.6C514.8,320.5,509.1,304.5,496.7,296.9z
		 M462.1,338.6c9.9,2.5,18.9,4.9,28,7.2c13.3,3.3,26.5,7.7,40.1,9.3c9.3,1.2,19.1-1.4,28.6-2.4c0-1.4-0.1-2.8-0.1-4.2
		c-3.9-0.4-7.8-0.9-11.7-1c-6.7-0.1-13.7,1.4-20-0.1c-14.9-3.5-29.5-8.2-44.1-12.6C474.9,332.3,467.5,331.3,462.1,338.6z
		 M360.1,958.9c0.8,0.6,1.5,1.2,2.3,1.8c20.1-27.9,40.1-55.8,60.2-83.7c-0.8-0.6-1.7-1.2-2.5-1.8C394.4,899,375.5,927.7,360.1,958.9
		z M465,519.5c10.7,25.2,25.2,42.5,52.9,47.8c-13.1-10.8-24.8-20.5-38.6-31.8c10.4,1.4,17.4,2.4,24.4,3.3c0.2-0.9,0.5-1.8,0.7-2.7
		C492.1,530.9,479.7,525.7,465,519.5z M595.1,704.9c-10.8,20.4-21.6,40.9-31.9,60.3c21.5-18,39.3-45.6,40.6-63.9
		c-2.4,3.6-4.6,7.1-6.9,10.5c-0.1,0.1-0.4,0-0.7-0.1C595.8,709.2,595.4,706.8,595.1,704.9z M501.4,388.9c5.5,15.1,41.2,28.5,63,20.7
		C543.7,402.8,523,396,501.4,388.9z M637.7,370.4c-23,10.4-44.1,10.1-66.1,0.8C581.3,391.2,623.1,391.1,637.7,370.4z M929.8,421.5
		c-11.9-15.3-50.3-26-65.7-19.2C885.9,408.7,906.7,414.8,929.8,421.5z M704.7,536.2c17,13.4,34.8,27.4,50.9,40.2
		C748.7,553.6,726.9,536.2,704.7,536.2z M526.8,763.4c1.1,0.7,2.2,1.5,3.3,2.2c15.7-18.1,29.1-37.6,34.6-61.4
		c-0.9-0.5-1.8-1-2.7-1.5C550.2,722.8,538.5,743.1,526.8,763.4z M441.9,770.3c-9.6,9.2-27.7,26.4-42.6,40.5
		C419.5,801.8,436.6,783.8,441.9,770.3z M619.6,515.2c9.6,13,45.7,17.6,63.3,8.5C662,520.9,641,518.1,619.6,515.2z M465.8,504.8
		c16.1,17.6,40.8,20.4,59.3,34.1C511.8,516.6,486.7,514.4,465.8,504.8z M830.2,709c10.8-17.8,9.1-53.9,0-62.4
		C830.2,666.9,830.2,687.9,830.2,709z M735.5,376.9c0.5,1.1,0.9,2.3,1.4,3.4c17.3,1.8,41.6-9.4,46.8-23.6
		C766.6,363.9,751.1,370.4,735.5,376.9z M534.3,568.8c17.6,10.1,33.4,19.1,50.5,29C577.3,580.1,555,567.3,534.3,568.8z M701.4,568.6
		c-7.9-16.8-38.6-29.8-52.1-23.3C666.1,552.9,683.2,560.5,701.4,568.6z M858.9,347.7c-0.1,1.1-0.3,2.2-0.4,3.3
		c17.8,2.7,35.6,5.4,53.4,8.1c0.1-1,0.3-2,0.4-3C895.6,346.3,877.4,346.2,858.9,347.7z M660.5,498c-0.2,1-0.4,2-0.6,3
		c17.2,4.1,34.5,8.1,51.7,12.2C696.9,499.4,679.4,496.1,660.5,498z M602.9,308.4c20-2.7,35.1-19.4,34.2-29.6
		C627.8,286.9,616.3,296.8,602.9,308.4z M726.6,571.6c-8-17.4-30.5-31.6-48.5-30C694.8,552,710.2,561.5,726.6,571.6z M874,249.2
		c0.1-1.1,0.3-2.2,0.4-3.2c-21.2-7.4-43.2-8.5-65.5-6.9c-0.1,0.9-0.2,1.8-0.3,2.8C830.4,244.2,852.2,246.7,874,249.2z M635.1,588.6
		c-17.4-4.9-34.7-9.7-52.1-14.6C597.6,589.4,615.7,592.1,635.1,588.6z M726.2,465.6c-0.4,1.3-0.8,2.7-1.2,4
		c-3.8,1.2-7.7,2.4-14.3,4.4c14.6,4.9,26.5,8.9,38.3,12.9c0.7-1.4,1.5-2.9,2.2-4.3C742.8,477,734.5,471.3,726.2,465.6z M645.9,286.4
		c14.2-4.8,26.6-9,39-13.2c-0.1-0.3-0.2-0.6-0.3-1c-5.7,0-11.5,0-18.4,0c3.7-3.4,6.4-6,10.6-9.9C657.7,270,652,274.3,645.9,286.4z
		 M537.5,529.1c4.1,14.1,28.8,24,43.1,17.3C566.4,540.8,552.2,535.1,537.5,529.1z M568.2,510.1c10.1,12.8,36.8,19,49.1,12.1
		C601,518.1,585.8,514.4,568.2,510.1z M598.7,545.3c9.7,16.3,32.4,24.7,43.8,17.4C628.4,557.1,614.5,551.6,598.7,545.3z
		 M455.1,537.8c-1-10.8-6.9-13.9-13.5-14.6c-8,10.9-18.3-0.6-26.2,4.8C425.6,541.3,441.4,530.1,455.1,537.8z M799.4,229.2
		c-0.3-1.4-0.6-2.8-0.9-4.2c-16.4,3.3-32.8,6.6-49.2,9.9c0.3,1.3,0.5,2.5,0.8,3.8C767.2,238.5,783.5,234.8,799.4,229.2z
		 M200.4,572.8c-10.9,6.2-9.6,28.8,2.9,42.3C202.2,599.7,201.3,586.6,200.4,572.8z M592.5,529.1c-14.3-3.4-27.6-6.6-41.3-9.9
		C556.8,531.5,576,536.3,592.5,529.1z M538.7,288c4.7-3.4,10.2-5.6,10.2-7.7c0-7.2-6.1-9.6-12.1-8.8c-3.1,0.4-5.8,4.2-8.7,6.5
		C531.3,281.1,534.6,284.2,538.7,288z M518.6,759.7c15-23.3,23.6-46.4,27.2-73.5C536.5,711.1,528.1,734,518.6,759.7z M510.3,262.4
		c16.6-6.8,33.1-13.5,49.7-20.3C540.9,242.6,523.5,247.3,510.3,262.4z M689,718.4c8.8-4,21.7-13,28.6-28.3c-0.7-0.7-1.4-1.5-2.1-2.2
		C705.2,699.6,695.1,711.4,689,718.4z M519,270.9c17.2-7.7,31.8-14.3,46.4-20.9C548.2,251.1,532,254.7,519,270.9z M802.8,683.4
		c-1.4,18.4-2.7,34.8-4.1,52.7C807.7,718.7,809.1,702.4,802.8,683.4z M263.5,266c-1.3-0.1-2.7-0.1-4-0.2c-0.2,7.8-0.7,15.7-0.3,23.5
		c0.1,1.4,3.5,2.7,5.4,4.1c0.8-2,2.6-4.1,2.4-6C266.1,280.1,264.7,273.1,263.5,266z M276.7,249.9c-6.4,7.4-6.4,13.9-3.9,20
		c1.4,3.3,5.3,5.6,8,8.4c0.8-0.6,1.6-1.3,2.3-1.9C281.2,268.3,279.2,260.1,276.7,249.9z M561.7,305.7c11-7.9,13.6-22.7,4.6-29.7
		C564.7,286.1,563.2,295.9,561.7,305.7z M778.8,287.7c0.7,1.2,1.3,2.5,2,3.7c13.6-5.2,27.1-10.5,40.7-15.7c-0.4-1.2-0.9-2.3-1.3-3.5
		C806.3,277.4,792.6,282.5,778.8,287.7z M196.5,521.1c12.6,0,26.7-12.8,29.5-24.8C215.9,504.8,206.2,512.9,196.5,521.1z
		 M282.6,524.4c0.6,1.6,1.2,3.2,1.8,4.8c11.9-4.7,23.9-9.4,35.8-14.1c-0.5-1.2-0.9-2.4-1.4-3.6C306.7,515.7,294.6,520,282.6,524.4z
		 M734.1,452.5c-0.1,1.1-0.3,2.2-0.4,3.2c15.6,2.2,31.2,4.5,46.8,6.7c0.1-1,0.3-2,0.4-3C765.3,457.2,749.7,454.8,734.1,452.5z
		 M598.8,445.3c0.2-0.8,0.5-1.5,0.7-2.3c-9.7-5.5-16-19.2-31.8-13.6C578.8,435.1,588.8,440.2,598.8,445.3z M737.3,252.3
		c0.2,0.9,0.5,1.9,0.7,2.8c10.5-2.5,21-5,31.5-7.4C757.4,243.5,746.8,245.7,737.3,252.3z M784.6,429.4c15.2,1.6,30.1-3.3,38.2-12.2
		C810.3,421.2,798,425.1,784.6,429.4z M753.1,785.5c0.9,0.7,1.8,1.4,2.8,2.1c9-11.6,18-23.3,27-34.9c-0.8-0.6-1.6-1.3-2.5-1.9
		C771.3,762.4,762.2,774,753.1,785.5z M557.8,686.8c-4.7,13-9.3,26-14,39C552.8,714.3,558.7,701.7,557.8,686.8z M575,387
		c4.9,11.1,15.4,15.5,27.2,12.7C592.3,395.1,583.7,391,575,387z M619.3,698.4c-0.8-0.5-1.6-1.1-2.4-1.6
		c-6.6,12.2-13.1,24.3-19.7,36.5c1,0.5,1.9,1,2.9,1.6C606.5,722.6,612.9,710.5,619.3,698.4z M636.5,298c0.5,1.1,1.1,2.1,1.6,3.2
		c9.5-1.1,17.9-4.5,24.1-12.1c-0.5-0.9-0.9-1.9-1.4-2.8C652.7,290.1,644.6,294.1,636.5,298z M647.3,247.3c18.8-2.4,24.1-5.3,29-16.5
		C667.4,235.8,658.5,240.9,647.3,247.3z M656.1,428.7c14,6.6,28.6,7,38.9,1.9C682.6,430,670.3,429.4,656.1,428.7z M624.7,251.6
		c-13.6,0.7-25,1.3-36.3,1.9C600.1,257.7,611.5,258.5,624.7,251.6z M599.3,428.7c-0.1,0.9-0.1,1.8-0.2,2.7
		c6.1,1.7,12.2,3.6,18.4,5.1c6.4,1.6,12.9,2.8,19.3,4.1c0.2-0.8,0.3-1.6,0.5-2.5C624.6,435.1,611.9,431.9,599.3,428.7z M484.1,277.3
		c-0.5-1.3-1-2.6-1.6-3.9c-8.8,4.3-17.6,8.7-26.5,13c0.8,1.5,1.6,3.1,2.4,4.6C467,286.5,475.6,281.9,484.1,277.3z M784.5,440.8
		c0.1-1,0.2-2.1,0.4-3.1c-11.4-1.3-22.9-2.5-34.3-3.8c-0.1,1-0.2,2-0.4,3C761.7,438.2,773.1,439.5,784.5,440.8z M727.9,236.5
		c-0.4-1.2-0.9-2.3-1.3-3.5c-9.1,3.2-18.1,6.4-27.2,9.6c0.5,1.4,1.1,2.9,1.6,4.3C710,243.5,719,240,727.9,236.5z M714,421.5
		c0.1,1.3,0.2,2.6,0.3,3.9c10.3-1.2,20.6-2.5,30.9-3.7c-0.1-0.8-0.2-1.7-0.3-2.5C734.5,420,724.2,420.7,714,421.5z M602.1,420.1
		c-0.3,1-0.6,2-0.8,3c9.1,2.7,18.2,5.4,27.4,8.1c0.3-1,0.6-2,0.8-3C620.3,425.4,611.2,422.7,602.1,420.1z M861.5,265.8
		c-11-6.4-20.4-7.3-30.1-2.3C840.7,264.2,850.1,264.9,861.5,265.8z M720.5,267.1c-0.5-0.9-1.1-1.7-1.6-2.6c-7.9,5-15.8,10-23.7,15
		c0.5,0.8,1.1,1.7,1.6,2.5C704.7,277.1,712.6,272.1,720.5,267.1z M754.3,424.7c0.5,0.9,0.9,1.8,1.4,2.7c8.2-3.2,16.5-6.4,24.7-9.6
		c-0.4-1-0.8-2-1.1-3C770.9,418.1,762.6,421.4,754.3,424.7z"/>
	<path class="st0" d="M544,1168.3c26.3,13.1,54.9,27.3,81.8,40.7C595.2,1202.9,566.6,1188.8,544,1168.3z"/>
	<path class="st0" d="M604.5,166.9c-10.2,5.4-19.1,10-29.1,15.2C584.3,168.7,592.9,164,604.5,166.9z"/>
	<path class="st0" d="M508.7,203c7-4.6,14-9.1,21-13.7c0.4,0.6,0.8,1.2,1.2,1.8c-7,4.7-14,9.4-20.9,14.1
		C509.6,204.5,509.2,203.8,508.7,203z"/>
	<path class="st0" d="M317.2,376.4c-7.3-1.9-16.6-4-25.7-6.9c-6.6-2.1-14.2-4.6-12.8-13.9c1.2-8,9.5-12.3,18.6-10.7
		c11,2,14.2,6.5,14.6,15.6C312.1,366.1,315.5,371.6,317.2,376.4z"/>
	<path class="st0" d="M725.5,346.8c13.1-8.3,26.2-16.7,41.7-26.5C757,338.1,741.9,343.5,725.5,346.8z"/>
	<path class="st0" d="M741.2,188.9c-7.5,3.9-15.1,7.9-22.6,11.8c-0.5-0.9-1-1.9-1.5-2.8c7.5-3.9,15.1-7.7,22.6-11.6
		C740.1,187.1,740.7,188,741.2,188.9z"/>
</g>
</svg>
