<?xml version="1.0" encoding="utf-8"?>
<!-- Generator: Adobe Illustrator 19.0.0, SVG Export Plug-In . SVG Version: 6.00 Build 0)  -->
<svg version="1.1" id="Layer_1" xmlns="http://www.w3.org/2000/svg" xmlns:xlink="http://www.w3.org/1999/xlink" x="0px" y="0px"
	 viewBox="0 0 1296 1296" style="enable-background:new 0 0 1296 1296;" xml:space="preserve">
<style type="text/css">
	.st0{display:none;fill:#FFE473;}
	.st1{fill:#FFD700;}
	.st2{fill:#2D2D2D;stroke:#FFFFFF;stroke-width:2;stroke-miterlimit:10;}
	.st3{fill:#2D2D2D;stroke:#FFFFFF;stroke-width:4;stroke-miterlimit:10;}
</style>
<rect class="st0" width="1296" height="1296"/>
<rect x="1316.8" class="st1" width="1296" height="1296"/>
<g>
	<path class="st2" d="M416.9,590.4c-2.9-17.4-12.3-30-28.7-37.6c3.8,5.7,7.6,11.3,12.6,18.8c-12.9-7-21.7-15.4-31-25.9
		c-0.5,6.6,4.5,9.5,1.7,14c-5.2-3.3-7.6-10-16.1-9.6c-5.1,0.3-10.3-6.1-11.5-12.6c-0.6-3.6-1.3-5-5.3-3.8
		c-35.5,10.2-71.1,20.1-105.1,34.6c-17.5,7.4-22.7,18.1-21.1,37.4c1.2,14.7,5.5,28.8,9.4,42.9c2,7.1,3.4,14.2,2.9,21.7
		c-0.4,6.2-2.4,7.9-8.1,4.2c-18.1-11.7-31.9-27.4-42.4-46c-25.3-44.7-31.7-93.1-26.8-143.4c3.5-35.7,13.6-69.4,35.8-98.4
		c9.2-12,20-22.4,31.7-31.9c12.3-10,25.2-19.3,29.8-35.6c11.1-4.4,2.6-11,2.4-17.1c-0.3-13.5-4.7-27.4,2-42.4
		c1.2,6.6,2.1,11.6,3.2,17.8c6-9.3,12.9-16.8,8.2-28.6c-2.9-7.2-1.4-15.1,1.2-22.9c2.7,4,4.5,4.9,6.9-0.5
		c3.8-8.6,8.6-16.7,14.9-24.6c0,5.4,0,10.8,0,16.2c11.4-19.1,20.4-39,35.8-55.7c3,5.4,1.1,10.3,1,15.2c-0.2,1.8-2.8,5,2.2,3.9
		c10.4-20.7,19.5-42,34.1-62.8c0.4,5,0.7,8.1,1.1,12.3c8.5-9.2,14.8-19.5,25.6-25.8c-3.6,7.1-7.2,14.2-10.7,21.3
		c0.5,0.4,1,0.9,1.6,1.3c10.9-12.9,21.8-25.8,34.3-40.6c-0.3,9.4-4.1,15.9-1.1,24.2c10.5-8.6,20.5-16.6,30.3-25
		C459.6,66.6,482,48.8,507,34.6c2.7-1.6,5.7-2.8,8.5-4.1c2.3-0.9,2.8,0.3,2.5,2.3c-19.3,17-40.4,32.2-55.2,53.8
		c-2.1,3.1-4.8,5.9-5.8,11.9c33.7-28.5,65.5-57,106.6-71.7c-18.9,14-40.3,25.6-49.7,49.5c5.1,1.3,7.8-2.1,10.8-3.9
		C558.2,53.2,592.1,35,630,26c2.2-0.5,4.4-0.7,6.6-1c2-0.8,4.1-1.7,4.1,1.9c-22.5,10.1-42.4,23.3-54.8,46.3
		c43.4-22.5,87.7-41.6,137.8-41.7c-9.8,5.1-20.2,9.2-29.2,15.6c-9.4,6.7-17.3,14.7-23.2,26.4c40.2-12,78.2-28,120.2-26.6
		c-19.3,6.3-38,13.7-52.8,30.2c19-1.9,36.9-6,55.2-6.2c18.1-0.2,36.1,0,56.2,3c-25,5.2-48.5,8.4-68.9,21.2c-2.3,1.4-5.1,2.8-5.5,7.1
		c35.5-7.9,71-7.9,106.5-1.5c-22.4,1.8-43.1,8.7-63.2,18.3c-0.1,0.9-2.4,1.9-0.2,2.5c2.6,0.7,5.4,0.8,8-0.3
		c40.4-1.6,79.7,2.9,116.5,21.3c-0.3,3.5-2.4,2-4.1,1.6c-6.7,0-13.4,0-20,0c19.8,6.9,38.4,15.9,54.6,29.7
		c-27.4-9.2-55.4-13.3-84.3-12.6c30.2,11.6,60.5,22.6,87.5,41c-33.3-11-66.8-19.9-102.5-17.2c49,10,92.7,32.1,134.9,58.6
		c-14.2-2-28.4-4.1-42.7-6.1c-2.1-0.3-4.9-2.6-5.7,1.7c20.5,11.9,40.9,23.8,63,36.7c-10.3,0-18.7,0-30,0
		c44.5,32.1,77.6,71.1,102.9,116.8c0.8,2.1-0.2,2.5-2,2.1c-26.9-32.6-56-62.8-91.1-86.7c-8.1-5.5-16.2-11.2-25.4-15
		c-2.2-0.6-4.5-0.8-6.2-2.5c0.1,0.1-0.5-0.2-0.5-0.2s0.4,0.3,0.5,0.4c1.6,1.2,2.9,2.7,3.8,4.4c32.8,26.5,64.1,54.6,90.6,87.6
		c13.7,17.2,27.2,34.6,38,53.8c0.8,2.2-0.3,2.6-2.1,2.3c-12.6-13.6-25.2-27.2-41.1-37.5c13.6,19.6,29.4,37.5,41.3,58.2
		c0.8,2.2-0.3,2.6-2.1,2.3c-21.6-25.9-45-50-70.9-71.5c-0.7,0.5-1.4,1.1-2.1,1.6c2.8,3.3,5.5,6.7,8.3,10
		c46,55.1,84.5,114.7,107.7,183.3c8.2,24.1,15.2,48.5,18.5,73.9c-0.7,0.6-1.4,0.6-2,0c-18.3-43.3-43.9-81.5-79.3-113.1
		c47.3,70.7,84.2,144.8,80,233c-6.5-45.1-19.4-87.4-50.9-121.8c16.7,61.4,11.4,121.9-6.4,181.8c-19.1,64.2-50.4,122.3-91,175.4
		c-2.9,3.8-6.3,7.2-9.4,10.8c-1.9,0.5-2.8,0-2.1-2.1c29.4-53.3,50.3-109.7,60.4-169.9c0.6-3.8,0.8-7.6,1.2-11.4
		c-0.6-1.5,3.5-5.2-2-4.4c-7.8,15.8-15.7,31.7-23.5,47.5c4.9-30.1,12.8-59.5,14.1-90c1.2-65.1-5-128.6-38.7-186.5
		c-2.1-3.6-4.1-7.2-5.7-11c-0.4-0.6-0.3-1.5-1.2-1.9c0.4,0.9,1,1.7,1.4,2.6c12.3,27,17.6,55.8,21.5,84.9c0.5,3.4,0.5,7-0.8,10.4
		c2.4,44.5,0.8,88.6-9.3,132.2c-9,39-22.1,76.4-42.4,111.1c-1.7,0.4-2.7,0.1-1.9-2c11.3-30.1,22.5-60.1,30.4-91.3
		c11-43.6,15.6-87.7,9.7-132.5c-1.9-1.9-1.3-4.5-1.7-5.8c-2.1,13.4,0.2,27.8-1.5,42.2c-5.5,85.2-33.3,161.7-88.8,228.9
		c-1.6-5.5,1.3-8.2,2.7-11.1c14.4-30.5,28.8-60.9,40.1-92.8c18.5-52.2,18-105.7,12.4-159.6c-0.9-8.9-2.2-17.7-3.3-26.5
		c-0.8-1-1.4-2-1.4-3.4c-0.8,0.5-0.4,1.3-0.5,2c-1.8,8.6,0.5,17.5-1.3,26.2c-3.5,59.5-16.1,116.7-42.8,170.3c-1.7,0.3-2.8,0-1.8-2
		c8.7-28.9,18.5-57.5,24.2-87.2c2.3-12.2,4.4-24.4,5.2-36.8c0.6-4.8-0.7-9.8,1.1-14.5c-1.5,3.3-0.5,7.6-3.2,10.6
		c-10.1,49.2-26.2,96.3-50.4,140.4c-32.3,59-75.1,108.3-134.4,141.8c-12.2,6.9-24.9,12.8-38,17.7c-1.4,0.5-3,0.6-5,0.1
		c42.8-28.3,80.3-62.1,111.5-102.6s54.8-85.2,70.5-134.2C868.4,873.4,818,919.4,755.6,952c-0.9-0.2-1.6-0.7-2.1-1.5
		c28.4-21.3,56.3-43.3,80.4-69.6c7.5-8.2,15.5-15.9,21.5-25.3c10.5-19,25.4-35,36.1-53.9c10.8-19.1,23.5-37.1,33.3-56.9
		c9.6-19.4,15.2-39.8,16.2-61.4c0-0.6,0-1.3,0.1-1.9c0.5-2.7-0.1-6.5,3.6-6.8c3.4-0.3,4.4,3.2,5.4,5.8c1.5,3.9,2.9,7.8,2.8,12
		c0.2,2.8-0.4,5.6,0.8,8.5c0.2,1.1,0.5,0.1,0.1-0.3c-1.1-1.1-0.7-2.9-0.8-4.5c-0.2-29.7-0.6-59.3-13.3-87.1
		c-22.3-49-60.6-78.2-112.3-90.7c-4.9-1.2-9.8-2.7-14.9-3.3c-3.6-1.9-7.6-1.3-10.6-2.4c-0.4,0.2,0.1,0.1,0.6,0.2
		c1.8,0.5,3.7,0.8,5.5,0.9c28.2,7.5,51.9,23.1,73.8,41.7c6.9,5.9,13.4,12.5,16.5,21.5c-0.4,1.6-1.3,2.5-2.9,2.8
		c-8.5-1.8-11.9-10.2-18.7-14.4c-3.2-2-6.1-4.6-9-7.1c20.6,21.5,39.3,44.2,49.4,72.9c10.9,31.1,6.7,61.6-3.1,91.9
		c-7.5,23.2-18.5,44.8-32.5,64.8c-2,2.8-3.4,6.3-7.3,7.1c-22,28-47.2,53-75.4,74.8c-18,14-36.3,27.7-56.4,38.8
		c-2.1,0.7-2.6-0.3-2.2-2.1c2.5-2.5,5-5.1,7.5-7.6c12.6-12.6,25.4-25,38-37.5c41.5-41,79.5-84.8,95.8-142.7
		c11.3-40.1,6.5-78.2-16.7-113.4c-8.6-13-17.9-25.5-27.1-38.1c-3.3-4.1-6.6-8.3-11.1-11.1c-0.5-0.5-0.8-1.2-1.3-1.8
		c0.5,0.7,1,1.4,1.6,2c4.8,3.1,8,7.7,11.6,11.9c24.6,35.6,31.6,75.4,28.9,117.6c-0.2,3.1,0.1,6.5-3.3,8.4c-4.5-1.9-3.6-6.1-3.8-9.6
		c-0.5-7.7,0.6-15.5-0.8-23.2c-3-24.6-11.9-47.2-24.3-68.6c-0.5-1.1-1.3,0.8-0.4-0.1c0.2-0.2,0.4,0.1,0.7,0.6
		c5,9.3,8.6,19.1,11.4,29.2c0.9,3.3,2.1,8-1.5,9.5c-4.2,1.7-4.9-3.7-6.9-6.2c-1.4-1.7-2.4-3.8-2.8-5.9c-0.1,0.2-0.1-0.8-0.2,0
		c-0.1,0.4,0.4,1,0.5,1.6c13.2,28,16.4,57.7,13.3,87.9c-3.8,37.6-19.5,70.4-43.6,99.3c-2.8,3.4-5.4,7.2-10,8.6
		c-41.6,48.2-86.4,94-116,151.4c-7.3,14.2-13.8,28.7-19.2,43.7c-5.4,14.9-9.5,30.2-13.5,45.6c-1.6-16,1-31.7,4.4-47.2
		c8.8-41,27.3-78,49.2-113.3c14.9-24.1,30.7-47.7,46-71.5c1.6-2.5,4.2-4.7,4.2-8.2c-17.3,8.8-62.6,76.2-97.1,144.2
		c-3.5,0-2.5-2-1.7-3.9c2.6-8.8,5.2-17.6,7.8-26.5c5.7-22.4,17.3-42.2,28.8-61.9c18.3-31.3,38.6-61.4,55.9-89.9
		c-11.7,16.4-27.2,33.4-41.7,51.2c-6,7.4-11.1,15.5-18.4,21.7c-8.8,6.2-13.5,15.7-19.7,24.1c-15.3,20.7-28.4,42.8-40.8,65.4
		c3.6-20.6,13.7-38.6,22.1-57.3c2.5-2.2,1.2-5.8,3.2-8.2c24-37.7,52.7-72,78.9-108.1c11-15.2,22.3-30.3,28.8-44.1
		c-31.3,46.2-69.7,91.8-101.6,142c-3.8,4.2-5,10.4-10.5,13.3c-5.9,11.6-11.6,23.2-17.8,34.6c-0.9,1.7-0.4,7.7-5.6,3.7
		c8.2-35.3,26.5-65.9,45.6-96c22.2-34.9,46.6-68.4,67.4-104.2c9.2-15.8,16.6-32.2,19.2-50.5c1-3.3,1.4-6.7,1.7-10.2
		c0.1-1.3,0,0.3,0-0.9c0,0,0,0.2-0.1,0.3c-10,32.2-26.6,60.9-47.5,86.9c-24.9,30.9-48.4,62.6-67.4,97.5c-1.8,3.1-3.5,6.4-6.9,8.1
		c-12.9,23-23.8,47-35.2,70.7c-3.7,0.1-2.6-2.2-2.1-4.2c2.5-13.7,8-26.4,12.8-39.3c1.2-3.1,3.6-6.1,2.5-9.8
		c-0.1-6.3,4.4-10.9,6.1-16.4c0.1-0.5,0.4-0.9,0.8-1.1c-0.5-0.1-0.8,0.2-1,0.9c-20.8,25.6-40,52.2-58.1,79.7
		C549,947.2,541,965.7,534.8,985c-0.1,0.2-0.4,0.6-0.6,0.6c-0.5-0.1-1-0.3-1.5-0.5c-3.2-27.1,9.1-49.8,18.2-69.2
		c-3.5,5.9-8.9,15.5-14.7,24.8c-1.8,2.9-3,6.4-6.7,7.7c-20.7,33.8-34.9,69.7-37.5,109.9c-4.3,66.1,32.2,129.2,92.3,157.6
		c8.3,3.9,16.9,7.4,25.3,11.1c-0.1,3.5-2.2,2.4-4,1.7c-61.9-3.2-118.1-53.4-129.9-115.9c-2.9-15.4-3.7-30.9-3.6-46.5
		c2-4.6-0.7-9.5,0.7-14.1c0.2-2.3,1.4-4.4,1.8-6.9c-0.5,1.5-0.9,2.8-1.3,4.2c-0.9,3-0.6,6.3-3.1,8.7c-3.3,9.3-4.5,19-6.3,28.6
		c-5.3-4.7-1.9-10.4-1.9-15.7c0.9-23.4,8.7-44.8,18.3-65.7c10.8-23.5,25.6-44.7,37.9-67.3c0.6-2.3,0.6-4.1-2.6-2.7
		c-84.8,80.1-110,175.7-73.8,287.6c-7.6-6.7-10.6-15-14-23c-18-41.8-21.1-85.5-16.2-130.2c3.5-31.7,11.5-62.5,18.4-93.6
		c1.1-4.2,1.1-4.2-1.8-4.1c-17.8,41.6-29.5,84.7-30.6,130.2c-1.7,68,21.9,126.4,68.7,175.5c2,2.1,3.8,4.2,5.8,6.3
		c0.5,1.9,0,2.8-2.1,2.1c-55.4-38-86.7-90.5-93.7-157.1c-7.1-67.6,12.2-129.2,44.7-187.5c8.7-15.7,17.3-31.5,24.3-48.5
		c-7.4,8.4-15.1,16.7-22.3,25.3c-28.4,33.8-53.5,69.8-71.5,110.4c-28.9,65-29.9,130.1-0.8,195.4c1.3,3,4.1,5.9,1.9,10.6
		c-21.8-25.8-36.8-54.5-43.3-87.4c-2.3-11.6-3.8-23.4-5.6-35.1c-2.6,2.6-0.1,6.3-1.7,9.1c-1.1,11.4-0.5,22.8-0.1,34.2
		c0.3,2.1,2.4,4.8-1.7,5.7c-17.1-39.6-16.5-79.4,0-120c-23.2,11-41.3,55.4-44.8,95.4c-1.5,9.1-0.1,18.2-0.8,27.3
		c-0.2,2.3,2,5.8-2.2,7c-19.8-56.2-6.1-107.7,23.2-158.6c-8.7,2.3-12.3,7.8-16,12.8c-14.5,19.5-22.4,42-28.7,65.2
		c-4.7,17.3-7.2,34.9-8.8,52.8c-3.9-15.9-3.7-32-2-48c6.1-55.6,34.5-100.4,69-142.2c7.9-9.6,16.1-18.9,24.2-28.3
		c-0.2-0.9,2.2-2.1-0.3-2.7c-56.1,33.2-110.3,68.6-141.7,129.3c4-18.4,11.9-34.6,21.7-50c15.7-24.6,36.2-45.1,57.1-65.3
		c0.8-2.2,0.2-3.1-2.2-2.2c-37.5,18.4-66.1,47.1-91.6,79.4c-4.7,6-9.2,12.2-13.8,18.3c-1.7,0.4-2.7,0.1-1.9-2
		c20.9-42.2,51.8-76.2,88.4-105c20.5-16.1,42.1-30.8,63.1-46.2c0.2-1.1,2-2,1.2-2.8c-0.7-0.7-2.3,0.3-3.5,0.6
		c-39.2,22.3-78.4,44.5-121.2,59.6c65.5-41.4,135-76.9,184.9-139.1c-20.4,5.7-40.3,12-61.4,13.1c-0.6-0.8-0.7-1.7-0.5-2.7
		c1.2-2.1,3.3-2.6,5.5-3.4C373,777.9,422.8,727.2,446,650.5c1.7-2.8,0.8-6.2,2.3-9.1c-1.3,1.6-0.9,3.6-1.2,5.5
		c-10.4,39.8-31.3,73.4-60.3,102.1c-23.4,23.1-50.7,40.2-81.5,51.8c-3.6,1.3-7.2,2.6-11.1,2.3c-2-0.4-4-0.7-3.9-3.4
		c51.6-20.8,92.8-53.8,120.5-102.6c20.6-36.4,27.3-75,17.1-116c-1-0.5-0.7-2.1-2-2.2c-0.1,1.5-0.7,2.8-1.2,4.1
		c-0.5,6.5-1.6,12.9-4.4,18.8C414.6,599.2,419.3,593.8,416.9,590.4z"/>
	<path class="st1" d="M835.8,617.3c3,4.7,6,9.4,10.3,16.2c-1.9-18-9.5-31.8-15.4-46.8c12.1,5.9,28.9,48.8,30.6,72.7
		c1.5,13.6-0.3,27.2,1.2,40c0.7-1.1,0-3.9,1.9-5.6c4.5-45.2-3.8-87.5-28.5-126.1c-0.7-2.1,0.3-2.6,2.1-2.1
		c29.4,33.5,53,69.5,51.6,116.6c-0.9,31.7-11.4,60.4-26.9,87.6c-26.4,46.4-63.3,83.7-102.6,119c-4,3.6-8.3,6.8-12.5,10.3
		c8.8-11.5,17.8-22.9,26.2-34.7c10.1-14.2,19.7-28.8,21.8-46.8c16.2-19.7,31.3-40.1,40.4-64.3c15.4-40.7,15.2-81.5,1.3-122.5
		c-1.2-3.6-2.4-7.2-3.7-10.8C833.1,617.6,834,617.1,835.8,617.3z"/>
	<path class="st1" d="M811.5,513.5c76.8,8.1,145.6,70.8,143.9,164.9c-0.1,6.4-0.5,12.8-0.8,19.1c-3.7,1.1-1.8-2.8-3.3-3.7
		c-1.1-6.5-2.9-12.7-7.4-20.1c-0.8,65.6-40.2,111.7-72,161.2c-4.8,7.4-9.8,14.8-16.6,20.8c5.2-17.2,13-33.6,17-51.3
		c0.7-3.1,1.3-6.2,1.9-9.3c16.2-24,29.8-49.2,38.9-77c16.7-50.6,6.5-95.2-26.9-135.5c-7.9-9.5-16.3-18.5-23.9-28.4
		c13.3,5.1,22.5,15.8,32.9,24.7c1.6,0.6,3.1,1.3,4.3,2.7c-1-1.5-1.5-3.1-2.2-4.7c-23.1-30.5-54.5-49-90-61.4
		C807.3,511.8,809.5,512.9,811.5,513.5z"/>
	<path class="st1" d="M638.6,840.6c16.5-31.8,37.2-60.8,59.8-88.5c23.7-29.1,43.8-60.4,55.5-96.4c5.3,3.1,1.9,7.7,1.9,11.7
		c-1.3,17.3-8.1,32.6-16.4,47.4c-18.2,32.2-39.6,62.4-60,93.2c-22.6,34-43.6,68.9-56,108.3c-0.2,0.8-1.2,1.4-1.8,2.1
		c1.3-19.5,5.9-38.4,11-57.2c0.9-3.3,1.7-6.7,2.5-10C635.8,847.4,638.1,844.2,638.6,840.6z"/>
	<path class="st1" d="M1006.4,594.3c25.1,37.5,38.5,79.3,44.2,123.7c2.9,22.2,2.5,44.5,1.8,66.8c-0.1,3.4,0.5,7-1.4,10.3
		c-0.5-34.2-10.7-66.4-21.4-98.4c-0.4-1.1-1.4-2-2.1-3c-3.6-22.2-6.2-44.7-13.1-66.3c-3.3-10.3-6.7-20.6-10.1-30.8
		C1003.6,594.5,1004.6,594,1006.4,594.3z"/>
	<path class="st1" d="M684.6,852.8c-0.3-2.5,1.1-4.2,2.6-5.9c20.2-24.7,40.4-49.3,60.6-74c0.7-0.9,1.8-1.5,3.3-1.7
		c-30,53.8-67.4,103.2-91.2,160.4c2.8-22,12.2-42,18.9-62.7C680.6,863.4,682.7,858.1,684.6,852.8z"/>
	<path class="st1" d="M447.5,650.2c-10.8,46-36.1,82.9-71.7,113.1c-24.5,20.8-52.4,35.6-83.6,43.8c-2,1.3-4,1.5-5.9-0.1
		c-1.3-0.6-2.6-1.2-3.8-1.8c2.9-4.5,7.9-2.2,11.7-3.9c34-9.1,62.6-27.7,87.9-51.6c30.5-28.8,52-63.2,63.6-103.6
		C449.2,646.1,447.9,648.3,447.5,650.2z"/>
	<path class="st1" d="M559.5,929.5c15.4-30.3,36.2-56.7,58.2-82.4c1.9-0.4,2.9,0.1,2.2,2.2c-2.1,6-3.9,12.2-8.2,17.1
		c-16.4,17.1-30.7,35.9-44.7,54.9C564.8,924.3,563.9,928.5,559.5,929.5z"/>
	<path class="st1" d="M529.9,948.4c7.8-15.2,16.9-29.4,27.4-43.2c-11,25.8-23.2,51.1-24.1,79.8c-2.7-6.8-3.8-13.5-2.3-21
		C531.8,959,533.1,953.4,529.9,948.4z"/>
	<path class="st1" d="M267.2,331.8c-7.7,3.7-11.9,12.2-10.5,22c0.5,3.7,1.6,7.5,3,11s3.4,6.7,5.5,10.6c-10.4,1.1-19-1.5-24.5-9.9
		c-5.4-8.2-4.1-17.2,0.3-25.5c11.1-20.9,48.9-38.1,71.9-32.9c7.6,1.7,14.3,5.4,19.5,11.4c5.7,6.5,10.6,13.9,17.1,19.3
		c8.9,7.3,5.2,18,9,26.6c0.8,1.7-2-1.2-3.2-0.4l-0.9-0.3c-0.5-0.3-1-0.6-1.6-1c-0.6-0.2-1.1-0.5-1.7-0.7c-0.6-0.1-1.2-0.4-1.7-0.6
		c0,0-0.8-0.5-0.8-0.4c-0.5-0.3-0.9-0.6-1.4-0.9l-0.9-0.2l-0.9,0.1c-0.6,0.4-1.1,0.7-1.7,1.1c-0.7,0.2-1.2,0-1.6-0.7
		c-1.4,0.1-2.8,0.2-4.2,0.2c-1.3,0-2.6,1-3.9-0.1c-3-0.5-1.9,1.2-2.3,3.1c-0.7,3.6,5,10.2-4.3,10.5c-1.4,0-1.4,2.1-1,3.2
		c4.2,9.9,8.6,19.8,19,25c1.5-0.5,2.3,0.4,2.8,1.6c1,3.3,4,3.7,6.7,4.5c0.8,0.3,1.5,0.6,2.2,1.1c0.5,0.7,0.7,1.4,0.8,2.2
		c0.5,3.1,2.3,3.4,4.8,2.3c1.2,0.6,2.4,1.2,3.6,1.9c1.8-1.3,1.2-3.7,2.3-5.2c0-3.5,0.3-6.9,0.1-10.4c-1.1-13.6-0.9-27,5.6-39.6
		c3.4-0.2,2.7,1.7,1.9,3.7c-0.9,15.9-1,31.8,1.9,47.6c1.1,1.2,1.5,2.7,1.8,4.1c1.8-7.6-0.1-15.5,1.4-23.2c0.5-6.5,1.9-12.9,4.5-18.9
		c3.6,0,2.4,2.1,1.7,4c-0.1,2.4-0.2,4.8-0.4,7.1c-1.8,11.1-1.6,22.1,3.1,32.6c0.4,1.1,0.5,2.4,0.8,3.6c0.2,0.9-0.5,2.8,1,2.6
		c0.8-0.1,0.5-2.2,0.6-3.4c0.2-3.9,0.6-7.6,3.9-10.3c2.2-6.9,4.4-13.9,6.5-20.8c1.7-0.2,2.7,0.2,1.8,2.2c0,7.2,0,14.4,0,24.4
		c3.9-12.3,4.5-22.8,10.7-31.8c0.2,11-2.6,22.1,1.8,34.5c3-14,4.4-27.1,11.8-40.9c0,10.7,0,19.3,0,27.8c0.4,0,0.9,0.1,1.3,0.1
		c1.7-7.9,3.3-15.9,5-23.8c0.4-0.9,0.9-0.9,1.6-0.2c0,10.2-0.4,20.4,2.3,30.4c1.9,2.5,3.3,5.1,2.6,7c0.4-2-0.7-5.4-0.7-8.8
		c-0.8-7.1,0.6-13.9,1.8-20.8c5.3,0.9,1.3,5.7,3.4,7.9c0.8,6.8,1.3,13.6,6.2,19c0.4,0,0.8,0,1.2,0c23.1,20.7,53.6,23.7,81.3,33.3
		c14.6,5.1,27,11.8,29.4,28.9c0.1,0.9,0.4,1.9,0.4,2.8c-0.2,4.4,0.7,10.2-3.1,12.2c-3.3,1.8-5.4-4.4-9.5-5.8
		c4.9-0.5,6.1-2.6,4.7-6.9c-2.2-6.9-7.1-11.1-13.1-14.5c-29.3-17-61.4-22.2-94.7-21.8c-15,0.2-30,0.8-44.8,3.7
		c-16.9,3.3-30.9-1.1-41.4-15.2c8-2,12.8,5.9,20,6.4c2.8,1.7,6.2,1.5,9.2,2.6c0.6,0.2,1.2,0.4,1.8,0.5c1.2,0.3-0.4,0.2,0.9,0.2
		c-0.1-0.3-0.4-0.1-0.6-0.2c-2-0.7-3.9-1.3-5.9-1.5c-9.4-0.7-16.2-9-25.9-8.7c-11.4-13.3-22.8-26.6-34.3-39.9c-2.9-2-4.5-5.4-7.7-7
		c-5-4.4-8.1-9.4-7.6-16.5c0.5-6.7-4-10.4-9.9-12.3c-6-2-12-2-16.8,2.8c-4.9,4.9-3.9,11.3,2.6,15c6.1,3.5,12.8,5.4,19.7,6.7
		c5,1,9.8,2.4,13.9,5.7c1.7,2.5,6.1,3.8,3.3,8.1c-15.1-2.3-29.8-6.4-43.3-13c-18.8-9.2-24.3-28.3-15.9-50.2c2.9-2.9,6.4-5,10.1-6.8
		c3.6-2.3,7.7-2.6,11.7-3.5c3.4,0.2,6.6-1.1,9.3-1.1c-3.6,0.5-8.1,0.7-12.4,1.8c-3.6-0.1-6.6,1.8-9.7,3.1
		C272.7,326.8,269.6,328.8,267.2,331.8z"/>
	<path class="st1" d="M201.7,457.6c0.6-6.3,1.2-12.6,2-20.7c-16.3,22.5-19.8,48.1-27,73.4c-2.6-4.4-0.7-8.5-4.7-11.7
		c0,8,0,15.4,0,25.2c-19.1-59.9-4.3-136.2,59.8-170.7c0.8,16.6,11.7,23.1,25.8,27.4c27.7,8.5,55.8,16.5,78.4,36
		c9.9,8.5,20.3,16.9,26.5,29.1c-8.1-5.1-16.6-7.6-25.3-3.5c-7.8,3.7-15.1,8.5-23.7,11.3c3.9-5.7,7.5-11.6,11.7-17.1
		c5.5-7.2,2.7-8.5-4.9-8.9c-32.2-1.6-61.9,6.1-89.1,23.5c-1.3,0.9-2.7,1.8-4.1,2.5c-0.4,0.2-1.1,0-2.4,0c1.7-13.3,11.9-22,17-33.4
		c-17.3,9.8-28.9,24.7-38,41.9C200,461.9,201.2,459.6,201.7,457.6z"/>
	<path class="st1" d="M857.4,323.7c37.2,4.6,68.3,20.2,92,49.7c0.5,2.1-0.3,3-2.5,2.5c-29.6-25.4-64-35.8-102.7-33
		c-6.9,0.5-12.5,4-18.7,6.1c-17.2,5.8-35.5,6.8-54.5,6.4c3.6-11.1,15-13.7,20.7-21.7c0.6-2.5,3.4-3.2,4.2-5.5
		c1.6-0.9,3.3-1.7,6.4-3.3c-3.1-0.7-5-1.1-6.8-1.5c10.6-6.7,22.2-11,34.6-13c2-1.2,3.9-3.2,5.7-2.2c-3.9,0.7-8.6-1.4-13.4,0.4
		c-18.8,2.1-34.5,10.3-47.4,23.9c-2.4,2.5-5,4.8-7.6,7.2c-1.6,0.8-2.5-0.2-3.3-1.4c-1.6-5.6-4.5-2.6-6.9-0.9
		c-9.4,6.4-19,12.5-28.8,18.3c10.6-1.9,19-9.2,29.4-11.5c1.4,0.6,2.5,1.3,1.7,3c-10.7,11.2-24.1,18-38.3,23.3
		c-1.4,2-3.7,2.3-5.7,3.1c-3,0.6-6,1-8.9,1.8c-1.7,0.5-3.3,1.4-5.2,1.3c2.4,0.3,4.5-1.1,6.8-1.7c3-0.2,6-1.1,8.9-1.7
		c2-0.9,4.3-0.3,6.4-1c4.1,0.4,7.7-3.2,14.5-1.3c-24.6,15.5-47.5,30.1-72.2,41.6c-1.1,1.8-2.6,2.9-4.6,3.3c-1.9,0.2-3.7,0.7-5.2,2
		c-10.3,1-20.6,2.3-33.7,1.4c12.5-5.7,22.7-10.3,34.1-15.4c-3.5-0.8-5.5-1.3-7.9-1.9c13.9-5.7,16.6-23.5,32.5-25.9
		c-0.4-0.8-0.7-1.5-1.1-2.3c-7.5,1.9-14.9,3.7-22.4,5.6c10.5-11.4,23.7-17.2,37.2-22.5c10-3.9,20.5-7,30.9-9.8
		c10.1-2.8,19.8-6.9,25.5-15.7c15.4-23.4,38.2-33,64.6-35.3c35.3-3.1,68.3,5,98.3,24.2c1.8,1.1,4.2,1.9,4.4,6.1
		c-18.8-7.4-37.8-7.8-57.1-5.8c-3.4,0.5-6.2,2.7-9.6,2.9c-1.2,0.5,0.3,1.8-0.1,0.6c-0.1-0.4,0.1-0.7,0.6-0.8
		C853.9,323.1,855.7,322.6,857.4,323.7z"/>
	<path class="st1" d="M784.2,212.7c-23.1,9.9-46.7,17.9-74.9,18c6.1-5.5,10.3-9.4,14.5-13.2c-0.5-0.6-0.9-1.2-1.4-1.8
		c-10.9,5.4-21.7,10.8-34.8,17.3c4.6-10.4,8.2-18.8,11.9-27.2c-0.7-0.7-1.3-1.5-2-2.2c-17.9,28.2-42,44.6-77.8,42.2
		c9.2-3.9,16.9-7.1,24.7-10.4c2.1-4.2-2-1.4-2.7-2.4c-1.7-0.6-4.8,1.4-4.7-2.6c24.2-11.8,43.1-30.6,63.4-47.5
		c15.9-13.2,33.3-23.4,53.7-28.3c3.8-0.9,7.4-1.7,12.2-0.8c-5.2,5.4-11.7,8.2-19.7,13.4c21-1.1,38.4-8.5,56.9-8.3
		c2.8-0.2,6.3-3,7.7,2.1c-27.2,5.5-53.5,13.4-77.4,29c9.9-1.4,19.8-2.9,29.8-4c10.3-1.2,20.6-2,31.5,0.6
		c-19.3,10.4-38.6,20.8-57.9,31.1c0.1,0.4,0.3,0.9,0.4,1.3c14.3-2.8,28.6-5.5,42.9-8.3C782.4,210.1,784.5,209.1,784.2,212.7z"/>
	<path class="st1" d="M642.8,776.5c-44.9,47.6-91.4,93.6-137.7,139.9c-21.7,21.8-40.8,45.7-56.1,72.5c-3.6,0.1-2.8-1.9-2-4
		c4.7-23.5,15.6-44.4,27.2-64.9c21.7-38.5,47-74.4,79.4-104.9c3.8-3.6,8.2-6.7,13.2-9.2c-22.3,26.5-47.9,50.1-65.2,80.7
		c42.6-43.3,93-76.5,141-112.9C643.5,774.6,643.6,775.5,642.8,776.5z"/>
	<path class="st1" d="M1016.4,569.2c-16.9-22.8-33.8-45.5-53.8-65.9c-30.6-31.1-66.3-51.3-109.8-57.1c-2.8-0.4-5.5-1.4-8.9-2.3
		c52.5-14.4,92.9-3.9,138.9,45.8c-5.3-3-8.8-4.9-12.2-6.9c-1.3-0.5-2.6-0.9-3.9-1.3c0.6,1.2,1.1,2.4,1.6,3.7
		c22.2,23.9,39.1,51.1,50.4,81.7C1019.3,569.1,1018.2,569.6,1016.4,569.2z"/>
	<path class="st1" d="M878,391.6c-20.9-8.7-43.2-10.2-65.7-12.1c41.6-24,145,13.4,170,58.3c-14-9.7-23.9-22-38.4-27.8
		c-2.4,0-4.4-1.5-5.3-1.6c0.9,0,1.7,2,3,3.4c17.2,12.3,31.8,26.9,39.7,47.2c-33-30.8-73.9-47.1-114.3-64.5c-0.3-1.6-0.1-2.6,1.8-1.7
		c2.4,0.2,4.8,0.3,7.2,0.5c1,0.5,2.3,0.8,2.9,0.1C879.7,392.7,878.3,392.2,878,391.6z"/>
	<path class="st1" d="M602.7,370.3c15.8-2.7,16.3-3.1,46.4-34.1c-0.3,7.2-2.5,11.6-12.4,24c-1,2.6-0.1,3.2,2.3,2.3
		c8.9-3.9,17.7-7.8,26.6-11.7c2.4-1.3,4.2-1.4,4,2.2c-28.6,30.2-64.4,36.5-98.4,17.4c-1.6-0.9-3.1-2-5.4-3.6
		c11.3-2.8,21.8-5.4,31.7-13.9c-11.8,0.3-22,4.3-33.2-1.1c7.5-1.3,13.7-2.3,19.8-3.4c-0.2-3.8-3.7-2.5-5.3-4.6
		c2.7-3.2,7.1-3.4,10.3-5.6c3.9-2.7,12.3-0.8,10.4-9.9c-0.1-0.5,3.7-1.9,5.7-2.8c10.3-4.7,21.4-5.4,33.8-5.6c-4.3,3-8.6,6-12.9,8.9
		c0.7,0.8,1.4,1.6,2.2,2.3c9.3-1.2,13.2-10.9,21.9-14.9c-1.5,8.8-7.6,13.6-12.6,19c-3.3,3.5-7.4,5.3-7.5,12.1
		c0,5.6-7.4,9.7-12.9,13.1c-7.5,4.5-16.1,5.7-24.4,7.8c-0.9,1.5-6.3,2.4-0.8,4.7c6.5,2.8,13.5,3,20.6,1.8c-2.7-0.4-5.4,1.5-7.9,0.1
		C603,373.9,601.8,372.6,602.7,370.3z"/>
	<path class="st1" d="M217,559.5c5.9-20.5,20.8-34,37-46c35.2-25.9,75.1-41.3,117.3-51.2c31.8-7.5,63.9-11.8,96.6-10.3
		c2.3,0.1,4.9-0.7,7.9,1.9c-23.7,3.4-46.7,6.3-69.5,10.1c-49.7,8.3-96.6,25.4-141.1,48.7c-21.1,11.1-35.8,29.3-46.5,50.6
		C215.4,563.3,216.4,561.3,217,559.5z"/>
	<path class="st1" d="M448.7,488.6c-34.8,5.2-68.6,13.3-99.6,30.8c-0.9,1.5-2.3,2.6-3.7,3.7c-5.1,1-6.9-0.1-3.2-4.9
		c11.3-14.5,26.1-23.8,43.4-29.4c21.3-6.9,43.2-10,65.4-11.8c9.7-1.8,19.4,0.4,29.1,0.6c7.9-1.1,15.7-2.1,23.6-3.5
		c10-1.8,19.3,1.2,28.6,4.9c-20.6,3.3-41.1,6.6-61.7,9.9c-1.7,0.9-2.4,0-2.8-1.5c0.3-0.9,1-1.5,1.9-1.7c3.6-3.3,8.9-0.2,12.6-3.2
		c1.6-0.7,3.3-0.5,5-0.4c-2.4-0.3-4.8-0.2-6.7,1.6c-4.3,0.1-8.7,0.3-12.6,2.3C461.8,489.3,455.3,489.2,448.7,488.6z"/>
	<path class="st1" d="M650.5,878.5c1.2-4.2,2.4-8.5,3.5-12.7c14-24,30.9-46,47.2-68.4c20-27.5,40.4-54.8,61.3-83.1
		c1.2,6.1-2.4,9.6-4.3,13.4c-10,20.1-24.5,37.3-37.6,55.3C697.4,814.9,672.5,845.7,650.5,878.5z"/>
	<path class="st1" d="M780.5,279.2c-5.6,4.2-9.7,7.2-14.6,10.9c5.6,1.8,8.5-2,12.7-1.9c-2.4,4.9-6.3,7.5-9.8,9.8
		c-21.4,14.4-40.3,33.3-67.2,38c-3.4,0.6-6.6,2-11.1,0.7c5.5-4.5,11.1-6.3,17.2-8.5c7.7-2.7,13.8-10,19.7-16.3
		c11.8-12.6,24.9-23.9,40.5-31.6C770.9,279,773.8,276.4,780.5,279.2z"/>
	<path class="st1" d="M324.8,199.6c-2,15.9-4.1,31.8-6.1,47.7c-1.4,6.4,0.3,13.3-3.3,19.3c-0.7,3.4-1.4,6.7-2.1,10.5
		c-4.4-1.9-1.9-10.1-8-8.3c-4.5,1.4,2.3,5.5-1.3,8.4c-9-11.4-9.3-24.1-5.7-37.4c2.8-0.3,2.1,1.9,2.4,3.4c0.1,1.1,0,2.5,0.9,3.2
		c1,0.8,1.1-0.8,1.7-1.1c3.9-17.5,8.9-34.7,19.5-49.6C326.3,195.5,325.5,197.6,324.8,199.6z"/>
	<path class="st1" d="M593.1,307.4c1.3,20.5-22.3,36.5-40.8,41c-22.6,5.5-44.1,1.9-64.3-10.5c43.4,8.9,83.2,9.1,103.1-40.6
		C596.4,299.8,593,303.9,593.1,307.4z"/>
	<path class="st1" d="M677.2,715.1c-11.5,11.8-25.2,20.9-38.4,30.4c-2,0.6-2.6-0.3-2.1-2.1c22.8-24.3,37.9-52.6,44-85.5
		c2.6,2.7,0,6.3,1.8,9.2c0.6,7.6-1.3,14.9-2.5,24.2c8.3-8.4,12.1-18.1,18.4-26c1.9-0.3,2.8,0.4,2.1,2.4c-3.6,10.8-10.8,19.7-16,29.6
		c-0.5,4.9-4.2,8.2-6.3,12.2C677.7,711.3,678.3,713.4,677.2,715.1z"/>
	<path class="st1" d="M653.1,348.8c-0.5-9,4.7-14.5,11.2-18.5c28.1-17.4,56.4-34.6,85.3-50.8C724.7,312.2,684.6,324.4,653.1,348.8z"
		/>
	<path class="st1" d="M1090.8,839.2c8.3-41.3,13.5-82.9,11.7-125.2c-0.7-15.7-2.8-31.2-3.8-46.8c17.3,59.2,12.5,117.8-6.1,175.9
		C1089.1,843.3,1090,841.2,1090.8,839.2z"/>
	<path class="st1" d="M842.1,468c39.4-5.8,72.5,22.2,90.4,58.4c-26-25.3-53.2-48.6-90.5-55C840.8,470.2,840.8,469.1,842.1,468z"/>
	<path class="st1" d="M504.3,753.2c-11.6,28.1-30.8,50.5-53.8,69.7c-19.1,15.9-39.1,30.8-58.7,46.1c-1.3,1-2.3,3.4-5.7,1.4
		c39.6-39.3,90.2-67.6,116.5-119.4C503.8,751.2,503.9,752.3,504.3,753.2z"/>
	<path class="st1" d="M884.4,465.6c36.5,10.4,64.4,31.7,83.5,64.4c-25.7-25.8-55.2-46.1-87.6-62.4
		C880.2,463.9,882.5,465.1,884.4,465.6z"/>
	<path class="st1" d="M793.2,390.9c-16.4,17.1-44.7,30.5-65.4,29.9c8.4-5.3,15.4-9.8,24.4-15.5c-5.3-0.4-8.5-0.6-12.3-0.8
		C753,397.3,787.2,388.7,793.2,390.9z"/>
	<path class="st1" d="M565.7,407.9c-17.5-11-35-21.9-52.5-32.9c12.8-0.7,24.7,1.5,36.9,1.1c5.4-0.2,9.9,3.8,14,9
		c-5.3-1.3-9.7-2.3-16.2-3.8c7.2,8.9,13.4,16.5,19.6,24.1C567,406.2,566.4,407.1,565.7,407.9z"/>
	<path class="st1" d="M466.5,400.6c3.9,2.7,7.2,6.2,13.2,7c-9-6.3-6.5-15.7-7.8-24.1c-0.9-2.1-1.1-4.2,0.3-6.2
		c11.2,15.5,20.6,32.5,36.2,44.5c0.3,3.7-1.9,2.6-3.8,2c-15.4-3.2-30-8-40.2-21.1C463.7,400.9,464.6,400.2,466.5,400.6z"/>
	<path class="st1" d="M570.7,486.5c-0.3-1.4-0.7-2.5-0.8-3.6c-2.2-25.9-7.2-32.1-31.6-40.3c-9.3-3.1-19-5.1-28.9-10.6
		c11.5-1.7,21,1.2,30.4,4.4c9.7,3.3,18.5,8.5,27.2,13.7c9.2,5.5,9,5.5,8.5,14.6c-0.2,3.8,0.7,7.6,0.7,11.4
		C576.2,480.3,576.1,484.6,570.7,486.5z"/>
	<path class="st1" d="M805.6,634.6c15.7,31,16.9,63.2,8.5,96.2C814.2,698.4,814.1,666.1,805.6,634.6z"/>
	<path class="st1" d="M558.2,357.9c-32.4,15.8-60.4-7.1-90.5-10c3.9-5.4,7.3-6.3,15.4-3.1c13.9,5.5,27.7,11.7,42.8,12.9
		C536.7,358.5,547.5,357.9,558.2,357.9z"/>
	<path class="st1" d="M565.7,420.6c-22.8,1-44.1-2.4-60.1-20.7C524.9,408.7,546.5,411.2,565.7,420.6z"/>
	<path class="st1" d="M418.4,887.4c0.2,2.4-1.1,4.2-2.5,6c-15.2,21-30.3,42-45.5,63c-1.7,0.4-2.7,0.1-1.9-2
		c12.6-22.7,27.7-43.7,44.6-63.3c1.4-1.7,2.8-3.5,5.3-3.5V887.4z"/>
	<path class="st1" d="M500.5,367.8c13.4,14.6,28.6,26.5,46.3,35C524.3,400.9,508.5,389.7,500.5,367.8z"/>
	<path class="st1" d="M598.4,720.3c0.4-1.9,1.1-3.6,2.9-4.6c0.4,10.5-17.1,38.4-31.2,48c9.7-14.6,17.1-30.3,23.2-46.6
		C596.8,715.2,594.3,723.1,598.4,720.3z"/>
	<path class="st1" d="M656,417.9c0.8-1.9,2.1-3.2,4.2-3.6c3.1,1.1,6.3,1,9.4,0c15.6-2.7,31.2-5.3,46.8-8
		C698,419.6,677.2,419.8,656,417.9z"/>
	<path class="st1" d="M575.1,382.2c19.5,7.6,38.4,9.3,59.7-0.4C618.8,398.9,586,398.3,575.1,382.2z"/>
	<path class="st1" d="M864.2,410.9c21.6-1.4,41.8,2.3,59.4,15.8C903.5,422.6,884.3,415,864.2,410.9z"/>
	<path class="st1" d="M500.1,309.9c14,15.8,29,24.3,47.4,6.6c-2.7,9.6-8.9,14.8-18,15.6C515.3,333.3,507.3,327.6,500.1,309.9z"/>
	<path class="st1" d="M531.3,766.8c10.4-17.9,20.8-35.8,31.2-53.7c-4.2,21.5-15.7,38.9-28.9,55.3
		C532.8,767.8,532.1,767.3,531.3,766.8z"/>
	<path class="st1" d="M738.4,388.6c12.5-9.4,26.9-14.3,41.8-17.9C768.7,382.3,754.8,388.4,738.4,388.6z"/>
	<path class="st1" d="M293,238.6c-1.7,15.1,2.9,29.6,4.8,44.7C285.8,274.2,283.4,252.8,293,238.6z"/>
	<path class="st1" d="M395.4,421.6c-0.5,2.9,1.8,8.2-3.8,7.3c-5.6-1-0.6-6.3-2-9.3c-0.8-3.8-2.6-7.6-0.3-11.4
		c0.9-12,4-23.3,10.8-33.5c0,10.1-5.6,19.3-4.9,29.5C394.4,409.9,394.2,415.7,395.4,421.6z"/>
	<path class="st1" d="M443.5,774.4c-10.1,18.2-24.4,32-43.2,41.1c15.4-12.9,29.3-27.1,41.3-43.1C443.3,772,444.3,772.4,443.5,774.4z
		"/>
	<path class="st1" d="M904.9,366.6c-15.2-2.1-30.3-4.2-45.5-6.3c-1.1-3.9,2.8-2,3.9-3.3c15.6-0.3,31,0.5,45.4,7.7
		C909,368.4,906.5,366.8,904.9,366.6z"/>
	<path class="st1" d="M635.3,292c-4.7,12.5-12.7,21.4-27.5,23.2c8.3-8.6,16.7-17.2,25-25.7C634.9,289,636,289.6,635.3,292z"/>
	<path class="st1" d="M866.6,257.3c-19.1-2.1-38.2-4.2-57.4-6.2c20.8-3,41-0.6,61.1,4.4C870.4,258.9,868.4,257.9,866.6,257.3z"/>
	<path class="st1" d="M715.5,482.7c15.9-9,24.9,0.5,33.3,11.8C737.7,490.6,726.6,486.6,715.5,482.7z"/>
	<path class="st1" d="M750.1,247.1c16.2-5.5,33-8.3,50-10C784.2,244.1,767.6,247.6,750.1,247.1z"/>
	<path class="st1" d="M540.7,293.9c-4.4-0.2-9.1-0.2-9.6-5.7c-0.4-5,3.5-6.4,7.6-6.3c5.5,0.2,11,2.4,11,8.2
		C549.8,295.6,543.7,292.7,540.7,293.9z"/>
	<path class="st1" d="M544.4,307.1c1,7.4-2.7,11.2-7.8,13.4c-7.3,3.1-14.5,2.9-23-4C526.6,318.2,536.4,315.8,544.4,307.1z"/>
	<path class="st1" d="M816.8,287.3c-11.8,3.9-22.8,10.2-35.5,11.5c9.2-7.6,19.8-11.8,31.5-13.3C814.6,285,816.8,283.6,816.8,287.3z"
		/>
	<path class="st1" d="M832,704.7c0.2-13.7,0.8-27.4-0.5-41.1c5.6,14.3,5.4,28.9,2.5,43.6C832.1,707.4,831.2,706.8,832,704.7z"/>
	<path class="st1" d="M527.4,748.8c4.7-13.2,9.3-26.3,14-39.5c3.5,0,2.6,2,1.8,4c-2.8,13.9-7.6,26.9-15.1,38.9
		C526.9,751.2,526.7,750.1,527.4,748.8z"/>
	<path class="st1" d="M665.5,281.6c0.6,4,3.7,1.3,5.6,2.1c2-0.8,4-1.7,4.1,1.8c-8.6,2.8-17.2,5.7-25.8,8.5c3.5-6.5,7.8-11.4,14-14.3
		C665.5,278.8,665.7,279.9,665.5,281.6z"/>
	<path class="st1" d="M604.6,373.5c3.8,0.2,7.5,0.4,13.2,0.6c-13.2,5.3-23.8,4.2-34.6-2.9c3-3.4,6.4-2.8,9.7-2.8c0,0.4,0,0.8,0,1.2
		C596.3,372.6,601,371.3,604.6,373.5z"/>
	<path class="st1" d="M286,289.3c-11.1-10.7-12.3-17.2-6.3-27.6C281.7,270.5,283.6,278.6,286,289.3z"/>
	<path class="st1" d="M692.4,718.7c7.6-7.2,15.1-14.4,22.7-21.5c-4.3,10.4-11.4,18-20.5,23.6C692.5,721.6,692.1,720.6,692.4,718.7z"
		/>
	<path class="st1" d="M740.3,462.3c10.4,1,20.9,1.3,30.5,6.1c-11.2,0.8-22.1-1.2-32.8-4.3C738.4,463,739.5,462.8,740.3,462.3z"/>
	<path class="st1" d="M548.6,256.5c-9.8,4-19.5,8.1-29.3,12.1c6.5-8.5,15.7-11.5,25.2-13.7C546.2,254.4,548.4,253,548.6,256.5z"/>
	<path class="st1" d="M266.9,280.1c0.9,5.9,1.8,11.8,2.7,17.6c0.3,1.9,0.8,4-1.7,4.6c-2.7,0.6-4.1-1.3-4.6-3.6
		c-1.3-5.6-0.5-11.2,0.3-16.8C264.3,280.7,264.8,279,266.9,280.1z"/>
	<path class="st1" d="M677.2,715.1c-0.9-2.1-2.3-4-1.7-6.4c4.8-1.7,6.3-7.5,11.3-9.1c3.5-1.6,3.6-6.5,7.3-7.8c2.2-0.5,3,0.3,2.4,2.5
		C689.7,700.9,685.5,709.9,677.2,715.1z"/>
	<path class="st1" d="M829.9,273c9.9-4.3,19.3-4,28.3,2.4C848.8,273.8,839.3,274,829.9,273z"/>
	<path class="st1" d="M549.1,722.7c2.9-8.4,5.9-16.8,8.8-25.2c1.6,10.4-1.6,19.3-6.9,27.5C549.6,724.8,549.5,723.6,549.1,722.7z"/>
	<path class="st1" d="M616.1,709.5c-2,9.2-5.6,17.4-12.5,24.1C605.6,724.5,610.6,716.9,616.1,709.5z"/>
	<path class="st1" d="M363,432.2c1.3-3.9,3.6-2.1,5.9-1.2c6.9,2.9,13.7,5.7,20.6,8.6c-1.1,4.1-3.8,1.8-6,1.5
		c-7.6-0.2-12.6-6.9-19.9-8.1C363.1,432.9,362.9,432.7,363,432.2z"/>
	<path class="st1" d="M696.1,440.7c-10.8,1.9-21.5,3.3-32.3-0.2c0.2-3.5,2.3-2.3,4.1-1.6c8.8,0,17.5-0.1,26.3-0.1
		C696.2,438.2,696.7,439,696.1,440.7z"/>
	<path class="st1" d="M740.3,431.1c-9,3.5-18.1,2.8-27.1,1.4c0-1.1-0.1-2.2-0.1-3.4c8.2,0,16.5,0,24.7,0
		C739.9,428.3,740.5,429.2,740.3,431.1z"/>
	<path class="st1" d="M752.5,443.3c9.5-0.7,18.2,1.7,27.4,4C769.5,449.8,759.7,448.4,752.5,443.3z"/>
	<path class="st1" d="M597.5,409.6c-8-0.8-14.6-4.4-20.5-9.6c0.3-0.7,0.7-1.5,1-2.2c6.9,3.2,13.8,6.4,20.6,9.6
		C598.3,408.2,597.9,408.9,597.5,409.6z"/>
	<path class="st1" d="M792.3,435.6c7.4-2.2,14.8-4.4,22.1-6.7c2-0.6,2.7,0.2,2.5,2.1c-5.3,2.8-10.7,5.4-16.7,6.2
		C797.3,437.6,794.1,440.1,792.3,435.6z"/>
	<path class="st1" d="M461.5,296.6c6.1-4.4,12.3-8.5,19.9-9.5C475.8,292.4,469.7,296.8,461.5,296.6z"/>
	<path class="st1" d="M640,308.2c6.3-3.6,12.1-8,21.9-9.8C654.1,305.5,647.9,309.1,640,308.2z"/>
	<path class="st1" d="M554.4,264.3c-7.7,2.8-15.5,5.6-22.5,10.1c-2,0.9-2.4-0.1-2.2-1.9c6.4-5.7,13.9-9,22.3-10.2
		C554,261.6,554.6,262.5,554.4,264.3z"/>
	<path class="st1" d="M717.1,279.5c-5.9,3.5-11.7,7-17.6,10.5c3.2-6.9,8.4-11,15.4-12.4C716.7,277,717.5,277.6,717.1,279.5z"/>
	<path class="st1" d="M582.9,445c-4.1-2.2-8.3-4.3-13.9-7.3c9-2.7,14.7,0.7,20.3,4.8C588.6,447.1,585.1,444.5,582.9,445z"/>
	<path class="st1" d="M610.6,431c6.3,1.8,12.7,3.1,19.7,7.3c-9.9,1.8-16.6-3.1-23.8-5.4C606.4,429.2,608.8,430.8,610.6,431z"/>
	<path class="st1" d="M677.3,304.6c-2.7,5.8-6.9,10-13.5,14.5C665.8,310.5,671.5,307.5,677.3,304.6z"/>
	<path class="st1" d="M763.2,258.7c-7.9,1.1-15.5,4.6-24.8,3.6c5.8-3.5,11.1-5.3,16.8-5.8C758,256.7,761.7,253.7,763.2,258.7z"/>
	<path class="st1" d="M389.4,408.1c0.1,3.8,0.2,7.6,0.3,11.4c-6.1-11.1-4.5-22.7-2-34.4C389.2,392.7,385.4,400.7,389.4,408.1z"/>
	<path class="st1" d="M624.9,446.9c-6.4-1.9-12.8-3.8-19.2-5.7c0.4-1.2,1.6-1.3,2.4-2c7.4,0.6,14.1,3.6,21.1,5.7
		C629.2,448.6,627,447.5,624.9,446.9z"/>
	<path class="st1" d="M775.1,768.9c-2.8,5.9-7.8,10.1-12,14.9c-1.5,0.1-2.6-0.2-1.8-2.1c2.3-6.3,7.8-10,11.8-15
		C774.8,766.5,775.8,766.9,775.1,768.9z"/>
	<path class="st1" d="M480.1,477.6c-9.8,3.8-19.3-3.2-29.1-0.6C460.8,474.3,470.5,473.8,480.1,477.6z"/>
	<path class="st1" d="M381.7,392.9c0,9.6,0,19.1,0,29.9c-2.4-4-3.9-7-3.3-10.8C382.4,406.1,377.8,398.8,381.7,392.9z"/>
	<path class="st1" d="M633.5,424.8c-7,0.8-14.2,2.8-21.4-2.5C620.1,421,626.9,421.9,633.5,424.8z"/>
	<path class="st1" d="M584,473.4c9.5-0.3,16.3,0.2,25.2,3C599.6,478.2,592.7,478.1,584,473.4z"/>
	<path class="st1" d="M720.5,248.1c-5.2,4.3-11.3,5.5-17.7,6.3C707.8,249.7,713.7,247.5,720.5,248.1z"/>
	<path class="st1" d="M673.3,247.4c-4.3,3.5-8.9,6.7-16.1,7.7c3.8-6.2,9.2-7.6,13.9-9.8C673.2,244.6,673.7,245.6,673.3,247.4z"/>
	<path class="st1" d="M759.5,431.4c5.4-2.1,10.7-4.3,16.1-6.4c-2.9,6.2-7.9,8.2-13.8,8.7C759.8,434.3,759.1,433.4,759.5,431.4z"/>
	<path class="st1" d="M277.9,248c-4.2-7.1-2.8-12.4,0-20.4C277.9,235.5,277.9,240.7,277.9,248z"/>
	<path class="st1" d="M582.9,445c1.7-2,4.9,0,6.3-2.5c4.1,1.1,3.1,6.8,7.4,7.9C590.8,451.2,586.7,448.4,582.9,445z"/>
	<path class="st1" d="M596.7,266.3c-3.2,0.5-5.9-0.4-9.5-3.2c8.3,0,15.5,0,22.7,0C606.6,268.5,600.8,263.6,596.7,266.3z"/>
	<path class="st1" d="M596.7,266.3c3.8-3.8,9.5,0.5,13.3-3.2c2.4-0.2,4.8-0.5,7.3-0.7c2.1-0.7,2.6,0.3,2.3,2.1
		C612.1,267.4,604.5,267.2,596.7,266.3z"/>
	<path class="st1" d="M468.4,487.3c0.7,0.6,1.5,1.2,2.2,1.7c-6.4,1.3-12.6,5-19.5,1.9C456.4,487.3,462.1,485.9,468.4,487.3z"/>
	<path class="st1" d="M802,711.1c0-6.6,0-13.2,0-19.8c2.2,3.8,3.8,7.8,3.2,12.3c-1.3,2.3-0.1,5-1,7.3
		C803.5,711.6,802.7,711.6,802,711.1z"/>
	<path class="st1" d="M447.5,650.2c-0.6-1.4-1.2-2.7-1.8-4.1c0.9-3.9,1.7-7.7,2.6-11.6c0.9,0.2,1.8,0.4,2.6,0.5
		C450.3,640.2,449.9,645.3,447.5,650.2z"/>
	<path class="st1" d="M357.1,410.5c-0.6-0.1-1.2-0.3-1.7-0.4c-1.6-1.4-3.2-2.8-2-5.3c0.3-2.2,0.8-4.7,3.7-3.6
		c3.3,1.3,1.9,4.6,2.1,7.2C358.4,409,358.2,410.2,357.1,410.5z"/>
	<path class="st1" d="M696.5,694.3c-0.8-0.8-1.6-1.7-2.4-2.5c2.6-3.2,4.5-7.2,10.2-9.8C702.5,687.8,699.8,691.2,696.5,694.3z"/>
	<path class="st1" d="M792.3,435.6c2.2,2.4,5.3,1,7.9,1.7c-5,2.7-10.3,1.7-16.8,1.6C786.5,436.2,789.3,435.7,792.3,435.6z"/>
	<path class="st1" d="M364.9,402.6c-2.3-5.3-2.7-10.7-1-19c1.2,8.1,1.9,13.6,2.7,19.1C366,403.3,365.4,403.3,364.9,402.6z"/>
	<path class="st1" d="M811.1,161c-1.9-2.9-5.3-0.8-7.7-2.1c4.4-2.7,9.2-0.9,14.4-1.9C816.5,161.6,813.8,161.3,811.1,161z"/>
	<path class="st1" d="M822.5,308.5c5.1-2.8,10.5-1.5,16.8-1.5c-3.1,2.8-5.9,3.5-9,3.4C828.1,307.7,824.9,309.5,822.5,308.5z"/>
	<path class="st1" d="M838.2,565.4c-0.7,0.7-1.4,1.4-2.1,2.1c-3.1-3.9-6.3-7.8-9.4-11.7l-0.1,0.1
		C832.7,556.3,834.9,561.6,838.2,565.4z"/>
	<path class="st1" d="M765,336.9c0.9,0.9,1.7,1.8,2.6,2.7c-2,3.2-4.6,5.8-7.9,7.6c-0.7-0.7-1.5-1.4-2.2-2.2
		C757.3,339.9,760.2,337.6,765,336.9z"/>
	<path class="st1" d="M763.2,258.7c-2-3.2-5.4-1.2-8-2.2c4.7-2.8,9.6-1.5,14.7-1.1C768.9,259.6,765.8,258.6,763.2,258.7z"/>
	<path class="st1" d="M775.1,768.9c-0.7-0.7-1.3-1.5-2-2.2c1.7-3.3,4-6.1,9.1-9C780.2,763.2,777.8,766.1,775.1,768.9z"/>
	<path class="st1" d="M675.2,285.5c-1.4-0.6-2.7-1.2-4.1-1.8c4.6-2.5,9.5-2.1,14.7-0.4C682.2,284,678.7,284.8,675.2,285.5z"/>
	<path class="st1" d="M761.3,781.7c0.6,0.7,1.2,1.4,1.8,2.1c-1.3,3.9-4.3,6.1-7.1,8.4c-0.6-0.5-1.2-1-1.8-1.6
		C756.5,787.7,758.9,784.7,761.3,781.7z"/>
	<path class="st1" d="M353.3,404.7c0.7,1.8,1.3,3.5,2,5.3c-4.3,0.6-7.9,0.1-7.7-5.6c0.6-0.9,1.2-1,2-0.2
		C350.9,404.4,352.1,404.6,353.3,404.7z"/>
	<path class="st1" d="M364.9,402.6c0.6,0,1.1,0.1,1.7,0.1l0.6-0.3c2.8,2.8,3.4,6.2,3.3,9.9c-1.3,1.2-2.7,2.4-4,3.6
		C367.8,411.2,364,407.2,364.9,402.6z"/>
	<path class="st1" d="M863.3,357c-1.3,1.1-2.6,2.2-3.9,3.3c-3.3,0.8-6-0.2-8.9-2.9C855.3,356.2,859.3,356.2,863.3,357z"/>
	<path class="st1" d="M362.9,414c-0.1,2.6-1.3,4.2-4,3.5c-3.5-0.9-2.8-3.3-1.6-5.7c0.6-0.6,1.2-0.7,1.9-0.2
		C360.6,412.2,362.4,412.1,362.9,414z"/>
	<path class="st1" d="M598.4,720.3c-0.9,1.6-1.2,5.3-3.7,1.1c-0.8-1.3-1-2.9-1.5-4.3c0.6-2.5,1.2-4.9,1.8-7.4
		c1.8-0.9,2.3-0.3,1.8,1.5C597.7,714.1,594.8,717.7,598.4,720.3z"/>
	<path class="st1" d="M624.9,446.9c1.6-0.3,3.3-0.3,4.2-2c3.5,0.8,6.9,1.6,10.4,2.3C634.4,448.9,629.5,449.5,624.9,446.9z"/>
	<path class="st1" d="M604.6,373.5c-4.5,0.4-8.8,0.5-11.7-3.8c3.3,0.2,6.5,0.4,9.8,0.6C603.3,371.4,604,372.5,604.6,373.5z"/>
	<path class="st1" d="M796,328.2c2.3,4.7-2.6,3.8-4.2,5.5c-1.2-0.2-3-0.8-2.5-2C790.4,328.8,793.6,329,796,328.2z"/>
	<path class="st1" d="M446.8,397.3c-2.6-2,0-6.2-3.4-7.9c-0.2-1.6-0.1-3.4,1.5-4c2.7-1,2.1,1.4,2.1,2.7
		C447.1,391.1,446.9,394.2,446.8,397.3z"/>
	<path class="st1" d="M548.6,256.5c-1.4-0.5-2.7-1.1-4.1-1.6c3.5-2.3,7.4-2.6,12-3.2C554.8,256.3,550.9,255,548.6,256.5z"/>
	<path class="st1" d="M570,305.1c-0.8,1.8-1.5,3.6-2.3,5.4c-1.9,0.2-2.8-0.3-2-2.4c0.8-3,1.6-5.9,2.4-8.9
		C572.6,299.9,570.4,302.8,570,305.1z"/>
	<path class="st1" d="M303.2,245.4c0.1,2.7,0.3,5.4-2.6,7.2c-2.1-2.8-0.3-5.9-0.8-8.7c0.2-0.8,0.7-1,1.4-0.8
		C301.9,243.9,302.6,244.6,303.2,245.4z"/>
	<path class="st1" d="M370.5,412.3c-1.1-3.3-2.2-6.6-3.3-9.9c0.6-0.7,1.2-1.4,1.8-2.1C370.1,404.2,373.1,407.9,370.5,412.3z"/>
	<path class="st1" d="M775.6,470c4.5-3.5,6.6-1.1,9.1,0.3C781.9,472.9,779.6,471.3,775.6,470z"/>
	<path class="st1" d="M802,711.1c0.5,0,1-0.1,1.5-0.1c1.5,0.9,0.7,2.8,1.7,3.8c0.4,3.5,0.6,6.9-1.5,10c-2.3-2.2-0.1-5.5-1.8-7.9
		C801.9,715,802,713.1,802,711.1z"/>
	<path class="st1" d="M832,704.7c0.7,0.8,1.4,1.6,2.1,2.5c-0.6,3.2-1.2,6.4-1.8,9.6c-0.6,0.7-1.3,0.7-1.9,0.1
		C830.4,712.7,830.2,708.6,832,704.7z"/>
	<path class="st1" d="M441.7,410.2c2.6,3,1.6,6.3,1.8,11.7c-2.5-4.3-3.9-6.8-3.7-9.9C440.4,411.4,441,410.8,441.7,410.2z"/>
	<path class="st1" d="M665.5,281.6c-0.7-0.6-1.4-1.2-2.2-1.8c2.3-2.4,4.7-4.4,9.7-4.4C670.7,279.1,668.4,280.7,665.5,281.6z"/>
	<path class="st1" d="M570,305.1c-0.5-2,0.6-4.5-1.9-5.9c0-1.3,0.1-2.6,0.1-3.9c0.8-1.2,1.2-3,3.3-1.8
		C571.8,297.5,572.7,301.5,570,305.1z"/>
	<path class="st1" d="M466.5,400.6c-0.7,0.7-1.4,1.5-2.2,2.2c-2.3-1.7-4.3-3.5-3.3-7.5C463.8,396.3,465.1,398.5,466.5,400.6z"/>
	<path class="st1" d="M562.7,253.2c-0.5-0.4-1.7-1-1.7-1.5c0-2.1,1.8-2.2,3.3-2.2c0.7,0,2.1,0.8,2,1.1
		C566.1,252.6,564.5,252.9,562.7,253.2z"/>
	<path class="st1" d="M560.2,260.5c2.7-1.8,5.6-2.2,9.6-0.4c-3.8,1-6.7,1.8-9.6,2.5c-0.7-0.5-0.9-0.9-0.7-1.4
		S559.9,260.5,560.2,260.5z"/>
	<path class="st1" d="M951.3,693.8c1.1,1.2,2.2,2.5,3.3,3.7c0.5,1.8,0.7,3.6-0.7,5.2C950.7,700.3,951.1,697,951.3,693.8z"/>
	<path class="st1" d="M669.6,353.1c-0.8-1.8-2.4-2-4-2.2c2.4-2.5,5.6-3.2,9.2-4.4C674.2,350.4,671.8,351.7,669.6,353.1z"/>
	<path class="st1" d="M345.4,523.1c0.5-2,0.8-4.1,3.7-3.7c1.5,0.1,2.9,0.1,5.8,0.3C351,521.8,348.5,523.3,345.4,523.1z"/>
	<path class="st1" d="M816.8,287.3c-1.3-0.6-2.7-1.2-4-1.8c3.1-2.1,6.4-2.2,10.1-1.4C821.6,286.8,818.8,286.4,816.8,287.3z"/>
	<path class="st1" d="M692.4,718.7c0.7,0.7,1.4,1.4,2.2,2.1c-2.1,2.2-4.2,4.1-8,4.5C687.1,721.4,690.1,720.3,692.4,718.7z"/>
	<path class="st1" d="M857.4,323.7c-2.1,0-4.2,0-7.3,0c4.1-2.4,7.3-3.7,11.1-3.2C859.9,321.6,858.7,322.7,857.4,323.7z"/>
	<path class="st1" d="M830.3,716.8c0.6,0,1.3-0.1,1.9-0.1c-0.7,2.6-1.4,5.2-2.4,8.5C827.6,721.7,828.1,719.2,830.3,716.8z"/>
	<path class="st1" d="M529.7,272.6c0.7,0.6,1.5,1.2,2.2,1.9c-2.4,1.7-4.9,3.4-8.5,5.9C524,275,527.2,274.1,529.7,272.6z"/>
	<path class="st1" d="M610.6,431c-1.4,0.6-2.8,1.3-4.2,1.9c-2-0.7-4-1.3-8-2.7C604,429,607.4,428.8,610.6,431z"/>
	<path class="st1" d="M759.5,431.4c0.8,0.8,1.5,1.5,2.3,2.3c-2.8,1.6-5.8,2.1-9,0.8C754.6,432.2,756.9,431.5,759.5,431.4z"/>
	<path class="st1" d="M696.1,440.7c-0.6-0.7-1.2-1.3-1.8-2c2.5-1.9,5.2-2.2,8.2-1.1C700.9,440.1,698.8,441,696.1,440.7z"/>
	<path class="st1" d="M830,650.3c0.7,2.8,1.4,5.7,2.2,9.3c-4.8-2.1-3.3-5.4-3.9-7.9c-0.3-0.5-0.5-1-0.2-1.4
		C828.6,649.5,829.3,649.9,830,650.3z"/>
	<path class="st1" d="M826.7,555.9c-3.3-1.2-4.9-4.2-6.6-6.9C823.7,550,827,551.3,826.7,555.9C826.5,556,826.7,555.9,826.7,555.9z"
		/>
	<path class="st1" d="M642.8,776.5c-0.1-0.9-0.2-1.8-0.2-2.7c1.5-2.2,3.3-4.2,6.9-4.6C647.9,772.7,645.6,774.8,642.8,776.5z"/>
	<path class="st1" d="M668,438.9c-1.4,0.5-2.8,1.1-4.1,1.6c-2.2-0.7-4.5-1.3-7.6-2.3C661,436.2,664.5,437.2,668,438.9z"/>
	<path class="st1" d="M527.4,748.8c0.2,1.1,0.4,2.3,0.6,3.4c-0.7,2.6-1.4,5.3-5,7.3C523,754.7,525.4,751.8,527.4,748.8z"/>
	<path class="st1" d="M571.5,293.5c-1.1,0.6-2.2,1.2-3.3,1.8c-0.2-2.6-1-5.3,0.4-8C570.9,288.9,571.5,291,571.5,293.5z"/>
	<path class="st1" d="M637,230.5c1.5,2,3.9,1.3,5.8,1.7c0.6,1,0.3,1.5-0.8,1.4c-2.9,0.2-5.9,0.4-8.8,0.6c-1.9,0.6-2.4-0.2-1.7-1.9
		C633.3,231.7,635.2,231.1,637,230.5z"/>
	<path class="st1" d="M608.1,439.2c-0.8,0.7-1.6,1.3-2.4,2c-2.4-0.2-4.7-0.4-8.5-0.7C601.8,438.1,604.9,438.7,608.1,439.2z"/>
	<path class="st1" d="M504.5,423.9c1.3-0.6,3.1-0.2,3.8-2c1.5,0.8,3,1.5,5.2,2.6C509.7,426.4,507,425.7,504.5,423.9z"/>
	<path class="st1" d="M669.6,414.3c-3.1,1.5-6.3,3.5-9.4,0c1.9-0.6,3.8-1.1,5.6-1.7C667.1,413.1,668.4,413.7,669.6,414.3z"/>
	<path class="st1" d="M601,408.9c3.5-1.1,5.1,0.1,6.2,2.3C604.4,412.7,602.5,411.9,601,408.9z"/>
	<path class="st1" d="M437.4,381.6c-0.5,0-1,0.1-1.6,0.2c-0.3-2.7,1-4.7,2.6-6.9C440.2,377.8,439.8,379.9,437.4,381.6z"/>
	<path class="st1" d="M388,378c-0.6-1.3-1.2-2.7-1.7-4c0.6-1.7,1.3-3.4,2.2-5.9C391.1,372.3,389.6,375.1,388,378z"/>
	<path class="st1" d="M639.1,362.6c-1.7,2-3.9,2.8-6.6,2.9c0.1-3,2.2-4.1,4.3-5.2C637.5,361,638.3,361.8,639.1,362.6z"/>
	<path class="st1" d="M217,559.5c0.6,1.2,1.2,2.5,1.8,3.7c-0.3,1.8-0.7,3.5-2.8,4.5C214.4,564.7,215,562,217,559.5z"/>
	<path class="st1" d="M334.1,360.5c1.3,0,2.7-2.7,3.9,0.1c0,1.6,3.1,3.7,0.7,4.4C336.7,365.7,335,362.8,334.1,360.5z"/>
	<path class="st1" d="M972.3,289.5c-0.7,0.6-1.3,1.3-2,1.9c-2.3-0.9-4.4-2.1-5.1-4.9C968.4,285.7,970.3,287.6,972.3,289.5z"/>
	<path class="st1" d="M635.3,292c-0.8-0.9-1.7-1.7-2.5-2.6c1.1-2.3,2.7-4.1,5.3-5.1C638.4,287.4,637.3,289.8,635.3,292z"/>
	<path class="st1" d="M266.9,280.1c-1.1,0.6-2.2,1.2-3.3,1.9c-0.2-2.5-0.4-5.7,2.3-6.2C267.5,275.4,266.9,278.4,266.9,280.1z"/>
	<path class="st1" d="M866.6,257.3c1.2-0.6,2.5-1.2,3.7-1.9c1.9,0.2,3.7,0.7,5.2,2.9C872.1,259.3,869.3,259.1,866.6,257.3z"/>
	<path class="st1" d="M693.1,256.5c2.3-2.2,4.6-4,5.7-2.9c2.3,2.3-0.3,2.9-2.1,3.3C695.8,257.1,694.8,256.8,693.1,256.5z"/>
	<path class="st1" d="M805.2,714.8c-0.6-1.3-1.1-2.5-1.7-3.8c0.3-2.5-0.7-5.3,1.6-7.4C805.2,707.3,805.2,711.1,805.2,714.8z"/>
	<path class="st1" d="M301.3,243.2c-0.5,0.2-1,0.5-1.4,0.8c-0.5-1.3-1.1-2.7-1.6-4c0.4-2,0.5-4.1,2.7-5.5
		C302.7,237.4,300.9,240.3,301.3,243.2z"/>
	<path class="st1" d="M631.4,232.4c0.6,0.6,1.2,1.3,1.7,1.9c-2.6,2-5.3,2.4-9.2,0.5C627,233.8,629.2,233.1,631.4,232.4z"/>
	<path class="st1" d="M801.9,716.9c2.6,2.2,1.1,5.3,1.8,7.9c-0.1,1.1-0.3,2.3-0.4,3.4c-3.6,0-2.5-2.1-1.8-4.1
		C801.6,721.7,801.8,719.3,801.9,716.9z"/>
	<path class="st1" d="M549.1,722.7c0.6,0.8,1.2,1.5,1.9,2.3c-0.8,1.7-1.6,3.4-2.5,5.1c-1.7,0.4-2.6,0.1-1.8-1.9
		C547.5,726.4,548.3,724.5,549.1,722.7z"/>
	<path class="st1" d="M801.5,724.1c0.6,1.4,1.2,2.7,1.8,4.1c0.1,1.9-0.8,4.6-2.5,3.3C798.7,729.8,800,726.5,801.5,724.1z"/>
	<path class="st1" d="M546.7,728.2c0.6,0.6,1.2,1.2,1.8,1.9c-0.6,2.2-1.6,4-4.5,5C543.3,732,545,730.1,546.7,728.2z"/>
	<path class="st1" d="M636.7,743.4c0.7,0.7,1.4,1.4,2.1,2.1c-1.6,2-3.4,3.6-6.4,3.8C631.9,745.9,634.9,745.1,636.7,743.4z"/>
	<path class="st1" d="M504.3,753.2c-0.6-0.8-1.2-1.5-1.8-2.3c0.8-1.7,1.6-3.5,2.4-5.2c1.7-0.3,2.7-0.1,1.8,2
		C505.9,749.5,505.1,751.3,504.3,753.2z"/>
	<path class="st1" d="M784.2,212.7c-0.7-1.8-2.5-1.3-3.8-1.9c2.5-1.8,5.4-3.4,7.8-0.7C788.9,210.9,786,212.4,784.2,212.7z"/>
	<path class="st1" d="M560.2,260.5c0,0.7,0,1.4,0.1,2.1c-1.9,0.6-3.9,1.2-5.8,1.7c-0.8-0.6-1.6-1.3-2.4-1.9
		C554.4,260.3,557.3,260.6,560.2,260.5z"/>
	<path class="st1" d="M508.3,738.8c0-2,0.1-3.9,3-4.1c0.2,3-0.6,5.5-2.3,7.8C507.8,741.4,507.6,740.2,508.3,738.8z"/>
	<path class="st1" d="M508.3,738.8c0.2,1.2,0.4,2.5,0.6,3.7c-0.2,1.9-0.4,3.9-2.2,5.2c-0.6-0.7-1.2-1.3-1.8-2
		C506.1,743.4,507.2,741.1,508.3,738.8z"/>
	<path class="st1" d="M717.1,279.5c-0.7-0.6-1.4-1.3-2.1-1.9c2-1.8,4.3-2,6.9-1.1C721.3,279.2,718.6,278.5,717.1,279.5z"/>
	<path class="st1" d="M835.8,617.3c-0.7,0.8-1.3,1.5-2,2.3c-1.5-1.8-4.1-4.4-1.9-6C834.4,612,835,615.5,835.8,617.3z"/>
	<path class="st1" d="M619.5,264.4c-0.8-0.7-1.5-1.4-2.3-2.1c2.2-1.5,4.6-1.8,7.3-1.1C623.7,263.8,621.6,264.1,619.5,264.4z"/>
	<path class="st1" d="M596.9,711.2c-0.6-0.5-1.2-1-1.8-1.5c0.3-1.9,0.8-4.9,2.9-4C599.5,706.3,598.6,709.5,596.9,711.2z"/>
	<path class="st1" d="M816.9,431.1c-0.8-0.7-1.7-1.4-2.5-2.1c1.9-1.3,4.4-3.7,6.1-1.1C821.6,429.6,818.4,430.3,816.9,431.1z"/>
	<path class="st1" d="M376.5,364.4c-0.6-1.2-1.3-2.5-1.9-3.7c0.3-1.6,1.9-3.7,2.7-2.9C379.2,359.8,378.1,362.4,376.5,364.4z"/>
	<path class="st1" d="M740.3,431.1c-0.8-0.7-1.6-1.3-2.4-2c2.3-1.1,4.7-1.8,7.4-1.2C744.5,430.5,742.2,430.6,740.3,431.1z"/>
	<path class="st1" d="M443.5,774.4c-0.6-0.7-1.3-1.3-1.9-2c1-1.7,1.6-5.2,4.2-3.2C447.4,770.5,445,773,443.5,774.4z"/>
	<path class="st1" d="M904.9,366.6c1.3-0.7,2.5-1.3,3.8-2c1.6,0.4,4,1.8,3.1,2.7C909.7,369.2,907,368.2,904.9,366.6z"/>
	<path class="st1" d="M324.8,199.6c-0.6-1.3-0.1-3.3-2.1-3.9c0.4-1.6,2-3.5,2.9-2.6C327.5,195.1,326.4,197.6,324.8,199.6z"/>
	<path class="st1" d="M723.6,372.2c-1.6,1.9-3.9,1.7-6,1.8c-2.1,0.8-2.4-0.2-2.1-1.9c1.9-0.5,3.9-1.1,5.8-1.6
		C722.1,371.1,722.8,371.6,723.6,372.2z"/>
	<path class="st1" d="M472.1,377.4c-0.1,2.1-0.2,4.1-0.3,6.2c-1.9-1.9-2.3-4.6-1.5-6.8C471.3,373.9,471.9,375.8,472.1,377.4z"/>
	<path class="st1" d="M405.3,391.5c-0.6-0.7-1.2-1.4-1.8-2.2c0.6-1.7,1.2-3.4,2-5.5C408.1,387,406.5,389.2,405.3,391.5z"/>
	<path class="st1" d="M673.3,247.4c-0.7-0.7-1.5-1.4-2.2-2.1c1.5-1.5,4.1-3.8,5.3-2.2C678.5,245.7,674.9,246.3,673.3,247.4z"/>
	<path class="st1" d="M830,650.3c-0.6,0.5-1.1,1-1.7,1.4c-1.9-1.6-2-3.6-1.5-6.4C829.3,646.5,829.6,648.4,830,650.3z"/>
	<path class="st1" d="M565.6,308.2c0.7,0.8,1.4,1.6,2,2.4c-0.7,1.9-1.7,5.1-3.8,3.5C561.9,312.6,564.2,310,565.6,308.2z"/>
	<path class="st1" d="M349.5,364.4c-0.7-0.1-1.4-0.2-2.1-0.3c-0.5-0.6-0.8-1.3-0.9-2.1c0.1-0.8,0.4-1.5,1-2.1c0.8-0.3,1.5-0.1,2,0.6
		h-0.1c0.7,0.4,1.3,0.7,2,1.1c0.2,0.3,0.5,0.6,0.7,0.9c0,0.4,0,0.8,0.1,1.2c-0.2,0.3-0.4,0.7-0.6,1
		C350.8,365.1,350.1,364.9,349.5,364.4z"/>
	<path class="st1" d="M349.6,404.3c-0.7,0.1-1.3,0.2-2,0.2c-0.7-0.7-1.3-1.5-2-2.2C348.7,399.5,349,402.1,349.6,404.3z"/>
	<path class="st1" d="M342.2,360.4l0.7,0.2c0.7-0.7,1.5-0.9,2.5-0.7c0.7,0.6,1,1.5,0.8,2.4c-0.7,0.8-1.5,0.8-2.2,0
		C343.4,361.7,342.8,361,342.2,360.4z"/>
	<path class="st1" d="M344,362.3c0.5,0,1,0.1,1.6,0.1c0.7-1.1,1.4-1.1,1.9,0.1c0.1,0.5,0,1.1-0.2,1.6
		C345.8,364.2,344.5,363.9,344,362.3z"/>
	<path class="st1" d="M359.3,411.7c-0.6,0.1-1.3,0.1-1.9,0.2c-0.1-0.4-0.2-0.9-0.3-1.4c0.7-0.7,1.4-1.5,2.1-2.2
		C359.2,409.4,359.2,410.6,359.3,411.7z"/>
	<path class="st1" d="M856.2,728c-1.3-3.2-0.8-6,1.2-6.2c2.8-0.3,0.5,1.9,0.3,2.9C857.6,725.5,857,726.3,856.2,728z"/>
	<path class="st1" d="M395.3,441.1c2.9,0.2,6.1-1.3,9.4,2.1c-4.1,2.1-7.6,2.4-11.2,0.2C393.3,442,394.6,441.8,395.3,441.1z"/>
	<path class="st1" d="M313.3,322.2c3.5-2.9,5.7-1.3,8.3,1C318.7,324.5,316.4,324.3,313.3,322.2z"/>
	<path class="st1" d="M395.3,441.1c-0.6,0.8-1.2,1.5-1.8,2.3c-3.3-0.7-6.9-0.2-10-2.2c2-0.4,4.4,0.3,6-1.5
		C391.4,440.1,393.3,440.6,395.3,441.1z"/>
	<path class="st1" d="M345.6,360.6c-0.9,0-1.8,0-2.7,0c0.8-1.4,0.8-3.5,3-3.9c0.4,0.7,0.6,1.4,0.7,2.1
		C346.6,359.5,346.2,360.1,345.6,360.6z"/>
	<path class="st1" d="M351.6,360.6c1.4,0,2.7,0.2,3.2,1.8c-0.4,0.6-1,0.9-1.7,0.8s-1.3-0.4-1.7-1l0.1,0.2c-0.5-0.5-0.7-0.9-0.5-1.3
		C351.3,360.8,351.4,360.6,351.6,360.6z"/>
	<path class="st1" d="M345.7,358.4c0-0.6,0.1-1.2,0.3-1.8c0.6,0.6,1.2,1.2,1.8,1.8c-0.3,0.3-0.7,0.6-1,0.9
		C346.3,359,346,358.7,345.7,358.4z"/>
	<path class="st1" d="M351.6,360.6c-0.2,0.6-0.2,1.2-0.1,1.9c-0.7-0.6-1.5-1.2-2.2-1.8C350.1,360.6,350.9,360.6,351.6,360.6z"/>
	<path class="st1" d="M349.4,360.6c-0.6-0.1-1.2-0.1-1.8-0.2c-0.6-0.4-0.8-0.8-0.6-1.1c0.2-0.4,0.3-0.6,0.5-0.6l0.2-0.1
		C348.3,359.2,348.9,359.9,349.4,360.6z"/>
	<path class="st1" d="M353.8,362.3c0.3,0.1,0.6,0.2,1,0.1c0.2,0.6,0.4,1.2,0.6,1.8c-0.7,0-1.4,0.1-2.1,0.1
		C352.7,363.4,352.9,362.7,353.8,362.3z"/>
	<path class="st1" d="M296.2,413.4c4-1.5,6.4-1.7,10.9,1.7C302.2,414.3,299.9,414,296.2,413.4z"/>
	<path class="st1" d="M715.5,372.1c0.7,0.6,1.4,1.3,2.1,1.9c-2.8,2.2-6.1,1.9-9.3,2.2c-2,0.6-2.6-0.2-2.2-2.1
		C709.2,373.5,712.4,372.8,715.5,372.1z"/>
	<path class="st1" d="M706,374.2c0.7,0.7,1.5,1.4,2.2,2.1c-2.7,1.6-5.5,2-8.7,0.8C701.4,375.1,703.7,374.7,706,374.2z"/>
	<path class="st1" d="M383.9,497.9c-3.2,3.6-7.6,4.5-12.3,4.8c3.2-3.8,7.4-5.7,12.5-5.9C384,497.2,383.9,497.6,383.9,497.9z"/>
	<path class="st1" d="M383.9,497.9c0.1-0.4,0.1-0.7,0.2-1.1c1.3-3.2,4.4-2.6,7.4-4.6C390.6,498.1,386.9,497.5,383.9,497.9z"/>
	<path class="st1" d="M468.2,486.7c0-0.5,0.1-1.1,0.1-1.6c4.3-2.1,8.8-2.4,13.5-2.1l-0.1-0.2C477.7,486.2,472.7,485.6,468.2,486.7z"
		/>
	<path class="st1" d="M497.2,480.8c3.7-4.6,7.4-3.5,13.8-2.8C505,479.2,501.7,479.9,497.2,480.8z"/>
	<path class="st1" d="M481.7,483c2.4-2.8,5.1-2.4,8.3-0.9c-2.9,1.3-5.6,1.2-8.4,0.7C481.6,482.9,481.7,483,481.7,483z"/>
	<path class="st1" d="M347.5,358.6c0.1,0.6,0.1,1.2,0.1,1.8c0,0.7-0.1,1.5-0.1,2.2c-0.6,0-1.3-0.1-1.9-0.1c0.1-0.6,0.2-1.2,0-1.9
		c0-0.7,0.1-1.4,0.1-2.1C346.3,358.5,346.9,358.5,347.5,358.6z"/>
	<path class="st1" d="M353.8,362.3c-0.2,0.7-0.4,1.3-0.5,2c-0.5,0-1.1,0-1.6-0.1c-0.1-0.6-0.2-1.3-0.3-1.9
		C352.2,362.3,353,362.3,353.8,362.3z"/>
	<path class="st1" d="M667.4,183c-10.8,11.7-20.9,24.3-36.4,30.3c-2.9,1.1-5.6,3.3-9.1,1.9c-0.6-2.6,4-3.3,1.5-7.5
		c-13.1,7.1-24.6,18-40.4,20.3c4.2-3.2,8.4-6.3,12.5-9.6c1.8-1.5,5.9-2.1,2.1-6.1c-3.3-3.6-4.7-0.6-6.7,1c-8.7,7.1-18,13.2-28,18.2
		c-7.6,3.8-15.4,7.2-25.7,11.9c3.9-5.6,6-8.8,8.5-12.4c-5.5-2.3-7.7,3.1-12.4,3.5c-0.4-2.6-0.8-5.3-1.2-8
		c-7.6,27.9-27.8,40.4-53.6,46.6c10.7-9.5,24-16,32.9-27.9c-4.4-1.9-6.8,3.3-11.3,2.7c0.8-3.6,1.5-6.8,2.5-11.1
		c-4.9,1.8-7.1,5.3-10,7.8c-2,0.7-2.6-0.7-3.1-2.1c-1.1-3.5-1.7,0.1-2.5,0.2c-6.1,15.8-15,29.2-33.8,36.7c3.5-6.1,5.9-10.3,8.8-15.4
		c-8.2,1.1-14.4,5.5-21.3,7.9c-6.6,2.4-13.2,4.5-20.2,5.4c-7.2,0.9-7.8-2.2-5.4-7.6s5.1-10.7,7.9-16.3c-4.1-0.2-4.6,3.8-7,4.7
		c-4.1,1.5-3.6,10.3-11.7,6.4c-1.7-0.8-5,7.1-5.8,12c-1.7,9.9,4.3,17.6,7.9,26.3c-2.8,0.8-5-2.4-7.2-0.1c0.5,4.9,5.9,7.1,6.9,12
		c-12.3-0.7-18.6-14.1-17.9-37.5c-2.6,1-3.5,3.6-4.8,5.7c-4.5-0.1-2.9-2.7-2.3-5c-1.4,4.8-3.7,9.5-2,14.8c1,15.2,8.7,26.7,20.2,36
		c-2.8,1.7-5.7,1.3-8.6,0.4c-4.2,0.8-7.7-3.2-13-1.8c3.3,2.4,6.1,4.5,9.4,6.9c-23.8-0.6-35.4-23.1-32.8-62.8
		c-4.9,4.3-5.9,9.9-7.7,15c-4.6-0.6-1.9-3.6-1.9-5.7c0.7-6.5,2.7-12.8,7.3-17.4c12.8-13,22.1-28.8,34.2-42.4
		c10.8-12.1,21.9-23.8,32.6-36.4c-6.1,4.1-12.4,8-18.3,12.4c-13.5,10.2-25.9,21.7-37.5,34c-2.1,2.3-3,11-9.8,4.5
		c-1.2,1.4-2.6,2.8-3.5,4.4c-2.5,4.4-4.7,8.9-7.9,14.9c-1.2-6.9,3.3-12,0.4-18.4c-8,8.9-10.2,19.4-12.6,29.7c-0.6,2.7-0.6,6.9-4,1.4
		c-1.4-8.4-5.5-17.1,1.8-24.9c12.8-37,37.5-78.3,54-88.8c-8.1,19.2-15.6,37.1-23.2,55c23.3-29.8,45.9-59.5,77.6-81
		c-8,15.8-19.8,29.5-24.4,47.1c17.6-18.3,34.2-37.5,55.7-53.1c-0.1,7.6-5.9,12.1-7.7,21.1c28.8-26.3,56.4-50.3,91.9-62.4
		c-21,16.3-44.4,29.7-61.6,53.4c9.1-3.5,14.1-9.9,23.2-14.5c-5.9,11-14.5,17.4-19.5,26.7c30.1-20.7,60.9-39.7,96.2-50.4
		c-13.5,12.7-28.9,23.1-40.7,38c30.9-21.2,62.4-41.3,101.9-50.3c-19.2,18.2-36.8,34.9-54.4,51.6c0.5,0.7,0.9,1.4,1.4,2.1
		c34.7-22.1,72.1-37.5,112-46.5c0.5,0.8,0.9,1.7,1.4,2.5c-4.9,3.6-9.9,7.2-17.2,12.6c16.5-4.2,29.5-10.6,43.7-12.5
		c2.2-0.2,4.9-2.4,5.7,1.7c-21.8,10.1-43.4,20.6-62.9,35c-0.6,0.8-0.6,1.6,0.3,2.3c0.5,0.4,1.1,0.1,1.6-0.4
		c17.8-7.3,35.7-14.4,55.2-15.7c2.2,0.1,5.3-2.5,6,2.1c-21.2,9.8-42.2,19.9-62,33.1c22.2-2.8,44.4-5.6,66.6-8.4
		c-28.6,17.6-53,41.2-84,55.7c-0.2-5.4,4.6-8.4,4.9-13c0.8-3.4,0.1-7.4,3.8-9.7c-4,2.6-8,5-13.5,7.3c0,0,1.2,1.7,0.8,0.5
		c-0.1-0.3,0.1-0.4,0.5-0.6C662.9,181.2,665.2,180.8,667.4,183z"/>
</g>
<g>
	<path class="st3" d="M1859.5,523.3c-1.3-7.8-5.5-13.5-12.9-16.9c1.7,2.6,3.4,5.1,5.7,8.4c-5.8-3.1-9.7-6.9-13.9-11.6
		c-0.2,3,2,4.3,0.8,6.3c-2.3-1.5-3.4-4.5-7.2-4.3c-2.3,0.1-4.6-2.7-5.2-5.7c-0.3-1.6-0.6-2.2-2.4-1.7c-15.9,4.6-31.9,9-47.2,15.5
		c-7.9,3.3-10.2,8.1-9.5,16.8c0.5,6.6,2.5,12.9,4.2,19.3c0.9,3.2,1.5,6.4,1.3,9.7c-0.2,2.8-1.1,3.5-3.6,1.9
		c-8.1-5.3-14.3-12.3-19-20.7c-11.4-20.1-14.2-41.8-12-64.4c1.6-16,6.1-31.2,16.1-44.2c4.1-5.4,9-10.1,14.2-14.3
		c5.5-4.5,11.3-8.7,13.4-16c5-2,1.2-4.9,1.1-7.7c-0.1-6.1-2.1-12.3,0.9-19c0.5,3,0.9,5.2,1.4,8c2.7-4.2,5.8-7.5,3.7-12.8
		c-1.3-3.2-0.6-6.8,0.5-10.3c1.2,1.8,2,2.2,3.1-0.2c1.7-3.9,3.9-7.5,6.7-11c0,2.4,0,4.9,0,7.3c5.1-8.6,9.2-17.5,16.1-25
		c1.3,2.4,0.5,4.6,0.4,6.8c-0.1,0.8-1.3,2.2,1,1.8c4.7-9.3,8.8-18.9,15.3-28.2c0.2,2.2,0.3,3.6,0.5,5.5c3.8-4.1,6.6-8.8,11.5-11.6
		c-1.6,3.2-3.2,6.4-4.8,9.6c0.2,0.2,0.4,0.4,0.7,0.6c4.9-5.8,9.8-11.6,15.4-18.2c-0.1,4.2-1.8,7.1-0.5,10.9
		c4.7-3.9,9.2-7.5,13.6-11.2c9.8-8.4,19.9-16.4,31.1-22.8c1.2-0.7,2.6-1.3,3.8-1.8c1-0.4,1.3,0.1,1.1,1
		c-8.7,7.6-18.1,14.5-24.8,24.2c-0.9,1.4-2.2,2.6-2.6,5.3c15.1-12.8,29.4-25.6,47.9-32.2c-8.5,6.3-18.1,11.5-22.3,22.2
		c2.3,0.6,3.5-0.9,4.9-1.8c15-8.6,30.3-16.8,47.3-20.8c1-0.2,2-0.3,3-0.4c0.9-0.4,1.8-0.8,1.8,0.9c-10.1,4.5-19,10.5-24.6,20.8
		c19.5-10.1,39.4-18.7,61.9-18.7c-4.4,2.3-9.1,4.1-13.1,7c-4.2,3-7.8,6.6-10.4,11.9c18.1-5.4,35.1-12.6,54-11.9
		c-8.7,2.8-17.1,6.2-23.7,13.6c8.5-0.9,16.6-2.7,24.8-2.8c8.1-0.1,16.2,0,25.2,1.3c-11.2,2.3-21.8,3.8-30.9,9.5
		c-1,0.6-2.3,1.3-2.5,3.2c15.9-3.5,31.9-3.5,47.8-0.7c-10.1,0.8-19.4,3.9-28.4,8.2c0,0.4-1.1,0.9-0.1,1.1c1.2,0.3,2.4,0.4,3.6-0.1
		c18.1-0.7,35.8,1.3,52.3,9.6c-0.1,1.6-1.1,0.9-1.8,0.7c-3,0-6,0-9,0c8.9,3.1,17.2,7.1,24.5,13.3c-12.3-4.1-24.9-6-37.9-5.7
		c13.6,5.2,27.2,10.2,39.3,18.4c-15-4.9-30-8.9-46-7.7c22,4.5,41.6,14.4,60.6,26.3c-6.4-0.9-12.8-1.8-19.2-2.7
		c-0.9-0.1-2.2-1.2-2.6,0.8c9.2,5.3,18.4,10.7,28.3,16.5c-4.6,0-8.4,0-13.5,0c20,14.4,34.9,31.9,46.2,52.5c0.4,0.9-0.1,1.1-0.9,0.9
		c-12.1-14.6-25.2-28.2-40.9-38.9c-3.6-2.5-7.3-5-11.4-6.7c-1-0.3-2-0.4-2.8-1.1c0,0-0.2-0.1-0.2-0.1s0.2,0.1,0.2,0.2
		c0.7,0.5,1.3,1.2,1.7,2c14.7,11.9,28.8,24.5,40.7,39.3c6.2,7.7,12.2,15.5,17.1,24.2c0.4,1-0.1,1.2-0.9,1
		c-5.7-6.1-11.3-12.2-18.5-16.8c6.1,8.8,13.2,16.8,18.5,26.1c0.4,1-0.1,1.2-0.9,1c-9.7-11.6-20.2-22.5-31.8-32.1
		c-0.3,0.2-0.6,0.5-0.9,0.7c1.3,1.5,2.5,3,3.7,4.5c20.7,24.7,38,51.5,48.4,82.3c3.7,10.8,6.8,21.8,8.3,33.2c-0.3,0.3-0.6,0.3-0.9,0
		c-8.2-19.4-19.7-36.6-35.6-50.8c21.2,31.8,37.8,65,35.9,104.6c-2.9-20.3-8.7-39.3-22.9-54.7c7.5,27.6,5.1,54.8-2.9,81.7
		c-8.6,28.8-22.6,54.9-40.9,78.8c-1.3,1.7-2.8,3.2-4.2,4.9c-0.9,0.2-1.3,0-0.9-0.9c13.2-23.9,22.6-49.3,27.1-76.3
		c0.3-1.7,0.4-3.4,0.5-5.1c-0.3-0.7,1.6-2.3-0.9-2c-3.5,7.1-7.1,14.2-10.6,21.3c2.2-13.5,5.7-26.7,6.3-40.4
		c0.5-29.2-2.2-57.8-17.4-83.8c-0.9-1.6-1.8-3.2-2.6-4.9c-0.2-0.3-0.1-0.7-0.5-0.9c0.2,0.4,0.4,0.8,0.6,1.2
		c5.5,12.1,7.9,25.1,9.7,38.1c0.2,1.5,0.2,3.1-0.4,4.7c1.1,20,0.4,39.8-4.2,59.4c-4,17.5-9.9,34.3-19,49.9c-0.8,0.2-1.2,0-0.9-0.9
		c5.1-13.5,10.1-27,13.7-41c4.9-19.6,7-39.4,4.4-59.5c-0.9-0.9-0.6-2-0.8-2.6c-0.9,6,0.1,12.5-0.7,19c-2.5,38.3-15,72.6-39.9,102.8
		c-0.7-2.5,0.6-3.7,1.2-5c6.5-13.7,12.9-27.4,18-41.7c8.3-23.4,8.1-47.5,5.6-71.7c-0.4-4-1-7.9-1.5-11.9c-0.4-0.4-0.6-0.9-0.6-1.5
		c-0.4,0.2-0.2,0.6-0.2,0.9c-0.8,3.9,0.2,7.9-0.6,11.8c-1.6,26.7-7.2,52.4-19.2,76.5c-0.8,0.1-1.3,0-0.8-0.9
		c3.9-13,8.3-25.8,10.9-39.2c1-5.5,2-11,2.3-16.5c0.3-2.2-0.3-4.4,0.5-6.5c-0.7,1.5-0.2,3.4-1.4,4.8c-4.5,22.1-11.8,43.3-22.6,63.1
		c-14.5,26.5-33.7,48.6-60.4,63.7c-5.5,3.1-11.2,5.7-17.1,7.9c-0.6,0.2-1.3,0.3-2.2,0c19.2-12.7,36.1-27.9,50.1-46.1
		c14-18.2,24.6-38.3,31.7-60.3c-17.7,26.4-40.3,47-68.4,61.7c-0.4-0.1-0.7-0.3-0.9-0.7c12.8-9.6,25.3-19.4,36.1-31.3
		c3.4-3.7,7-7.1,9.7-11.4c4.7-8.5,11.4-15.7,16.2-24.2c4.9-8.6,10.6-16.7,15-25.6c4.3-8.7,6.8-17.9,7.3-27.6c0-0.3,0-0.6,0-0.9
		c0.2-1.2,0-2.9,1.6-3.1c1.5-0.1,2,1.4,2.4,2.6c0.7,1.8,1.3,3.5,1.3,5.4c0.1,1.3-0.2,2.5,0.4,3.8c0.1,0.5,0.2,0,0-0.1
		c-0.5-0.5-0.3-1.3-0.4-2c-0.1-13.3-0.3-26.6-6-39.1c-10-22-27.2-35.1-50.4-40.7c-2.2-0.5-4.4-1.2-6.7-1.5c-1.6-0.9-3.4-0.6-4.8-1.1
		c-0.2,0.1,0,0,0.3,0.1c0.8,0.2,1.7,0.4,2.5,0.4c12.7,3.4,23.3,10.4,33.1,18.7c3.1,2.6,6,5.6,7.4,9.7c-0.2,0.7-0.6,1.1-1.3,1.3
		c-3.8-0.8-5.3-4.6-8.4-6.5c-1.4-0.9-2.7-2.1-4-3.2c9.3,9.7,17.7,19.9,22.2,32.7c4.9,14,3,27.7-1.4,41.3
		c-3.4,10.4-8.3,20.1-14.6,29.1c-0.9,1.3-1.5,2.8-3.3,3.2c-9.9,12.6-21.2,23.8-33.9,33.6c-8.1,6.3-16.3,12.4-25.3,17.4
		c-0.9,0.3-1.2-0.1-1-0.9c1.1-1.1,2.2-2.3,3.4-3.4c5.7-5.7,11.4-11.2,17.1-16.8c18.6-18.4,35.7-38.1,43-64.1
		c5.1-18,2.9-35.1-7.5-50.9c-3.9-5.8-8-11.5-12.2-17.1c-1.5-1.8-3-3.7-5-5c-0.2-0.2-0.4-0.5-0.6-0.8c0.2,0.3,0.4,0.6,0.7,0.9
		c2.2,1.4,3.6,3.5,5.2,5.3c11,16,14.2,33.9,13,52.8c-0.1,1.4,0,2.9-1.5,3.8c-2-0.9-1.6-2.7-1.7-4.3c-0.2-3.5,0.3-7-0.4-10.4
		c-1.3-11-5.3-21.2-10.9-30.8c-0.2-0.5-0.6,0.4-0.2,0c0.1-0.1,0.2,0,0.3,0.3c2.2,4.2,3.9,8.6,5.1,13.1c0.4,1.5,0.9,3.6-0.7,4.3
		c-1.9,0.8-2.2-1.7-3.1-2.8c-0.6-0.8-1.1-1.7-1.3-2.6c0,0.1,0-0.4-0.1,0c0,0.2,0.2,0.4,0.2,0.7c5.9,12.6,7.4,25.9,6,39.5
		c-1.7,16.9-8.8,31.6-19.6,44.6c-1.3,1.5-2.4,3.2-4.5,3.9c-18.7,21.6-38.8,42.2-52.1,68c-3.3,6.4-6.2,12.9-8.6,19.6
		c-2.4,6.7-4.3,13.6-6.1,20.5c-0.7-7.2,0.4-14.2,2-21.2c4-18.4,12.3-35,22.1-50.9c6.7-10.8,13.8-21.4,20.7-32.1
		c0.7-1.1,1.9-2.1,1.9-3.7c-7.8,4-28.1,34.2-43.6,64.8c-1.6,0-1.1-0.9-0.8-1.8c1.2-4,2.3-7.9,3.5-11.9c2.6-10.1,7.8-19,12.9-27.8
		c8.2-14.1,17.3-27.6,25.1-40.4c-5.3,7.4-12.2,15-18.7,23c-2.7,3.3-5,7-8.3,9.7c-4,2.8-6.1,7.1-8.8,10.8
		c-6.9,9.3-12.8,19.2-18.3,29.4c1.6-9.3,6.2-17.3,9.9-25.7c1.1-1,0.5-2.6,1.4-3.7c10.8-16.9,23.7-32.3,35.4-48.6
		c4.9-6.8,10-13.6,12.9-19.8c-14.1,20.8-31.3,41.2-45.6,63.8c-1.7,1.9-2.2,4.7-4.7,6c-2.7,5.2-5.2,10.4-8,15.5
		c-0.4,0.8-0.2,3.5-2.5,1.7c3.7-15.9,11.9-29.6,20.5-43.1c10-15.7,20.9-30.7,30.3-46.8c4.1-7.1,7.5-14.5,8.6-22.7
		c0.4-1.5,0.6-3,0.8-4.6c0-0.6,0,0.1,0-0.4c0,0,0,0.1,0,0.1c-4.5,14.5-11.9,27.4-21.3,39c-11.2,13.9-21.7,28.1-30.3,43.8
		c-0.8,1.4-1.6,2.9-3.1,3.6c-5.8,10.3-10.7,21.1-15.8,31.8c-1.7,0-1.2-1-0.9-1.9c1.1-6.2,3.6-11.9,5.7-17.7c0.5-1.4,1.6-2.7,1.1-4.4
		c0-2.8,2-4.9,2.7-7.4c0-0.2,0.2-0.4,0.4-0.5c-0.2,0-0.4,0.1-0.4,0.4c-9.3,11.5-18,23.4-26.1,35.8c-4.6,7.9-8.2,16.2-11,24.9
		c0,0.1-0.2,0.3-0.3,0.3c-0.2,0-0.4-0.1-0.7-0.2c-1.4-12.2,4.1-22.4,8.2-31.1c-1.6,2.6-4,7-6.6,11.1c-0.8,1.3-1.3,2.9-3,3.5
		c-9.3,15.2-15.7,31.3-16.8,49.4c-1.9,29.7,14.5,58,41.5,70.8c3.7,1.8,7.6,3.3,11.4,5c0,1.6-1,1.1-1.8,0.8
		c-27.8-1.4-53-24-58.3-52.1c-1.3-6.9-1.7-13.9-1.6-20.9c0.9-2.1-0.3-4.3,0.3-6.3c0.1-1,0.6-2,0.8-3.1c-0.2,0.7-0.4,1.3-0.6,1.9
		c-0.4,1.3-0.3,2.8-1.4,3.9c-1.5,4.2-2,8.5-2.8,12.8c-2.4-2.1-0.9-4.7-0.9-7.1c0.4-10.5,3.9-20.1,8.2-29.5
		c4.9-10.6,11.5-20.1,17-30.2c0.3-1,0.3-1.8-1.2-1.2c-38.1,36-49.4,78.9-33.1,129.2c-3.4-3-4.8-6.7-6.3-10.3
		c-8.1-18.8-9.5-38.4-7.3-58.5c1.6-14.2,5.2-28.1,8.3-42c0.5-1.9,0.5-1.9-0.8-1.8c-8,18.7-13.2,38-13.7,58.5
		c-0.8,30.5,9.8,56.8,30.9,78.8c0.9,0.9,1.7,1.9,2.6,2.8c0.2,0.9,0,1.3-0.9,0.9c-24.9-17.1-38.9-40.6-42.1-70.6
		c-3.2-30.4,5.5-58,20.1-84.2c3.9-7.1,7.8-14.1,10.9-21.8c-3.3,3.8-6.8,7.5-10,11.4c-12.8,15.2-24,31.4-32.1,49.6
		c-13,29.2-13.4,58.4-0.4,87.8c0.6,1.3,1.8,2.6,0.9,4.8c-9.8-11.6-16.5-24.5-19.4-39.3c-1-5.2-1.7-10.5-2.5-15.8
		c-1.2,1.2,0,2.8-0.8,4.1c-0.5,5.1-0.2,10.2,0,15.4c0.1,0.9,1.1,2.2-0.8,2.6c-7.7-17.8-7.4-35.7,0-53.9
		c-10.4,4.9-18.5,24.9-20.1,42.8c-0.7,4.1,0,8.2-0.4,12.3c-0.1,1,0.9,2.6-1,3.1c-8.9-25.2-2.7-48.4,10.4-71.2
		c-3.9,1-5.5,3.5-7.2,5.7c-6.5,8.8-10.1,18.9-12.9,29.3c-2.1,7.8-3.2,15.7-4,23.7c-1.8-7.1-1.7-14.4-0.9-21.6
		c2.7-25,15.5-45.1,31-63.9c3.5-4.3,7.2-8.5,10.9-12.7c-0.1-0.4,1-0.9-0.1-1.2c-25.2,14.9-49.5,30.8-63.6,58.1
		c1.8-8.3,5.3-15.5,9.7-22.5c7.1-11,16.3-20.3,25.6-29.3c0.4-1,0.1-1.4-1-1c-16.8,8.3-29.7,21.2-41.1,35.7c-2.1,2.7-4.1,5.5-6.2,8.2
		c-0.8,0.2-1.2,0-0.9-0.9c9.4-19,23.3-34.2,39.7-47.2c9.2-7.2,18.9-13.8,28.3-20.8c0.1-0.5,0.9-0.9,0.5-1.3c-0.3-0.3-1,0.1-1.6,0.3
		c-17.6,10-35.2,20-54.4,26.8c29.4-18.6,60.6-34.5,83-62.5c-9.2,2.6-18.1,5.4-27.6,5.9c-0.3-0.4-0.3-0.8-0.2-1.2
		c0.5-0.9,1.5-1.2,2.5-1.5c34.1-11.5,56.5-34.3,66.9-68.8c0.8-1.3,0.4-2.8,1-4.1c-0.6,0.7-0.4,1.6-0.5,2.5
		c-4.7,17.9-14.1,33-27.1,45.9c-10.5,10.4-22.8,18.1-36.6,23.3c-1.6,0.6-3.2,1.2-5,1c-0.9-0.2-1.8-0.3-1.8-1.5
		c23.2-9.3,41.7-24.2,54.1-46.1c9.3-16.3,12.3-33.7,7.7-52.1c-0.4-0.2-0.3-0.9-0.9-1c0,0.7-0.3,1.3-0.5,1.8c-0.2,2.9-0.7,5.8-2,8.4
		C1858.5,527.2,1860.6,524.8,1859.5,523.3z"/>
	<path class="st1" d="M2047.7,535.4c1.3,2.1,2.7,4.2,4.6,7.3c-0.9-8.1-4.3-14.3-6.9-21c5.4,2.6,13,21.9,13.7,32.7
		c0.7,6.1-0.1,12.2,0.5,18c0.3-0.5,0-1.8,0.9-2.5c2-20.3-1.7-39.3-12.8-56.6c-0.3-0.9,0.1-1.2,0.9-0.9c13.2,15,23.8,31.2,23.2,52.4
		c-0.4,14.2-5.1,27.1-12.1,39.3c-11.9,20.8-28.4,37.6-46.1,53.4c-1.8,1.6-3.7,3.1-5.6,4.6c4-5.2,8-10.3,11.8-15.6
		c4.5-6.4,8.8-12.9,9.8-21c7.3-8.8,14.1-18,18.1-28.9c6.9-18.3,6.8-36.6,0.6-55c-0.5-1.6-1.1-3.2-1.7-4.9
		C2046.5,535.5,2046.9,535.3,2047.7,535.4z"/>
	<path class="st1" d="M2036.8,488.8c34.5,3.6,65.4,31.8,64.6,74.1c0,2.9-0.2,5.7-0.4,8.6c-1.7,0.5-0.8-1.3-1.5-1.7
		c-0.5-2.9-1.3-5.7-3.3-9c-0.4,29.5-18.1,50.2-32.3,72.4c-2.2,3.3-4.4,6.6-7.5,9.3c2.3-7.7,5.8-15.1,7.6-23c0.3-1.4,0.6-2.8,0.9-4.2
		c7.3-10.8,13.4-22.1,17.5-34.6c7.5-22.7,2.9-42.8-12.1-60.9c-3.5-4.3-7.3-8.3-10.7-12.8c6,2.3,10.1,7.1,14.8,11.1
		c0.7,0.3,1.4,0.6,1.9,1.2c-0.4-0.7-0.7-1.4-1-2.1c-10.4-13.7-24.5-22-40.4-27.6C2034.9,488,2035.9,488.5,2036.8,488.8z"/>
	<path class="st1" d="M1959.1,635.7c7.4-14.3,16.7-27.3,26.9-39.7c10.6-13.1,19.7-27.1,24.9-43.3c2.4,1.4,0.9,3.5,0.9,5.3
		c-0.6,7.8-3.6,14.6-7.4,21.3c-8.2,14.5-17.8,28-26.9,41.9c-10.2,15.3-19.6,30.9-25.2,48.6c-0.1,0.4-0.5,0.6-0.8,0.9
		c0.6-8.8,2.7-17.2,4.9-25.7c0.4-1.5,0.8-3,1.1-4.5C1957.9,638.7,1958.9,637.3,1959.1,635.7z"/>
	<path class="st1" d="M2124.3,525c11.3,16.8,17.3,35.6,19.9,55.6c1.3,10,1.1,20,0.8,30c0,1.5,0.2,3.1-0.6,4.6
		c-0.2-15.4-4.8-29.8-9.6-44.2c-0.2-0.5-0.6-0.9-0.9-1.3c-1.6-10-2.8-20.1-5.9-29.8c-1.5-4.6-3-9.3-4.5-13.8
		C2123,525.1,2123.5,524.9,2124.3,525z"/>
	<path class="st1" d="M1979.8,641.2c-0.1-1.1,0.5-1.9,1.2-2.6c9.1-11.1,18.1-22.1,27.2-33.2c0.3-0.4,0.8-0.7,1.5-0.8
		c-13.5,24.2-30.3,46.4-41,72c1.3-9.9,5.5-18.9,8.5-28.2C1978,645.9,1978.9,643.5,1979.8,641.2z"/>
	<path class="st1" d="M1873.3,550.2c-4.9,20.7-16.2,37.2-32.2,50.8c-11,9.3-23.5,16-37.5,19.7c-0.9,0.6-1.8,0.7-2.6,0
		c-0.6-0.3-1.2-0.5-1.7-0.8c1.3-2,3.5-1,5.3-1.8c15.3-4.1,28.1-12.4,39.5-23.2c13.7-12.9,23.4-28.4,28.6-46.5
		C1874,548.3,1873.5,549.3,1873.3,550.2z"/>
	<path class="st1" d="M1923.6,675.6c6.9-13.6,16.3-25.5,26.1-37c0.9-0.2,1.3,0,1,1c-0.9,2.7-1.8,5.5-3.7,7.7
		c-7.4,7.7-13.8,16.1-20.1,24.7C1926,673.3,1925.6,675.2,1923.6,675.6z"/>
	<path class="st1" d="M1910.3,684.1c3.5-6.8,7.6-13.2,12.3-19.4c-4.9,11.6-10.4,23-10.8,35.8c-1.2-3.1-1.7-6.1-1-9.4
		C1911.1,688.9,1911.7,686.3,1910.3,684.1z"/>
	<path class="st1" d="M1792.3,407.1c-3.5,1.7-5.3,5.5-4.7,9.9c0.2,1.7,0.7,3.4,1.3,4.9s1.5,3,2.5,4.8c-4.7,0.5-8.5-0.7-11-4.4
		c-2.4-3.7-1.8-7.7,0.1-11.5c5-9.4,22-17.1,32.3-14.8c3.4,0.8,6.4,2.4,8.8,5.1c2.6,2.9,4.8,6.2,7.7,8.7c4,3.3,2.3,8.1,4,11.9
		c0.4,0.8-0.9-0.5-1.4-0.2l-0.4-0.1c-0.2-0.1-0.4-0.3-0.7-0.4c-0.3-0.1-0.5-0.2-0.8-0.3c-0.3,0-0.5-0.2-0.8-0.3c0,0-0.4-0.2-0.4-0.2
		c-0.2-0.1-0.4-0.3-0.6-0.4l-0.4-0.1l-0.4,0c-0.3,0.2-0.5,0.3-0.8,0.5c-0.3,0.1-0.5,0-0.7-0.3c-0.6,0-1.3,0.1-1.9,0.1
		c-0.6,0-1.2,0.4-1.8,0c-1.3-0.2-0.9,0.5-1,1.4c-0.3,1.6,2.2,4.6-1.9,4.7c-0.6,0-0.6,0.9-0.4,1.4c1.9,4.4,3.9,8.9,8.5,11.2
		c0.7-0.2,1,0.2,1.3,0.7c0.4,1.5,1.8,1.7,3,2c0.4,0.1,0.7,0.3,1,0.5c0.2,0.3,0.3,0.6,0.4,1c0.2,1.4,1,1.5,2.2,1
		c0.5,0.3,1.1,0.5,1.6,0.9c0.8-0.6,0.5-1.7,1-2.3c0-1.6,0.1-3.1,0-4.7c-0.5-6.1-0.4-12.1,2.5-17.8c1.5-0.1,1.2,0.8,0.9,1.7
		c-0.4,7.1-0.4,14.3,0.9,21.4c0.5,0.5,0.7,1.2,0.8,1.8c0.8-3.4,0-7,0.6-10.4c0.2-2.9,0.9-5.8,2-8.5c1.6,0,1.1,0.9,0.8,1.8
		c0,1.1-0.1,2.2-0.2,3.2c-0.8,5-0.7,9.9,1.4,14.6c0.2,0.5,0.2,1.1,0.4,1.6c0.1,0.4-0.2,1.3,0.4,1.2c0.4,0,0.2-1,0.3-1.5
		c0.1-1.8,0.3-3.4,1.8-4.6c1-3.1,2-6.2,2.9-9.3c0.8-0.1,1.2,0.1,0.8,1c0,3.2,0,6.5,0,11c1.8-5.5,2-10.2,4.8-14.3
		c0.1,4.9-1.2,9.9,0.8,15.5c1.3-6.3,2-12.2,5.3-18.4c0,4.8,0,8.7,0,12.5c0.2,0,0.4,0,0.6,0c0.8-3.5,1.5-7.1,2.2-10.7
		c0.2-0.4,0.4-0.4,0.7-0.1c0,4.6-0.2,9.2,1,13.7c0.9,1.1,1.5,2.3,1.2,3.1c0.2-0.9-0.3-2.4-0.3-4c-0.4-3.2,0.3-6.2,0.8-9.3
		c2.4,0.4,0.6,2.6,1.5,3.5c0.4,3.1,0.6,6.1,2.8,8.5c0.2,0,0.4,0,0.5,0c10.4,9.3,24.1,10.6,36.5,15c6.6,2.3,12.1,5.3,13.2,13
		c0,0.4,0.2,0.9,0.2,1.3c-0.1,2,0.3,4.6-1.4,5.5c-1.5,0.8-2.4-2-4.3-2.6c2.2-0.2,2.7-1.2,2.1-3.1c-1-3.1-3.2-5-5.9-6.5
		c-13.2-7.6-27.6-10-42.5-9.8c-6.7,0.1-13.5,0.4-20.1,1.7c-7.6,1.5-13.9-0.5-18.6-6.8c3.6-0.9,5.7,2.6,9,2.9
		c1.3,0.8,2.8,0.7,4.1,1.2c0.3,0.1,0.5,0.2,0.8,0.2c0.5,0.1-0.2,0.1,0.4,0.1c0-0.1-0.2,0-0.3-0.1c-0.9-0.3-1.8-0.6-2.6-0.7
		c-4.2-0.3-7.3-4-11.6-3.9c-5.1-6-10.2-11.9-15.4-17.9c-1.3-0.9-2-2.4-3.5-3.1c-2.2-2-3.6-4.2-3.4-7.4c0.2-3-1.8-4.7-4.4-5.5
		c-2.7-0.9-5.4-0.9-7.5,1.3c-2.2,2.2-1.8,5.1,1.2,6.7c2.7,1.6,5.7,2.4,8.8,3c2.2,0.4,4.4,1.1,6.2,2.6c0.8,1.1,2.7,1.7,1.5,3.6
		c-6.8-1-13.4-2.9-19.4-5.8c-8.4-4.1-10.9-12.7-7.1-22.5c1.3-1.3,2.9-2.2,4.5-3.1c1.6-1,3.5-1.2,5.3-1.6c1.5,0.1,3-0.5,4.2-0.5
		c-1.6,0.2-3.6,0.3-5.6,0.8c-1.6,0-3,0.8-4.4,1.4C1794.8,404.9,1793.4,405.8,1792.3,407.1z"/>
	<path class="st1" d="M1762.9,463.7c0.3-2.8,0.5-5.7,0.9-9.3c-7.3,10.1-8.9,21.6-12.1,33c-1.2-2-0.3-3.8-2.1-5.3c0,3.6,0,6.9,0,11.3
		c-8.6-26.9-1.9-61.2,26.9-76.7c0.4,7.5,5.3,10.4,11.6,12.3c12.4,3.8,25.1,7.4,35.2,16.2c4.4,3.8,9.1,7.6,11.9,13.1
		c-3.6-2.3-7.5-3.4-11.4-1.6c-3.5,1.7-6.8,3.8-10.6,5.1c1.8-2.6,3.4-5.2,5.3-7.7c2.5-3.2,1.2-3.8-2.2-4c-14.5-0.7-27.8,2.7-40,10.6
		c-0.6,0.4-1.2,0.8-1.8,1.1c-0.2,0.1-0.5,0-1.1,0c0.8-6,5.3-9.9,7.6-15c-7.8,4.4-13,11.1-17.1,18.8
		C1762.1,465.6,1762.7,464.5,1762.9,463.7z"/>
	<path class="st1" d="M2057.4,403.5c16.7,2.1,30.7,9.1,41.3,22.3c0.2,0.9-0.1,1.3-1.1,1.1c-13.3-11.4-28.7-16.1-46.1-14.8
		c-3.1,0.2-5.6,1.8-8.4,2.7c-7.7,2.6-15.9,3.1-24.5,2.9c1.6-5,6.7-6.2,9.3-9.7c0.3-1.1,1.5-1.4,1.9-2.5c0.7-0.4,1.5-0.8,2.9-1.5
		c-1.4-0.3-2.2-0.5-3.1-0.7c4.8-3,10-4.9,15.5-5.8c0.9-0.5,1.8-1.4,2.6-1c-1.8,0.3-3.9-0.6-6,0.2c-8.4,0.9-15.5,4.6-21.3,10.7
		c-1.1,1.1-2.2,2.2-3.4,3.2c-0.7,0.4-1.1-0.1-1.5-0.6c-0.7-2.5-2-1.2-3.1-0.4c-4.2,2.9-8.5,5.6-12.9,8.2c4.8-0.9,8.5-4.1,13.2-5.2
		c0.6,0.3,1.1,0.6,0.8,1.3c-4.8,5-10.8,8.1-17.2,10.5c-0.6,0.9-1.7,1-2.6,1.4c-1.3,0.3-2.7,0.4-4,0.8c-0.8,0.2-1.5,0.6-2.3,0.6
		c1.1,0.1,2-0.5,3.1-0.8c1.3-0.1,2.7-0.5,4-0.8c0.9-0.4,1.9-0.1,2.9-0.4c1.8,0.2,3.5-1.4,6.5-0.6c-11,7-21.3,13.5-32.4,18.7
		c-0.5,0.8-1.2,1.3-2.1,1.5c-0.9,0.1-1.7,0.3-2.3,0.9c-4.6,0.4-9.3,1-15.1,0.6c5.6-2.6,10.2-4.6,15.3-6.9c-1.6-0.4-2.5-0.6-3.5-0.9
		c6.2-2.6,7.5-10.6,14.6-11.6c-0.2-0.4-0.3-0.7-0.5-1c-3.4,0.9-6.7,1.7-10.1,2.5c4.7-5.1,10.6-7.7,16.7-10.1
		c4.5-1.8,9.2-3.1,13.9-4.4c4.5-1.3,8.9-3.1,11.5-7.1c6.9-10.5,17.2-14.8,29-15.9c15.9-1.4,30.7,2.2,44.2,10.9
		c0.8,0.5,1.9,0.9,2,2.7c-8.4-3.3-17-3.5-25.6-2.6c-1.5,0.2-2.8,1.2-4.3,1.3c-0.5,0.2,0.1,0.8,0,0.3c0-0.2,0-0.3,0.3-0.4
		C2055.8,403.2,2056.6,403,2057.4,403.5z"/>
	<path class="st1" d="M2024.5,353.7c-10.4,4.4-21,8-33.6,8.1c2.7-2.5,4.6-4.2,6.5-5.9c-0.2-0.3-0.4-0.5-0.6-0.8
		c-4.9,2.4-9.7,4.9-15.6,7.8c2.1-4.7,3.7-8.4,5.3-12.2c-0.3-0.3-0.6-0.7-0.9-1c-8,12.7-18.9,20-34.9,19c4.1-1.8,7.6-3.2,11.1-4.7
		c0.9-1.9-0.9-0.6-1.2-1.1c-0.8-0.3-2.2,0.6-2.1-1.2c10.9-5.3,19.4-13.7,28.5-21.3c7.1-5.9,15-10.5,24.1-12.7
		c1.7-0.4,3.3-0.8,5.5-0.4c-2.3,2.4-5.3,3.7-8.8,6c9.4-0.5,17.2-3.8,25.6-3.7c1.3-0.1,2.8-1.3,3.5,0.9c-12.2,2.5-24,6-34.8,13
		c4.4-0.6,8.9-1.3,13.4-1.8c4.6-0.5,9.3-0.9,14.1,0.3c-8.7,4.7-17.3,9.3-26,14c0,0.2,0.1,0.4,0.2,0.6c6.4-1.3,12.8-2.5,19.3-3.7
		C2023.7,352.5,2024.6,352,2024.5,353.7z"/>
	<path class="st1" d="M1961,606.9c-20.2,21.4-41.1,42-61.8,62.8c-9.7,9.8-18.3,20.5-25.2,32.6c-1.6,0-1.3-0.9-0.9-1.8
		c2.1-10.6,7-19.9,12.2-29.1c9.7-17.3,21.1-33.4,35.7-47.1c1.7-1.6,3.7-3,5.9-4.1c-10,11.9-21.5,22.5-29.3,36.2
		c19.1-19.4,41.8-34.4,63.3-50.7C1961.3,606,1961.4,606.4,1961,606.9z"/>
	<path class="st1" d="M2128.8,513.8c-7.6-10.2-15.2-20.4-24.2-29.6c-13.7-14-29.8-23-49.3-25.6c-1.3-0.2-2.5-0.6-4-1
		c23.6-6.5,41.7-1.8,62.4,20.6c-2.4-1.3-4-2.2-5.5-3.1c-0.6-0.2-1.2-0.4-1.8-0.6c0.3,0.5,0.5,1.1,0.7,1.7c10,10.7,17.6,23,22.6,36.7
		C2130.1,513.7,2129.6,514,2128.8,513.8z"/>
	<path class="st1" d="M2066.6,434c-9.4-3.9-19.4-4.6-29.5-5.4c18.7-10.8,65.1,6,76.4,26.2c-6.3-4.4-10.7-9.9-17.2-12.5
		c-1.1,0-2-0.7-2.4-0.7c0.4,0,0.8,0.9,1.3,1.5c7.7,5.5,14.3,12.1,17.8,21.2c-14.8-13.8-33.2-21.2-51.3-29c-0.1-0.7,0-1.2,0.8-0.8
		c1.1,0.1,2.2,0.1,3.2,0.2c0.4,0.2,1,0.4,1.3,0C2067.4,434.5,2066.8,434.3,2066.6,434z"/>
	<path class="st1" d="M1943,424.4c7.1-1.2,7.3-1.4,20.8-15.3c-0.1,3.2-1.1,5.2-5.6,10.8c-0.4,1.2,0,1.4,1,1c4-1.8,7.9-3.5,11.9-5.3
		c1.1-0.6,1.9-0.6,1.8,1c-12.8,13.6-28.9,16.4-44.2,7.8c-0.7-0.4-1.4-0.9-2.4-1.6c5.1-1.3,9.8-2.4,14.2-6.2
		c-5.3,0.1-9.9,1.9-14.9-0.5c3.4-0.6,6.2-1,8.9-1.5c-0.1-1.7-1.7-1.1-2.4-2.1c1.2-1.4,3.2-1.5,4.6-2.5c1.8-1.2,5.5-0.4,4.7-4.4
		c0-0.2,1.7-0.9,2.6-1.3c4.6-2.1,9.6-2.4,15.2-2.5c-1.9,1.3-3.9,2.7-5.8,4c0.3,0.4,0.6,0.7,1,1c4.2-0.5,5.9-4.9,9.8-6.7
		c-0.7,4-3.4,6.1-5.7,8.5c-1.5,1.6-3.3,2.4-3.4,5.4c0,2.5-3.3,4.4-5.8,5.9c-3.4,2-7.2,2.6-11,3.5c-0.4,0.7-2.8,1.1-0.4,2.1
		c2.9,1.3,6.1,1.3,9.3,0.8c-1.2-0.2-2.4,0.7-3.5,0C1943.1,426.1,1942.6,425.5,1943,424.4z"/>
	<path class="st1" d="M1769.8,509.4c2.6-9.2,9.3-15.3,16.6-20.7c15.8-11.6,33.7-18.5,52.7-23c14.3-3.4,28.7-5.3,43.4-4.6
		c1,0,2.2-0.3,3.5,0.9c-10.6,1.5-21,2.8-31.2,4.5c-22.3,3.7-43.4,11.4-63.4,21.9c-9.5,5-16.1,13.2-20.9,22.7
		C1769,511.1,1769.5,510.2,1769.8,509.4z"/>
	<path class="st1" d="M1873.8,477.6c-15.6,2.3-30.8,6-44.7,13.8c-0.4,0.7-1,1.2-1.7,1.7c-2.3,0.4-3.1,0-1.4-2.2
		c5.1-6.5,11.7-10.7,19.5-13.2c9.6-3.1,19.4-4.5,29.4-5.3c4.4-0.8,8.7,0.2,13.1,0.3c3.5-0.5,7.1-0.9,10.6-1.6
		c4.5-0.8,8.7,0.5,12.8,2.2c-9.3,1.5-18.5,3-27.7,4.4c-0.8,0.4-1.1,0-1.3-0.7c0.1-0.4,0.4-0.7,0.9-0.8c1.6-1.5,4-0.1,5.7-1.4
		c0.7-0.3,1.5-0.2,2.2-0.2c-1.1-0.1-2.2-0.1-3,0.7c-1.9,0-3.9,0.1-5.7,1C1879.7,477.9,1876.8,477.8,1873.8,477.6z"/>
	<path class="st1" d="M1964.5,652.7c0.5-1.9,1.1-3.8,1.6-5.7c6.3-10.8,13.9-20.7,21.2-30.7c9-12.4,18.1-24.6,27.5-37.3
		c0.5,2.7-1.1,4.3-1.9,6c-4.5,9-11,16.8-16.9,24.8C1985.5,624.1,1974.3,638,1964.5,652.7z"/>
	<path class="st1" d="M2022.8,383.5c-2.5,1.9-4.4,3.2-6.6,4.9c2.5,0.8,3.8-0.9,5.7-0.9c-1.1,2.2-2.8,3.4-4.4,4.4
		c-9.6,6.5-18.1,15-30.2,17.1c-1.5,0.3-3,0.9-5,0.3c2.5-2,5-2.8,7.7-3.8c3.5-1.2,6.2-4.5,8.8-7.3c5.3-5.7,11.2-10.7,18.2-14.2
		C2018.5,383.4,2019.8,382.3,2022.8,383.5z"/>
	<path class="st1" d="M1818.2,347.8c-0.9,7.1-1.8,14.3-2.7,21.4c-0.6,2.9,0.1,6-1.5,8.7c-0.3,1.5-0.6,3-0.9,4.7
		c-2-0.9-0.9-4.5-3.6-3.7c-2,0.6,1,2.5-0.6,3.8c-4-5.1-4.2-10.8-2.6-16.8c1.3-0.1,0.9,0.9,1.1,1.5c0,0.5,0,1.1,0.4,1.4
		c0.4,0.4,0.5-0.4,0.8-0.5c1.8-7.9,4-15.6,8.8-22.3C1818.8,345.9,1818.5,346.9,1818.2,347.8z"/>
	<path class="st1" d="M1938.7,396.2c0.6,9.2-10,16.4-18.3,18.4c-10.2,2.5-19.8,0.9-28.9-4.7c19.5,4,37.4,4.1,46.3-18.2
		C1940.2,392.8,1938.6,394.6,1938.7,396.2z"/>
	<path class="st1" d="M1976.4,579.3c-5.2,5.3-11.3,9.4-17.2,13.7c-0.9,0.3-1.2-0.1-0.9-0.9c10.2-10.9,17-23.6,19.8-38.4
		c1.2,1.2,0,2.8,0.8,4.1c0.3,3.4-0.6,6.7-1.1,10.9c3.7-3.8,5.4-8.1,8.3-11.7c0.9-0.1,1.3,0.2,0.9,1.1c-1.6,4.9-4.9,8.8-7.2,13.3
		c-0.2,2.2-1.9,3.7-2.8,5.5C1976.7,577.6,1976.9,578.5,1976.4,579.3z"/>
	<path class="st1" d="M1965.6,414.8c-0.2-4,2.1-6.5,5-8.3c12.6-7.8,25.3-15.5,38.3-22.8C1997.8,398.3,1979.8,403.8,1965.6,414.8z"/>
	<path class="st1" d="M2162.2,635c3.7-18.5,6.1-37.2,5.3-56.2c-0.3-7.1-1.3-14-1.7-21c7.8,26.6,5.6,52.9-2.7,79
		C2161.4,636.9,2161.9,635.9,2162.2,635z"/>
	<path class="st1" d="M2050.5,468.3c17.7-2.6,32.6,10,40.6,26.2c-11.7-11.4-23.9-21.8-40.6-24.7
		C2049.9,469.3,2049.9,468.8,2050.5,468.3z"/>
	<path class="st1" d="M1898.8,596.4c-5.2,12.6-13.8,22.7-24.2,31.3c-8.6,7.1-17.6,13.8-26.4,20.7c-0.6,0.4-1,1.5-2.6,0.6
		c17.8-17.7,40.5-30.4,52.3-53.6C1898.6,595.5,1898.6,596,1898.8,596.4z"/>
	<path class="st1" d="M2069.5,467.2c16.4,4.7,28.9,14.2,37.5,28.9c-11.5-11.6-24.8-20.7-39.3-28
		C2067.6,466.5,2068.7,467,2069.5,467.2z"/>
	<path class="st1" d="M2028.5,433.7c-7.4,7.7-20.1,13.7-29.4,13.4c3.8-2.4,6.9-4.4,11-7c-2.4-0.2-3.8-0.3-5.5-0.4
		C2010.5,436.6,2025.9,432.7,2028.5,433.7z"/>
	<path class="st1" d="M1926.4,441.3c-7.9-4.9-15.7-9.8-23.6-14.8c5.7-0.3,11.1,0.7,16.6,0.5c2.4-0.1,4.4,1.7,6.3,4
		c-2.4-0.6-4.4-1-7.3-1.7c3.2,4,6,7.4,8.8,10.8C1926.9,440.6,1926.7,441,1926.4,441.3z"/>
	<path class="st1" d="M1881.8,438.1c1.8,1.2,3.2,2.8,5.9,3.1c-4-2.8-2.9-7.1-3.5-10.8c-0.4-0.9-0.5-1.9,0.1-2.8
		c5,7,9.3,14.6,16.3,20c0.1,1.7-0.9,1.2-1.7,0.9c-6.9-1.4-13.5-3.6-18.1-9.5C1880.6,438.2,1881,437.9,1881.8,438.1z"/>
	<path class="st1" d="M1928.6,476.6c-0.1-0.6-0.3-1.1-0.4-1.6c-1-11.6-3.2-14.4-14.2-18.1c-4.2-1.4-8.5-2.3-13-4.8
		c5.2-0.8,9.4,0.5,13.7,2c4.4,1.5,8.3,3.8,12.2,6.2c4.1,2.5,4,2.5,3.8,6.6c-0.1,1.7,0.3,3.4,0.3,5.1
		C1931.1,473.8,1931,475.8,1928.6,476.6z"/>
	<path class="st1" d="M2034.1,543.1c7.1,13.9,7.6,28.4,3.8,43.2C2038,571.8,2037.9,557.3,2034.1,543.1z"/>
	<path class="st1" d="M1923,418.9c-14.6,7.1-27.1-3.2-40.6-4.5c1.8-2.4,3.3-2.8,6.9-1.4c6.2,2.5,12.4,5.3,19.2,5.8
		C1913.3,419.1,1918.2,418.9,1923,418.9z"/>
	<path class="st1" d="M1926.4,447c-10.2,0.4-19.8-1.1-27-9.3C1908,441.7,1917.7,442.8,1926.4,447z"/>
	<path class="st1" d="M1860.2,656.7c0.1,1.1-0.5,1.9-1.1,2.7c-6.8,9.4-13.6,18.9-20.4,28.3c-0.8,0.2-1.2,0-0.9-0.9
		c5.7-10.2,12.4-19.6,20-28.4C1858.5,657.6,1859.1,656.8,1860.2,656.7L1860.2,656.7z"/>
	<path class="st1" d="M1897.1,423.3c6,6.6,12.8,11.9,20.8,15.7C1907.8,438.2,1900.7,433.2,1897.1,423.3z"/>
	<path class="st1" d="M1941.1,581.6c0.2-0.9,0.5-1.6,1.3-2.1c0.2,4.7-7.7,17.2-14,21.6c4.4-6.6,7.7-13.6,10.4-20.9
		C1940.3,579.4,1939.2,582.9,1941.1,581.6z"/>
	<path class="st1" d="M1966.9,445.8c0.4-0.9,0.9-1.4,1.9-1.6c1.4,0.5,2.8,0.4,4.2,0c7-1.2,14-2.4,21-3.6
		C1985.8,446.6,1976.4,446.7,1966.9,445.8z"/>
	<path class="st1" d="M1930.6,429.8c8.8,3.4,17.2,4.2,26.8-0.2C1950.2,437.3,1935.5,437,1930.6,429.8z"/>
	<path class="st1" d="M2060.4,442.7c9.7-0.6,18.8,1,26.7,7.1C2078.1,447.9,2069.5,444.5,2060.4,442.7z"/>
	<path class="st1" d="M1896.9,397.3c6.3,7.1,13,10.9,21.3,3c-1.2,4.3-4,6.6-8.1,7C1903.7,407.8,1900.1,405.3,1896.9,397.3z"/>
	<path class="st1" d="M1910.9,602.5c4.7-8,9.3-16.1,14-24.1c-1.9,9.7-7.1,17.5-13,24.8C1911.6,603,1911.3,602.8,1910.9,602.5z"/>
	<path class="st1" d="M2003.9,432.7c5.6-4.2,12.1-6.4,18.8-8C2017.5,429.8,2011.3,432.6,2003.9,432.7z"/>
	<path class="st1" d="M1803.9,365.3c-0.8,6.8,1.3,13.3,2.2,20.1C1800.7,381.3,1799.6,371.7,1803.9,365.3z"/>
	<path class="st1" d="M1849.9,447.5c-0.2,1.3,0.8,3.7-1.7,3.3c-2.5-0.4-0.3-2.8-0.9-4.2c-0.4-1.7-1.2-3.4-0.1-5.1
		c0.4-5.4,1.8-10.5,4.9-15c0,4.5-2.5,8.7-2.2,13.2C1849.4,442.2,1849.3,444.8,1849.9,447.5z"/>
	<path class="st1" d="M1871.5,605.9c-4.5,8.2-11,14.4-19.4,18.5c6.9-5.8,13.2-12.2,18.5-19.4C1871.4,604.9,1871.8,605,1871.5,605.9z
		"/>
	<path class="st1" d="M2078.7,422.8c-6.8-0.9-13.6-1.9-20.4-2.8c-0.5-1.8,1.3-0.9,1.8-1.5c7-0.1,13.9,0.2,20.4,3.5
		C2080.6,423.6,2079.4,422.9,2078.7,422.8z"/>
	<path class="st1" d="M1957.6,389.3c-2.1,5.6-5.7,9.6-12.4,10.4c3.7-3.9,7.5-7.7,11.2-11.5C1957.4,387.9,1957.9,388.2,1957.6,389.3z
		"/>
	<path class="st1" d="M2061.5,373.7c-8.6-0.9-17.2-1.9-25.8-2.8c9.3-1.3,18.4-0.3,27.4,2C2063.2,374.4,2062.3,374,2061.5,373.7z"/>
	<path class="st1" d="M1993.6,474.9c7.1-4,11.2,0.2,15,5.3C2003.6,478.5,1998.6,476.7,1993.6,474.9z"/>
	<path class="st1" d="M2009.2,369.1c7.3-2.5,14.8-3.7,22.5-4.5C2024.5,367.8,2017,369.3,2009.2,369.1z"/>
	<path class="st1" d="M1915.1,390.1c-2-0.1-4.1-0.1-4.3-2.6c-0.2-2.2,1.6-2.9,3.4-2.8c2.5,0.1,4.9,1.1,4.9,3.7
		C1919.2,390.9,1916.5,389.6,1915.1,390.1z"/>
	<path class="st1" d="M1916.8,396.1c0.4,3.3-1.2,5-3.5,6c-3.3,1.4-6.5,1.3-10.3-1.8C1908.8,401,1913.2,400,1916.8,396.1z"/>
	<path class="st1" d="M2039.1,387.2c-5.3,1.8-10.2,4.6-15.9,5.2c4.1-3.4,8.9-5.3,14.1-6C2038.2,386.1,2039.1,385.5,2039.1,387.2z"/>
	<path class="st1" d="M2046,574.6c0.1-6.2,0.4-12.3-0.2-18.5c2.5,6.4,2.4,13,1.1,19.6C2046,575.8,2045.6,575.6,2046,574.6z"/>
	<path class="st1" d="M1909.2,594.4c2.1-5.9,4.2-11.8,6.3-17.7c1.6,0,1.2,0.9,0.8,1.8c-1.3,6.2-3.4,12.1-6.8,17.5
		C1908.9,595.5,1908.8,595,1909.2,594.4z"/>
	<path class="st1" d="M1971.2,384.6c0.3,1.8,1.7,0.6,2.5,0.9c0.9-0.4,1.8-0.8,1.8,0.8c-3.9,1.3-7.7,2.6-11.6,3.8
		c1.6-2.9,3.5-5.1,6.3-6.4C1971.2,383.3,1971.3,383.8,1971.2,384.6z"/>
	<path class="st1" d="M1943.8,425.9c1.7,0.1,3.4,0.2,5.9,0.3c-5.9,2.4-10.7,1.9-15.5-1.3c1.3-1.5,2.9-1.3,4.4-1.3c0,0.2,0,0.4,0,0.5
		C1940.1,425.5,1942.2,424.9,1943.8,425.9z"/>
	<path class="st1" d="M1800.7,388.1c-5-4.8-5.5-7.7-2.8-12.4C1798.8,379.6,1799.7,383.3,1800.7,388.1z"/>
	<path class="st1" d="M1983.3,580.9c3.4-3.2,6.8-6.5,10.2-9.7c-1.9,4.7-5.1,8.1-9.2,10.6C1983.3,582.2,1983.1,581.8,1983.3,580.9z"
		/>
	<path class="st1" d="M2004.8,465.8c4.7,0.4,9.4,0.6,13.7,2.7c-5,0.4-9.9-0.5-14.7-1.9C2003.9,466.1,2004.4,466,2004.8,465.8z"/>
	<path class="st1" d="M1918.7,373.3c-4.4,1.8-8.8,3.6-13.2,5.4c2.9-3.8,7.1-5.2,11.3-6.2C1917.6,372.4,1918.6,371.8,1918.7,373.3z"
		/>
	<path class="st1" d="M1792.2,383.9c0.4,2.6,0.8,5.3,1.2,7.9c0.1,0.9,0.4,1.8-0.8,2.1c-1.2,0.3-1.8-0.6-2.1-1.6
		c-0.6-2.5-0.2-5,0.1-7.5C1791,384.2,1791.2,383.4,1792.2,383.9z"/>
	<path class="st1" d="M1976.4,579.3c-0.4-0.9-1-1.8-0.8-2.9c2.2-0.8,2.8-3.4,5.1-4.1c1.6-0.7,1.6-2.9,3.3-3.5c1-0.2,1.3,0.1,1.1,1.1
		C1982.1,572.9,1980.2,577,1976.4,579.3z"/>
	<path class="st1" d="M2045,380.7c4.4-1.9,8.7-1.8,12.7,1.1C2053.5,381.1,2049.3,381.2,2045,380.7z"/>
	<path class="st1" d="M1918.9,582.7c1.3-3.8,2.7-7.5,4-11.3c0.7,4.7-0.7,8.7-3.1,12.4C1919.1,583.7,1919.1,583.1,1918.9,582.7z"/>
	<path class="st1" d="M1949,576.8c-0.9,4.1-2.5,7.8-5.6,10.8C1944.3,583.5,1946.5,580.1,1949,576.8z"/>
	<path class="st1" d="M1835.3,452.2c0.6-1.8,1.6-0.9,2.6-0.5c3.1,1.3,6.2,2.6,9.3,3.9c-0.5,1.8-1.7,0.8-2.7,0.7
		c-3.4-0.1-5.7-3.1-8.9-3.6C1835.4,452.6,1835.3,452.5,1835.3,452.2z"/>
	<path class="st1" d="M1984.9,456.1c-4.9,0.9-9.7,1.5-14.5-0.1c0.1-1.6,1-1,1.8-0.7c4,0,7.9,0,11.8,0
		C1985,454.9,1985.2,455.3,1984.9,456.1z"/>
	<path class="st1" d="M2004.8,451.7c-4,1.6-8.1,1.3-12.2,0.6c0-0.5,0-1,0-1.5c3.7,0,7.4,0,11.1,0
		C2004.6,450.5,2004.9,450.9,2004.8,451.7z"/>
	<path class="st1" d="M2010.3,457.2c4.3-0.3,8.2,0.8,12.3,1.8C2017.9,460.1,2013.5,459.5,2010.3,457.2z"/>
	<path class="st1" d="M1940.6,442.1c-3.6-0.4-6.6-2-9.2-4.3c0.1-0.3,0.3-0.7,0.4-1c3.1,1.4,6.2,2.9,9.3,4.3
		C1941,441.5,1940.8,441.8,1940.6,442.1z"/>
	<path class="st1" d="M2028.1,453.8c3.3-1,6.6-2,9.9-3c0.9-0.3,1.2,0.1,1.1,0.9c-2.4,1.3-4.8,2.4-7.5,2.8
		C2030.4,454.7,2028.9,455.8,2028.1,453.8z"/>
	<path class="st1" d="M1879.6,391.3c2.7-2,5.5-3.8,8.9-4.3C1886,389.5,1883.2,391.4,1879.6,391.3z"/>
	<path class="st1" d="M1959.7,396.5c2.8-1.6,5.4-3.6,9.8-4.4C1966.1,395.3,1963.3,397,1959.7,396.5z"/>
	<path class="st1" d="M1921.3,376.8c-3.5,1.3-7,2.5-10.1,4.5c-0.9,0.4-1.1,0-1-0.9c2.9-2.6,6.2-4,10-4.6
		C1921.1,375.6,1921.4,376,1921.3,376.8z"/>
	<path class="st1" d="M1994.4,383.7c-2.7,1.6-5.3,3.1-7.9,4.7c1.4-3.1,3.8-4.9,6.9-5.6C1994.2,382.5,1994.5,382.8,1994.4,383.7z"/>
	<path class="st1" d="M1934.1,458c-1.8-1-3.7-1.9-6.2-3.3c4-1.2,6.6,0.3,9.1,2.2C1936.7,458.9,1935.1,457.8,1934.1,458z"/>
	<path class="st1" d="M1946.5,451.7c2.8,0.8,5.7,1.4,8.8,3.3c-4.4,0.8-7.5-1.4-10.7-2.4C1944.6,450.9,1945.7,451.6,1946.5,451.7z"/>
	<path class="st1" d="M1976.5,394.9c-1.2,2.6-3.1,4.5-6.1,6.5C1971.3,397.6,1973.9,396.2,1976.5,394.9z"/>
	<path class="st1" d="M2015.1,374.3c-3.5,0.5-7,2.1-11.1,1.6c2.6-1.6,5-2.4,7.5-2.6C2012.7,373.4,2014.4,372.1,2015.1,374.3z"/>
	<path class="st1" d="M1847.2,441.4c0,1.7,0.1,3.4,0.1,5.1c-2.7-5-2-10.2-0.9-15.5C1847.1,434.5,1845.4,438.1,1847.2,441.4z"/>
	<path class="st1" d="M1953,458.8c-2.9-0.9-5.7-1.7-8.6-2.6c0.2-0.5,0.7-0.6,1.1-0.9c3.3,0.3,6.3,1.6,9.5,2.6
		C1954.9,459.6,1953.9,459.1,1953,458.8z"/>
	<path class="st1" d="M2020.4,603.5c-1.3,2.6-3.5,4.5-5.4,6.7c-0.7,0-1.2-0.1-0.8-0.9c1-2.8,3.5-4.5,5.3-6.7
		C2020.3,602.4,2020.7,602.6,2020.4,603.5z"/>
	<path class="st1" d="M1887.9,472.6c-4.4,1.7-8.7-1.4-13.1-0.3C1879.3,471.2,1883.6,470.9,1887.9,472.6z"/>
	<path class="st1" d="M1843.7,434.6c0,4.3,0,8.6,0,13.4c-1.1-1.8-1.8-3.1-1.5-4.9C1844,440.5,1842,437.2,1843.7,434.6z"/>
	<path class="st1" d="M1956.8,448.9c-3.1,0.4-6.4,1.3-9.6-1.1C1950.8,447.2,1953.9,447.6,1956.8,448.9z"/>
	<path class="st1" d="M1934.6,470.7c4.3-0.1,7.3,0.1,11.3,1.3C1941.6,472.9,1938.5,472.9,1934.6,470.7z"/>
	<path class="st1" d="M1995.9,369.6c-2.3,1.9-5.1,2.5-7.9,2.8C1990.2,370.3,1992.8,369.3,1995.9,369.6z"/>
	<path class="st1" d="M1974.7,369.2c-1.9,1.6-4,3-7.2,3.5c1.7-2.8,4.1-3.4,6.2-4.4C1974.6,368,1974.9,368.4,1974.7,369.2z"/>
	<path class="st1" d="M2013.4,451.9c2.4-0.9,4.8-1.9,7.2-2.9c-1.3,2.8-3.5,3.7-6.2,3.9C2013.5,453.2,2013.2,452.8,2013.4,451.9z"/>
	<path class="st1" d="M1797.1,369.5c-1.9-3.2-1.3-5.6,0-9.2C1797.1,363.9,1797.1,366.2,1797.1,369.5z"/>
	<path class="st1" d="M1934.1,458c0.8-0.9,2.2,0,2.8-1.1c1.8,0.5,1.4,3.1,3.3,3.5C1937.6,460.8,1935.8,459.5,1934.1,458z"/>
	<path class="st1" d="M1940.3,377.7c-1.4,0.2-2.6-0.2-4.3-1.4c3.7,0,7,0,10.2,0C1944.7,378.7,1942.1,376.5,1940.3,377.7z"/>
	<path class="st1" d="M1940.3,377.7c1.7-1.7,4.3,0.2,6-1.4c1.1-0.1,2.2-0.2,3.3-0.3c0.9-0.3,1.2,0.1,1,0.9
		C1947.2,378.2,1943.8,378.1,1940.3,377.7z"/>
	<path class="st1" d="M1882.7,477c0.3,0.3,0.7,0.5,1,0.8c-2.9,0.6-5.7,2.2-8.8,0.9C1877.3,477,1879.8,476.4,1882.7,477z"/>
	<path class="st1" d="M2032.5,577.5c0-3,0-5.9,0-8.9c1,1.7,1.7,3.5,1.4,5.5c-0.6,1,0,2.2-0.4,3.3
		C2033.2,577.7,2032.8,577.7,2032.5,577.5z"/>
	<path class="st1" d="M1873.3,550.2c-0.3-0.6-0.5-1.2-0.8-1.8c0.4-1.8,0.8-3.5,1.2-5.2c0.4,0.1,0.8,0.2,1.2,0.2
		C1874.5,545.7,1874.4,548,1873.3,550.2z"/>
	<path class="st1" d="M1832.7,442.5c-0.3,0-0.5-0.1-0.8-0.2c-0.7-0.6-1.4-1.3-0.9-2.4c0.1-1,0.4-2.1,1.7-1.6
		c1.5,0.6,0.9,2.1,0.9,3.2C1833.3,441.8,1833.2,442.4,1832.7,442.5z"/>
	<path class="st1" d="M1985.1,570c-0.4-0.4-0.7-0.8-1.1-1.1c1.2-1.4,2-3.2,4.6-4.4C1987.8,567,1986.6,568.6,1985.1,570z"/>
	<path class="st1" d="M2028.1,453.8c1,1.1,2.4,0.4,3.5,0.8c-2.2,1.2-4.6,0.8-7.5,0.7C2025.5,454,2026.8,453.8,2028.1,453.8z"/>
	<path class="st1" d="M1836.2,438.9c-1-2.4-1.2-4.8-0.4-8.5c0.5,3.6,0.9,6.1,1.2,8.6C1836.7,439.3,1836.4,439.3,1836.2,438.9z"/>
	<path class="st1" d="M2036.6,330.4c-0.9-1.3-2.4-0.4-3.5-0.9c2-1.2,4.1-0.4,6.5-0.9C2039,330.7,2037.8,330.6,2036.6,330.4z"/>
	<path class="st1" d="M2041.7,396.7c2.3-1.3,4.7-0.7,7.5-0.7c-1.4,1.3-2.7,1.6-4,1.5C2044.2,396.3,2042.8,397.1,2041.7,396.7z"/>
	<path class="st1" d="M2048.8,512.1c-0.3,0.3-0.6,0.6-0.9,0.9c-1.4-1.8-2.8-3.5-4.2-5.3l0,0C2046.3,508,2047.3,510.4,2048.8,512.1z"
		/>
	<path class="st1" d="M2015.9,409.4c0.4,0.4,0.8,0.8,1.2,1.2c-0.9,1.4-2.1,2.6-3.5,3.4c-0.3-0.3-0.7-0.6-1-1
		C2012.4,410.8,2013.7,409.8,2015.9,409.4z"/>
	<path class="st1" d="M2015.1,374.3c-0.9-1.4-2.4-0.5-3.6-1c2.1-1.3,4.3-0.7,6.6-0.5C2017.6,374.7,2016.2,374.3,2015.1,374.3z"/>
	<path class="st1" d="M2020.4,603.5c-0.3-0.3-0.6-0.7-0.9-1c0.8-1.5,1.8-2.7,4.1-4C2022.7,600.9,2021.6,602.2,2020.4,603.5z"/>
	<path class="st1" d="M1975.5,386.4c-0.6-0.3-1.2-0.5-1.8-0.8c2.1-1.1,4.3-0.9,6.6-0.2C1978.7,385.7,1977.1,386,1975.5,386.4z"/>
	<path class="st1" d="M2014.2,609.2c0.3,0.3,0.5,0.6,0.8,0.9c-0.6,1.8-1.9,2.7-3.2,3.8c-0.3-0.2-0.5-0.4-0.8-0.7
		C2012.1,611.9,2013.1,610.6,2014.2,609.2z"/>
	<path class="st1" d="M1831,439.9c0.3,0.8,0.6,1.6,0.9,2.4c-1.9,0.3-3.5,0-3.5-2.5c0.3-0.4,0.5-0.4,0.9-0.1
		C1829.9,439.8,1830.4,439.8,1831,439.9z"/>
	<path class="st1" d="M1836.2,438.9c0.3,0,0.5,0,0.8,0l0.3-0.1c1.3,1.3,1.5,2.8,1.5,4.4c-0.6,0.5-1.2,1.1-1.8,1.6
		C1837.5,442.8,1835.8,441,1836.2,438.9z"/>
	<path class="st1" d="M2060,418.5c-0.6,0.5-1.2,1-1.8,1.5c-1.5,0.4-2.7-0.1-4-1.3C2056.4,418.1,2058.2,418.1,2060,418.5z"/>
	<path class="st1" d="M1835.3,444.1c0,1.2-0.6,1.9-1.8,1.6c-1.6-0.4-1.3-1.5-0.7-2.6c0.3-0.3,0.5-0.3,0.9-0.1
		C1834.2,443.3,1835.1,443.2,1835.3,444.1z"/>
	<path class="st1" d="M1941.1,581.6c-0.4,0.7-0.5,2.4-1.7,0.5c-0.4-0.6-0.4-1.3-0.7-1.9c0.3-1.1,0.5-2.2,0.8-3.3
		c0.8-0.4,1-0.1,0.8,0.7C1940.7,578.9,1939.4,580.5,1941.1,581.6z"/>
	<path class="st1" d="M1953,458.8c0.7-0.1,1.5-0.1,1.9-0.9c1.6,0.4,3.1,0.7,4.7,1C1957.2,459.7,1955,460,1953,458.8z"/>
	<path class="st1" d="M1943.8,425.9c-2,0.2-4,0.2-5.3-1.7c1.5,0.1,2.9,0.2,4.4,0.3C1943.3,424.9,1943.6,425.4,1943.8,425.9z"/>
	<path class="st1" d="M2029.8,405.5c1,2.1-1.2,1.7-1.9,2.5c-0.5-0.1-1.3-0.4-1.1-0.9C2027.3,405.8,2028.7,405.9,2029.8,405.5z"/>
	<path class="st1" d="M1873,436.6c-1.2-0.9,0-2.8-1.5-3.5c-0.1-0.7,0-1.5,0.7-1.8c1.2-0.4,0.9,0.6,0.9,1.2
		C1873.1,433.8,1873,435.2,1873,436.6z"/>
	<path class="st1" d="M1918.7,373.3c-0.6-0.2-1.2-0.5-1.8-0.7c1.6-1,3.3-1.2,5.4-1.4C1921.5,373.2,1919.7,372.7,1918.7,373.3z"/>
	<path class="st1" d="M1928.3,395.2c-0.4,0.8-0.7,1.6-1,2.4c-0.9,0.1-1.3-0.1-0.9-1.1c0.4-1.3,0.7-2.6,1.1-4
		C1929.5,392.8,1928.5,394.1,1928.3,395.2z"/>
	<path class="st1" d="M1808.5,368.3c0,1.2,0.1,2.4-1.2,3.2c-0.9-1.3-0.1-2.6-0.4-3.9c0.1-0.4,0.3-0.4,0.6-0.4
		C1807.9,367.7,1808.2,368,1808.5,368.3z"/>
	<path class="st1" d="M1838.7,443.3c-0.5-1.5-1-3-1.5-4.4c0.3-0.3,0.5-0.6,0.8-0.9C1838.5,439.7,1839.9,441.3,1838.7,443.3z"/>
	<path class="st1" d="M2020.6,469.2c2-1.6,3-0.5,4.1,0.1C2023.5,470.5,2022.4,469.8,2020.6,469.2z"/>
	<path class="st1" d="M2032.5,577.5c0.2,0,0.4,0,0.7,0c0.7,0.4,0.3,1.3,0.8,1.7c0.2,1.6,0.3,3.1-0.7,4.5c-1-1,0-2.5-0.8-3.5
		C2032.5,579.3,2032.5,578.4,2032.5,577.5z"/>
	<path class="st1" d="M2046,574.6c0.3,0.4,0.6,0.7,0.9,1.1c-0.3,1.4-0.5,2.9-0.8,4.3c-0.3,0.3-0.6,0.3-0.9,0
		C2045.3,578.2,2045.2,576.4,2046,574.6z"/>
	<path class="st1" d="M1870.7,442.4c1.2,1.3,0.7,2.8,0.8,5.3c-1.1-1.9-1.8-3.1-1.7-4.4C1870.1,442.9,1870.4,442.6,1870.7,442.4z"/>
	<path class="st1" d="M1971.2,384.6c-0.3-0.3-0.6-0.5-1-0.8c1-1.1,2.1-2,4.4-2C1973.5,383.5,1972.5,384.2,1971.2,384.6z"/>
	<path class="st1" d="M1928.3,395.2c-0.2-0.9,0.3-2-0.9-2.6c0-0.6,0-1.2,0-1.8c0.4-0.5,0.5-1.3,1.5-0.8
		C1929.1,391.7,1929.5,393.5,1928.3,395.2z"/>
	<path class="st1" d="M1881.8,438.1c-0.3,0.3-0.6,0.7-1,1c-1-0.8-1.9-1.6-1.5-3.4C1880.6,436.1,1881.2,437.1,1881.8,438.1z"/>
	<path class="st1" d="M1925,371.8c-0.2-0.2-0.8-0.4-0.8-0.7c0-0.9,0.8-1,1.5-1c0.3,0,0.9,0.4,0.9,0.5
		C1926.5,371.6,1925.8,371.7,1925,371.8z"/>
	<path class="st1" d="M1923.9,375.1c1.2-0.8,2.5-1,4.3-0.2c-1.7,0.4-3,0.8-4.3,1.1c-0.3-0.2-0.4-0.4-0.3-0.6
		C1923.7,375.2,1923.8,375.1,1923.9,375.1z"/>
	<path class="st1" d="M2099.6,569.7c0.5,0.5,1,1.1,1.5,1.7c0.2,0.8,0.3,1.6-0.3,2.3C2099.3,572.7,2099.5,571.2,2099.6,569.7z"/>
	<path class="st1" d="M1973,416.7c-0.4-0.8-1.1-0.9-1.8-1c1.1-1.1,2.5-1.4,4.1-2C1975.1,415.5,1974,416.1,1973,416.7z"/>
	<path class="st1" d="M1827.4,493.1c0.2-0.9,0.4-1.8,1.7-1.7c0.7,0,1.3,0,2.6,0.1C1829.9,492.5,1828.8,493.2,1827.4,493.1z"/>
	<path class="st1" d="M2039.1,387.2c-0.6-0.3-1.2-0.5-1.8-0.8c1.4-0.9,2.9-1,4.5-0.6C2041.3,386.9,2040,386.8,2039.1,387.2z"/>
	<path class="st1" d="M1983.3,580.9c0.3,0.3,0.6,0.6,1,0.9c-0.9,1-1.9,1.8-3.6,2C1980.9,582.1,1982.2,581.6,1983.3,580.9z"/>
	<path class="st1" d="M2057.4,403.5c-0.9,0-1.9,0-3.3,0c1.8-1.1,3.3-1.7,5-1.4C2058.5,402.6,2058,403.1,2057.4,403.5z"/>
	<path class="st1" d="M2045.2,580.1c0.3,0,0.6,0,0.9,0c-0.3,1.2-0.6,2.3-1.1,3.8C2044,582.3,2044.2,581.1,2045.2,580.1z"/>
	<path class="st1" d="M1910.2,380.6c0.3,0.3,0.7,0.5,1,0.9c-1.1,0.8-2.2,1.5-3.8,2.6C1907.6,381.6,1909.1,381.2,1910.2,380.6z"/>
	<path class="st1" d="M1946.5,451.7c-0.6,0.3-1.3,0.6-1.9,0.9c-0.9-0.3-1.8-0.6-3.6-1.2C1943.6,450.8,1945.1,450.7,1946.5,451.7z"/>
	<path class="st1" d="M2013.4,451.9c0.4,0.4,0.7,0.7,1,1c-1.3,0.7-2.6,0.9-4,0.4C2011.2,452.2,2012.2,451.9,2013.4,451.9z"/>
	<path class="st1" d="M1984.9,456.1c-0.3-0.3-0.5-0.6-0.8-0.9c1.1-0.9,2.3-1,3.7-0.5C1987.1,455.8,1986.1,456.2,1984.9,456.1z"/>
	<path class="st1" d="M2045.1,550.2c0.3,1.3,0.6,2.6,1,4.2c-2.2-0.9-1.5-2.4-1.8-3.5c-0.1-0.2-0.2-0.4-0.1-0.6
		C2044.4,549.8,2044.8,550,2045.1,550.2z"/>
	<path class="st1" d="M2043.6,507.8c-1.5-0.5-2.2-1.9-3-3.1C2042.2,505.2,2043.7,505.7,2043.6,507.8
		C2043.5,507.8,2043.6,507.8,2043.6,507.8z"/>
	<path class="st1" d="M1961,606.9c0-0.4-0.1-0.8-0.1-1.2c0.7-1,1.5-1.9,3.1-2.1C1963.3,605.2,1962.3,606.1,1961,606.9z"/>
	<path class="st1" d="M1972.3,455.3c-0.6,0.2-1.3,0.5-1.8,0.7c-1-0.3-2-0.6-3.4-1C1969.2,454,1970.7,454.5,1972.3,455.3z"/>
	<path class="st1" d="M1909.2,594.4c0.1,0.5,0.2,1,0.3,1.5c-0.3,1.2-0.6,2.4-2.2,3.3C1907.2,597.1,1908.3,595.8,1909.2,594.4z"/>
	<path class="st1" d="M1929,389.9c-0.5,0.3-1,0.5-1.5,0.8c-0.1-1.2-0.4-2.4,0.2-3.6C1928.7,387.9,1929,388.8,1929,389.9z"/>
	<path class="st1" d="M1958.4,361.7c0.7,0.9,1.8,0.6,2.6,0.8c0.3,0.4,0.1,0.7-0.4,0.6c-1.3,0.1-2.6,0.2-4,0.3
		c-0.9,0.3-1.1-0.1-0.8-0.9C1956.7,362.2,1957.6,361.9,1958.4,361.7z"/>
	<path class="st1" d="M1945.4,455.4c-0.4,0.3-0.7,0.6-1.1,0.9c-1.1-0.1-2.1-0.2-3.8-0.3C1942.6,454.9,1944,455.2,1945.4,455.4z"/>
	<path class="st1" d="M1898.9,448.5c0.6-0.3,1.4-0.1,1.7-0.9c0.7,0.4,1.3,0.7,2.3,1.2C1901.2,449.6,1900,449.3,1898.9,448.5z"/>
	<path class="st1" d="M1973,444.2c-1.4,0.7-2.8,1.6-4.2,0c0.9-0.3,1.7-0.5,2.5-0.8C1971.9,443.7,1972.5,443.9,1973,444.2z"/>
	<path class="st1" d="M1942.2,441.8c1.6-0.5,2.3,0,2.8,1C1943.7,443.5,1942.9,443.1,1942.2,441.8z"/>
	<path class="st1" d="M1868.7,429.5c-0.2,0-0.4,0-0.7,0.1c-0.1-1.2,0.4-2.1,1.2-3.1C1870,427.8,1869.8,428.8,1868.7,429.5z"/>
	<path class="st1" d="M1846.6,427.9c-0.3-0.6-0.5-1.2-0.8-1.8c0.3-0.8,0.6-1.5,1-2.6C1847.9,425.3,1847.3,426.6,1846.6,427.9z"/>
	<path class="st1" d="M1959.3,421c-0.8,0.9-1.8,1.3-3,1.3c0-1.3,1-1.8,1.9-2.3C1958.6,420.3,1959,420.6,1959.3,421z"/>
	<path class="st1" d="M1769.8,509.4c0.3,0.5,0.5,1.1,0.8,1.7c-0.1,0.8-0.3,1.6-1.3,2C1768.6,511.8,1768.9,510.5,1769.8,509.4z"/>
	<path class="st1" d="M1822.3,420c0.6,0,1.2-1.2,1.8,0c0,0.7,1.4,1.7,0.3,2C1823.5,422.4,1822.7,421.1,1822.3,420z"/>
	<path class="st1" d="M2109,388.2c-0.3,0.3-0.6,0.6-0.9,0.9c-1-0.4-2-0.9-2.3-2.2C2107.2,386.4,2108.1,387.3,2109,388.2z"/>
	<path class="st1" d="M1957.6,389.3c-0.4-0.4-0.8-0.8-1.1-1.2c0.5-1,1.2-1.8,2.4-2.3C1959,387.2,1958.5,388.3,1957.6,389.3z"/>
	<path class="st1" d="M1792.2,383.9c-0.5,0.3-1,0.5-1.5,0.9c-0.1-1.1-0.2-2.6,1-2.8C1792.4,381.8,1792.2,383.2,1792.2,383.9z"/>
	<path class="st1" d="M2061.5,373.7c0.5-0.3,1.1-0.5,1.7-0.9c0.9,0.1,1.7,0.3,2.3,1.3C2064,374.6,2062.7,374.5,2061.5,373.7z"/>
	<path class="st1" d="M1983.6,373.3c1-1,2.1-1.8,2.6-1.3c1,1-0.1,1.3-0.9,1.5C1984.8,373.6,1984.3,373.5,1983.6,373.3z"/>
	<path class="st1" d="M2033.9,579.2c-0.3-0.6-0.5-1.1-0.8-1.7c0.1-1.1-0.3-2.4,0.7-3.3C2033.9,575.8,2033.9,577.5,2033.9,579.2z"/>
	<path class="st1" d="M1807.6,367.4c-0.2,0.1-0.4,0.2-0.6,0.4c-0.2-0.6-0.5-1.2-0.7-1.8c0.2-0.9,0.2-1.8,1.2-2.5
		C1808.2,364.8,1807.4,366.1,1807.6,367.4z"/>
	<path class="st1" d="M1955.9,362.5c0.3,0.3,0.5,0.6,0.8,0.9c-1.2,0.9-2.4,1.1-4.1,0.2C1953.9,363.1,1954.9,362.8,1955.9,362.5z"/>
	<path class="st1" d="M2032.5,580.1c1.2,1,0.5,2.4,0.8,3.5c0,0.5-0.1,1-0.2,1.5c-1.6,0-1.1-0.9-0.8-1.8
		C2032.3,582.3,2032.4,581.2,2032.5,580.1z"/>
	<path class="st1" d="M1918.9,582.7c0.3,0.4,0.5,0.7,0.9,1c-0.4,0.8-0.7,1.5-1.1,2.3c-0.8,0.2-1.2,0-0.8-0.9
		C1918.2,584.4,1918.6,583.5,1918.9,582.7z"/>
	<path class="st1" d="M2032.3,583.3c0.3,0.6,0.5,1.2,0.8,1.8c0,0.9-0.4,2.1-1.1,1.5C2031,585.9,2031.6,584.4,2032.3,583.3z"/>
	<path class="st1" d="M1917.8,585.2c0.3,0.3,0.5,0.5,0.8,0.9c-0.3,1-0.7,1.8-2,2.2C1916.3,586.9,1917.1,586,1917.8,585.2z"/>
	<path class="st1" d="M1958.3,592c0.3,0.3,0.6,0.6,0.9,0.9c-0.7,0.9-1.5,1.6-2.9,1.7C1956.1,593.1,1957.4,592.8,1958.3,592z"/>
	<path class="st1" d="M1898.8,596.4c-0.3-0.4-0.5-0.7-0.8-1c0.4-0.8,0.7-1.6,1.1-2.3c0.8-0.1,1.2,0,0.8,0.9
		C1899.5,594.8,1899.1,595.6,1898.8,596.4z"/>
	<path class="st1" d="M2024.5,353.7c-0.3-0.8-1.1-0.6-1.7-0.9c1.1-0.8,2.4-1.5,3.5-0.3C2026.6,352.8,2025.3,353.5,2024.5,353.7z"/>
	<path class="st1" d="M1923.9,375.1c0,0.3,0,0.6,0,0.9c-0.9,0.3-1.8,0.5-2.6,0.8c-0.4-0.3-0.7-0.6-1.1-0.9
		C1921.3,375,1922.6,375.2,1923.9,375.1z"/>
	<path class="st1" d="M1900.6,589.9c0-0.9,0-1.8,1.3-1.8c0.1,1.3-0.3,2.5-1,3.5C1900.4,591.1,1900.3,590.6,1900.6,589.9z"/>
	<path class="st1" d="M1900.6,589.9c0.1,0.5,0.2,1.1,0.3,1.7c-0.1,0.9-0.2,1.8-1,2.3c-0.3-0.3-0.5-0.6-0.8-0.9
		C1899.6,592,1900.1,591,1900.6,589.9z"/>
	<path class="st1" d="M1994.4,383.7c-0.3-0.3-0.6-0.6-0.9-0.9c0.9-0.8,1.9-0.9,3.1-0.5C1996.3,383.5,1995,383.2,1994.4,383.7z"/>
	<path class="st1" d="M2047.7,535.4c-0.3,0.4-0.6,0.7-0.9,1c-0.7-0.8-1.8-2-0.9-2.7C2047,533,2047.3,534.6,2047.7,535.4z"/>
	<path class="st1" d="M1950.5,376.9c-0.4-0.3-0.7-0.6-1-0.9c1-0.7,2.1-0.8,3.3-0.5C1952.4,376.6,1951.5,376.7,1950.5,376.9z"/>
	<path class="st1" d="M1940.4,577.6c-0.3-0.2-0.5-0.4-0.8-0.7c0.1-0.9,0.4-2.2,1.3-1.8C1941.5,575.4,1941.1,576.8,1940.4,577.6z"/>
	<path class="st1" d="M2039.2,451.7c-0.4-0.3-0.8-0.6-1.1-0.9c0.9-0.6,2-1.7,2.7-0.5C2041.3,451.1,2039.9,451.4,2039.2,451.7z"/>
	<path class="st1" d="M1841.4,421.8c-0.3-0.5-0.6-1.1-0.9-1.7c0.1-0.7,0.9-1.7,1.2-1.3C1842.6,419.7,1842.1,420.9,1841.4,421.8z"/>
	<path class="st1" d="M2004.8,451.7c-0.4-0.3-0.7-0.6-1.1-0.9c1-0.5,2.1-0.8,3.3-0.5C2006.7,451.5,2005.6,451.5,2004.8,451.7z"/>
	<path class="st1" d="M1871.5,605.9c-0.3-0.3-0.6-0.6-0.9-0.9c0.4-0.8,0.7-2.3,1.9-1.4C1873.2,604.2,1872.2,605.3,1871.5,605.9z"/>
	<path class="st1" d="M2078.7,422.8c0.6-0.3,1.1-0.6,1.7-0.9c0.7,0.2,1.8,0.8,1.4,1.2C2080.9,423.9,2079.7,423.5,2078.7,422.8z"/>
	<path class="st1" d="M1818.2,347.8c-0.3-0.6,0-1.5-0.9-1.8c0.2-0.7,0.9-1.6,1.3-1.2C1819.4,345.8,1818.9,346.9,1818.2,347.8z"/>
	<path class="st1" d="M1997.3,425.3c-0.7,0.9-1.8,0.8-2.7,0.8c-0.9,0.4-1.1-0.1-0.9-0.9c0.9-0.2,1.8-0.5,2.6-0.7
		C1996.6,424.8,1996.9,425,1997.3,425.3z"/>
	<path class="st1" d="M1884.3,427.6c0,0.9-0.1,1.8-0.1,2.8c-0.9-0.9-1-2.1-0.7-3.1C1884,426.1,1884.2,426.9,1884.3,427.6z"/>
	<path class="st1" d="M1854.3,434c-0.3-0.3-0.5-0.6-0.8-1c0.3-0.8,0.5-1.5,0.9-2.5C1855.6,431.9,1854.9,432.9,1854.3,434z"/>
	<path class="st1" d="M1974.7,369.2c-0.3-0.3-0.7-0.6-1-0.9c0.7-0.7,1.8-1.7,2.4-1C1977,368.5,1975.4,368.7,1974.7,369.2z"/>
	<path class="st1" d="M2045.1,550.2c-0.3,0.2-0.5,0.4-0.8,0.6c-0.9-0.7-0.9-1.6-0.7-2.9C2044.8,548.5,2044.9,549.3,2045.1,550.2z"/>
	<path class="st1" d="M1926.3,396.5c0.3,0.4,0.6,0.7,0.9,1.1c-0.3,0.9-0.8,2.3-1.7,1.6C1924.7,398.5,1925.7,397.4,1926.3,396.5z"/>
	<path class="st1" d="M1829.3,421.8c-0.3,0-0.6-0.1-0.9-0.1c-0.2-0.3-0.4-0.6-0.4-0.9c0-0.4,0.2-0.7,0.4-0.9c0.4-0.1,0.7,0,0.9,0.3
		h0c0.3,0.2,0.6,0.3,0.9,0.5c0.1,0.1,0.2,0.3,0.3,0.4c0,0.2,0,0.4,0,0.5c-0.1,0.1-0.2,0.3-0.3,0.4
		C1829.8,422.1,1829.5,422,1829.3,421.8z"/>
	<path class="st1" d="M1829.3,439.7c-0.3,0-0.6,0.1-0.9,0.1c-0.3-0.3-0.6-0.7-0.9-1C1828.9,437.6,1829,438.7,1829.3,439.7z"/>
	<path class="st1" d="M1826,420l0.3,0.1c0.3-0.3,0.7-0.4,1.1-0.3c0.3,0.3,0.4,0.7,0.4,1.1c-0.3,0.4-0.7,0.4-1,0
		C1826.5,420.6,1826.3,420.3,1826,420z"/>
	<path class="st1" d="M1826.8,420.8c0.2,0,0.4,0,0.7,0c0.3-0.5,0.6-0.5,0.9,0c0,0.2,0,0.5-0.1,0.7
		C1827.6,421.7,1827,421.6,1826.8,420.8z"/>
	<path class="st1" d="M1833.7,443c-0.3,0-0.6,0-0.9,0.1c0-0.2-0.1-0.4-0.1-0.6c0.3-0.3,0.6-0.7,0.9-1
		C1833.6,442,1833.6,442.5,1833.7,443z"/>
	<path class="st1" d="M2056.8,585.1c-0.6-1.4-0.4-2.7,0.5-2.8c1.3-0.1,0.2,0.9,0.1,1.3C2057.5,584,2057.2,584.3,2056.8,585.1z"/>
	<path class="st1" d="M1849.8,456.2c1.3,0.1,2.7-0.6,4.2,0.9c-1.8,0.9-3.4,1.1-5,0.1C1848.9,456.6,1849.5,456.6,1849.8,456.2z"/>
	<path class="st1" d="M1813,402.8c1.6-1.3,2.6-0.6,3.7,0.4C1815.4,403.9,1814.4,403.8,1813,402.8z"/>
	<path class="st1" d="M1849.8,456.2c-0.3,0.4-0.5,0.7-0.8,1c-1.5-0.3-3.1-0.1-4.5-1c0.9-0.2,2,0.1,2.7-0.7
		C1848.1,455.8,1848.9,456,1849.8,456.2z"/>
	<path class="st1" d="M1827.5,420.1c-0.4,0-0.8,0-1.2,0c0.4-0.6,0.4-1.6,1.3-1.8c0.2,0.3,0.3,0.6,0.3,0.9
		C1828,419.6,1827.8,419.9,1827.5,420.1z"/>
	<path class="st1" d="M1830.2,420.1c0.6,0,1.2,0.1,1.4,0.8c-0.2,0.3-0.4,0.4-0.8,0.4c-0.3,0-0.6-0.2-0.8-0.4l0,0.1
		c-0.2-0.2-0.3-0.4-0.2-0.6C1830.1,420.2,1830.1,420.1,1830.2,420.1z"/>
	<path class="st1" d="M1827.6,419.1c0-0.3,0-0.5,0.1-0.8c0.3,0.3,0.5,0.5,0.8,0.8c-0.1,0.1-0.3,0.3-0.4,0.4
		C1827.8,419.4,1827.7,419.2,1827.6,419.1z"/>
	<path class="st1" d="M1830.2,420.1c-0.1,0.3-0.1,0.5,0,0.9c-0.3-0.3-0.7-0.5-1-0.8C1829.5,420.1,1829.9,420.1,1830.2,420.1z"/>
	<path class="st1" d="M1829.2,420.1c-0.3,0-0.5,0-0.8-0.1c-0.3-0.2-0.4-0.4-0.3-0.5c0.1-0.2,0.1-0.3,0.2-0.3l0.1,0
		C1828.7,419.5,1829,419.8,1829.2,420.1z"/>
	<path class="st1" d="M1831.2,420.8c0.1,0,0.3,0.1,0.4,0c0.1,0.3,0.2,0.5,0.3,0.8c-0.3,0-0.6,0-0.9,0
		C1830.7,421.3,1830.8,421,1831.2,420.8z"/>
	<path class="st1" d="M1805.3,443.8c1.8-0.7,2.9-0.8,4.9,0.8C1808,444.2,1807,444.1,1805.3,443.8z"/>
	<path class="st1" d="M1993.6,425.2c0.3,0.3,0.6,0.6,0.9,0.9c-1.3,1-2.7,0.9-4.2,1c-0.9,0.3-1.2-0.1-1-0.9
		C1990.8,425.9,1992.3,425.6,1993.6,425.2z"/>
	<path class="st1" d="M1989.4,426.2c0.3,0.3,0.7,0.6,1,0.9c-1.2,0.7-2.5,0.9-3.9,0.4C1987.3,426.6,1988.3,426.4,1989.4,426.2z"/>
	<path class="st1" d="M1844.7,481.8c-1.4,1.6-3.4,2-5.5,2.2c1.4-1.7,3.3-2.6,5.6-2.6C1844.8,481.4,1844.7,481.6,1844.7,481.8z"/>
	<path class="st1" d="M1844.7,481.8c0-0.2,0-0.3,0.1-0.5c0.6-1.4,2-1.2,3.3-2.1C1847.7,481.8,1846.1,481.6,1844.7,481.8z"/>
	<path class="st1" d="M1882.6,476.7c0-0.2,0-0.5,0-0.7c1.9-0.9,4-1.1,6.1-0.9l0-0.1C1886.8,476.5,1884.6,476.2,1882.6,476.7z"/>
	<path class="st1" d="M1895.6,474.1c1.7-2.1,3.3-1.6,6.2-1.3C1899.1,473.4,1897.6,473.7,1895.6,474.1z"/>
	<path class="st1" d="M1888.6,475.1c1.1-1.3,2.3-1.1,3.7-0.4C1891.1,475.2,1889.9,475.2,1888.6,475.1
		C1888.6,475,1888.6,475.1,1888.6,475.1z"/>
	<path class="st1" d="M1828.4,419.2c0,0.3,0,0.5,0,0.8c0,0.3,0,0.7,0,1c-0.3,0-0.6,0-0.9,0c0-0.3,0.1-0.5,0-0.9c0-0.3,0-0.6,0-0.9
		C1827.8,419.1,1828.1,419.1,1828.4,419.2z"/>
	<path class="st1" d="M1831.2,420.8c-0.1,0.3-0.2,0.6-0.2,0.9c-0.2,0-0.5,0-0.7,0c0-0.3-0.1-0.6-0.1-0.9
		C1830.5,420.8,1830.8,420.8,1831.2,420.8z"/>
	<path class="st1" d="M1972,340.3c-4.9,5.3-9.4,10.9-16.3,13.6c-1.3,0.5-2.5,1.5-4.1,0.9c-0.3-1.2,1.8-1.5,0.7-3.4
		c-5.9,3.2-11,8.1-18.1,9.1c1.9-1.4,3.8-2.8,5.6-4.3c0.8-0.7,2.6-0.9,0.9-2.7c-1.5-1.6-2.1-0.3-3,0.4c-3.9,3.2-8.1,5.9-12.6,8.2
		c-3.4,1.7-6.9,3.2-11.5,5.3c1.8-2.5,2.7-4,3.8-5.6c-2.5-1-3.5,1.4-5.6,1.6c-0.2-1.2-0.4-2.4-0.5-3.6c-3.4,12.5-12.5,18.1-24.1,20.9
		c4.8-4.3,10.8-7.2,14.8-12.5c-2-0.9-3.1,1.5-5.1,1.2c0.4-1.6,0.7-3.1,1.1-5c-2.2,0.8-3.2,2.4-4.5,3.5c-0.9,0.3-1.2-0.3-1.4-0.9
		c-0.5-1.6-0.8,0-1.1,0.1c-2.7,7.1-6.7,13.1-15.2,16.5c1.6-2.7,2.6-4.6,4-6.9c-3.7,0.5-6.5,2.5-9.6,3.5c-3,1.1-5.9,2-9.1,2.4
		c-3.2,0.4-3.5-1-2.4-3.4c1.1-2.4,2.3-4.8,3.5-7.3c-1.8-0.1-2.1,1.7-3.1,2.1c-1.8,0.7-1.6,4.6-5.3,2.9c-0.8-0.4-2.2,3.2-2.6,5.4
		c-0.8,4.4,1.9,7.9,3.5,11.8c-1.3,0.4-2.2-1.1-3.2,0c0.2,2.2,2.7,3.2,3.1,5.4c-5.5-0.3-8.4-6.3-8-16.8c-1.2,0.4-1.6,1.6-2.2,2.6
		c-2,0-1.3-1.2-1-2.2c-0.6,2.2-1.7,4.3-0.9,6.6c0.4,6.8,3.9,12,9.1,16.2c-1.3,0.8-2.6,0.6-3.9,0.2c-1.9,0.4-3.5-1.4-5.8-0.8
		c1.5,1.1,2.7,2,4.2,3.1c-10.7-0.3-15.9-10.4-14.7-28.2c-2.2,1.9-2.6,4.4-3.5,6.7c-2.1-0.3-0.9-1.6-0.9-2.6c0.3-2.9,1.2-5.7,3.3-7.8
		c5.7-5.8,9.9-12.9,15.4-19c4.9-5.4,9.8-10.7,14.6-16.3c-2.7,1.8-5.6,3.6-8.2,5.6c-6.1,4.6-11.6,9.7-16.8,15.3c-0.9,1-1.3,4.9-4.4,2
		c-0.5,0.6-1.2,1.3-1.6,2c-1.1,2-2.1,4-3.5,6.7c-0.5-3.1,1.5-5.4,0.2-8.3c-3.6,4-4.6,8.7-5.7,13.3c-0.3,1.2-0.3,3.1-1.8,0.6
		c-0.6-3.8-2.5-7.7,0.8-11.2c5.7-16.6,16.8-35.2,24.3-39.9c-3.6,8.6-7,16.7-10.4,24.7c10.5-13.4,20.6-26.7,34.9-36.4
		c-3.6,7.1-8.9,13.2-11,21.2c7.9-8.2,15.4-16.8,25-23.8c0,3.4-2.6,5.4-3.5,9.5c12.9-11.8,25.3-22.6,41.3-28
		c-9.4,7.3-19.9,13.3-27.7,24c4.1-1.6,6.3-4.4,10.4-6.5c-2.6,4.9-6.5,7.8-8.8,12c13.5-9.3,27.4-17.8,43.2-22.6
		c-6.1,5.7-13,10.4-18.3,17.1c13.9-9.5,28-18.5,45.8-22.6c-8.6,8.2-16.5,15.7-24.4,23.2c0.2,0.3,0.4,0.6,0.6,0.9
		c15.6-9.9,32.4-16.8,50.3-20.9c0.2,0.4,0.4,0.8,0.6,1.1c-2.2,1.6-4.4,3.2-7.7,5.7c7.4-1.9,13.2-4.8,19.6-5.6c1-0.1,2.2-1.1,2.6,0.8
		c-9.8,4.5-19.5,9.3-28.3,15.7c-0.3,0.4-0.3,0.7,0.1,1c0.2,0.2,0.5,0,0.7-0.2c8-3.3,16-6.5,24.8-7.1c1,0,2.4-1.1,2.7,0.9
		c-9.5,4.4-19,8.9-27.8,14.9c10-1.3,19.9-2.5,29.9-3.8c-12.8,7.9-23.8,18.5-37.7,25c-0.1-2.4,2.1-3.8,2.2-5.8c0.4-1.5,0-3.3,1.7-4.4
		c-1.8,1.2-3.6,2.2-6.1,3.3c0,0,0.5,0.8,0.4,0.2c0-0.1,0-0.2,0.2-0.3C1970,339.5,1971.1,339.3,1972,340.3z"/>
</g>
<text transform="matrix(1 0 0 1 1549.3735 888.957)" style="fill:#353535; font-family:'Poppins-SemiBold'; font-size:72px;">All Hopes For The Glory</text>
<text transform="matrix(1 0 0 1 1656.6515 944.5742)" style="font-family:'Poppins-Light'; font-size:29px;">Where Creativity Goes Beyond Imagination</text>
<text transform="matrix(1 0 0 1 1781.0989 1243.0593)" style="font-family:'Poppins-Light'; font-size:25px;">www.allhopesfortheglory.com</text>
</svg>
